<svg width="306" height="306" viewBox="0 0 306 306" fill="none" xmlns="http://www.w3.org/2000/svg">
<path fill-rule="evenodd" clip-rule="evenodd" d="M165.848 264.88H169.464C169.67 264.562 169.684 264.551 169.776 264.42C170.008 264.095 170.269 263.793 170.558 263.517C171.578 262.406 172.99 261.735 174.496 261.646C174.568 261.646 174.64 261.646 174.712 261.646C175.614 261.7 176.498 261.923 177.316 262.304C180.18 263.568 183.26 264.267 186.388 264.36L186.447 264.364C187.796 264.523 189.145 264.683 190.493 264.844L218.588 268.154C218.653 268.14 218.72 268.149 218.779 268.179L219.161 268.221C219.666 268.284 220.176 268.28 220.68 268.208C222.788 267.951 224.65 266.591 225.992 264.816C226.73 263.92 227.16 262.81 227.219 261.65L228.096 252.79H186.387C186.309 252.783 186.232 252.766 186.158 252.739C185.989 252.662 185.82 252.587 185.651 252.512C181.378 250.661 176.775 249.693 172.119 249.668C169.799 249.665 167.479 249.665 165.158 249.668C164.764 249.668 164.371 249.688 163.98 249.727C163.575 249.772 163.178 249.83 162.788 249.9C160.73 250.296 158.798 251.186 157.159 252.493L157.098 252.544L157.05 252.584L157.009 252.618L156.94 252.674L156.914 252.684C156.881 252.729 156.844 252.773 156.804 252.814C154.474 255.271 153.121 258.459 152.273 261.858C152.139 262.474 152.531 263.081 153.146 263.214C153.204 263.226 153.262 263.234 153.32 263.238C153.913 263.116 154.373 262.649 154.486 262.055C155.097 259.25 156.549 256.341 159.277 255.728C159.72 255.629 160.134 256.088 159.718 256.657C158.104 258.926 157.684 261.972 157.632 264.885H160.033C160.06 264.143 160.17 263.406 160.363 262.689C160.846 260.678 161.578 258.735 162.542 256.906C162.634 256.718 162.834 256.609 163.042 256.632C163.492 256.689 163.593 257.085 163.196 257.887C162.048 260.064 161.307 262.434 161.012 264.878H164.919C164.896 264.207 164.957 263.537 165.1 262.881C165.507 260.824 166.222 258.839 167.22 256.994C167.298 256.756 167.531 256.605 167.779 256.63C168.536 256.742 167.831 257.982 167.428 258.896C166.55 260.781 166.016 262.807 165.848 264.88ZM156.605 264.88H142.22L138.981 252.79H155.421C153.364 255.172 152.158 258.238 151.354 261.301C151.014 262.624 151.654 263.906 152.817 264.197C152.921 264.227 153.028 264.245 153.135 264.251C154.06 264.576 155.133 263.665 155.403 262.684C155.873 260.803 156.485 258.562 158.14 257.357C157.114 259.731 156.591 262.293 156.605 264.88ZM181.362 195.271H174.685C167.081 195.248 160.754 188.605 160.644 181.405C160.565 172.928 160.644 164.449 160.644 155.971L160.686 156.005C162.642 157.565 164.916 158.677 167.348 159.262C169.661 159.814 172.077 159.731 174.505 159.725H174.56H174.652H174.716H174.754H174.771H174.802C175.843 159.696 176.879 159.57 177.897 159.349H177.907L178.061 159.316L178.079 159.312C181.319 158.589 184.278 156.936 186.591 154.555L186.627 154.658L186.663 154.755L186.67 154.775C188.796 160.437 193.371 165.92 198.991 169.349C199.775 169.833 200.585 170.274 201.418 170.669C201.569 170.771 201.736 170.848 201.912 170.897L201.94 170.91L202.149 170.954H205.812C205.926 170.954 206.04 170.958 206.153 170.967C206.368 170.983 206.582 171.009 206.793 171.046C208.01 171.262 209.127 171.857 209.985 172.747C212.555 175.446 211.54 180.242 208.443 181.883C206.558 182.825 204.33 182.523 202.151 182.523L201.954 182.562C201.623 182.784 201.629 182.981 201.636 183.025V183.035V200.041C201.654 200.243 201.773 200.421 201.953 200.516L203.058 200.554L203.025 200.938L203.017 201.033C202.613 205.057 200.045 208.54 196.32 210.117C194.62 210.72 192.82 210.993 191.018 210.921H190.626C190.496 210.921 190.365 210.921 190.233 210.921H190.115H190.079H189.994H189.955L189.861 210.917H189.837L189.715 210.91H189.701L189.592 210.901H189.573C184.914 210.427 181.157 206.875 180.423 202.25C180.36 201.736 180.332 201.249 180.323 200.852C180.323 200.753 180.323 200.653 180.329 200.553H181.36C182.057 200.414 181.874 200.039 181.874 200.039V196.306H190.625C190.91 196.3 191.138 196.064 191.132 195.779C191.13 195.674 191.097 195.573 191.036 195.488C190.967 195.395 190.949 195.318 190.667 195.282C187.568 195.15 184.462 195.282 181.359 195.282L181.362 195.271ZM173.758 186.892C174.324 186.95 174.877 187.671 175.652 187.927C177.095 188.379 178.671 188.036 179.795 187.023C179.951 186.916 180.147 186.882 180.331 186.929C180.726 187.088 180.485 187.785 180.485 187.785C180.443 187.823 180.402 187.86 180.36 187.897C178.446 189.542 175.602 189.394 173.425 187.821C173.19 187.667 173.125 187.352 173.279 187.117C173.383 186.958 173.569 186.87 173.758 186.891V186.892ZM145.772 111.92H142.458V106.131C142.381 105.715 142.177 105.673 142.177 105.673C138.013 103.563 140.307 97.4352 144.058 97.3632H144.172C148.502 97.446 149.547 103.121 146.759 105.236C146.422 105.493 145.862 105.644 145.772 106.131V111.92ZM143.997 63.5764C134.22 63.6669 125.183 72.0294 125.151 82.5407V87.7264C127.181 87.6889 129.212 87.6611 131.243 87.6426C131.213 84.6097 131.002 81.5938 131.974 78.8349C131.994 78.7758 132.016 78.7172 132.038 78.6591L132.055 78.6123C132.084 78.5342 132.114 78.4581 132.145 78.3789L132.17 78.3162L132.188 78.272V78.2664L132.199 78.2407L132.228 78.1682L132.233 78.1579C134.268 73.4688 138.835 70.3829 143.945 70.2452C144.029 70.2452 144.112 70.2452 144.196 70.2452C144.964 70.2529 145.73 70.3351 146.482 70.4909C147.338 70.6323 148.175 70.8687 148.977 71.1962C153.664 73.1814 156.781 77.6968 156.976 82.7828V82.8692V82.9288V82.9632C156.976 83.0146 156.976 83.0624 156.976 83.1118V87.6868C159.008 87.7017 161.04 87.7156 163.071 87.7284C163.071 84.0314 163.262 80.3375 162.217 76.9155L162.204 76.8743L162.166 76.751L162.111 76.5834C159.491 69.0099 152.47 63.8371 144.461 63.578L144.225 63.5754L143.997 63.5764ZM72.6909 85.589H30.7451V36.407H72.6914L72.6909 85.589ZM68.651 40.1472H34.7855C34.7855 40.1472 34.3147 40.4459 34.2715 40.6612V74.5267C34.3625 74.9847 34.5712 75.0556 34.6925 75.0551H34.7084C34.7346 75.0541 34.7603 75.0489 34.785 75.0407H68.6504C68.6803 75.051 68.7116 75.0556 68.743 75.0556H68.7599C68.8828 75.0495 69.0766 74.9646 69.164 74.5277V40.6612L68.8468 40.1868L68.651 40.1472Z" fill="#FFD2BB"/>
<path fill-rule="evenodd" clip-rule="evenodd" d="M174.24 269.212L182.149 269.164C183.854 269.094 185.316 267.928 185.764 266.282V266.277L185.781 266.207L185.784 266.194L185.798 266.131L185.802 266.112L185.814 266.051L185.818 266.031L185.831 265.951L157.116 265.922C157.023 265.983 156.904 265.983 156.811 265.922L141.825 265.907L141.329 265.526L137.816 252.409C137.812 252.362 137.81 252.317 137.811 252.274C135.218 242.459 132.629 232.643 129.899 222.866C129.837 222.623 129.73 222.394 129.583 222.191C129.139 221.548 128.416 221.153 127.634 221.128C109.2 220.933 90.7642 221.128 72.3284 221.128C71.3903 221.17 70.6644 221.965 70.7071 222.903C70.7112 222.991 70.722 223.079 70.7395 223.165C74.5876 237.946 78.4908 252.713 82.5991 267.425C82.9131 268.425 83.8204 269.122 84.8681 269.166C86.4822 269.183 88.0963 269.199 89.7109 269.214L174.24 269.212ZM103.525 238.396C109.628 238.511 115.427 246.367 111.334 250.986C110.302 252.1 108.843 252.719 107.325 252.691H107.205C103.672 252.696 99.5457 250.148 98.2091 246.272C97.0854 243.007 98.826 238.481 103.337 238.395H103.523L103.525 238.396ZM161.176 246.542L160.934 249.303H160.931C159.736 249.693 158.599 250.242 157.55 250.934L157.496 250.97L157.461 250.994H157.458C157.197 251.169 156.942 251.353 156.693 251.545C156.615 251.608 156.536 251.669 156.458 251.733L156.427 251.758H153.051L153.508 246.538L161.176 246.542ZM228.648 246.542L228.192 251.762H211.82L212.277 246.543L228.648 246.542ZM110.006 171.64C108.209 171.535 106.776 170.102 106.671 168.306C106.642 166.772 105.808 165.232 104.307 165.204C99.7734 165.175 95.2405 165.204 90.7082 165.204C89.4148 165.248 88.3718 166.276 88.3091 167.569C88.2366 179.051 88.0963 190.536 88.3091 202.017C88.3836 203.287 89.4035 204.295 90.6737 204.355C104.282 204.44 117.894 204.612 131.5 204.355C132.769 204.281 133.777 203.26 133.835 201.99C133.894 192.652 134.012 183.312 133.835 173.975C133.761 172.705 132.74 171.698 131.471 171.64C124.329 171.595 117.186 171.774 110.045 171.64L110.006 171.64ZM242.051 187.765C242.051 191.128 242.072 194.491 242.115 197.854C242.168 198.751 242.883 199.466 243.78 199.519C255.228 199.66 266.677 199.66 278.127 199.519C279.024 199.467 279.74 198.751 279.792 197.854C279.86 192.48 279.876 187.105 279.839 181.73L260.82 190.837C260.681 190.92 260.507 190.919 260.369 190.834L242.069 181.743C242.057 183.668 242.051 185.593 242.051 187.517C242.069 187.598 242.069 187.682 242.053 187.763L242.051 187.765ZM279.831 180.604C279.82 179.354 279.808 178.104 279.792 176.855C279.74 175.958 279.024 175.242 278.127 175.19C266.694 175.047 255.259 175.19 243.825 175.19C242.911 175.22 242.17 175.942 242.115 176.855C242.1 178.104 242.087 179.353 242.078 180.602L260.6 189.803L279.831 180.604ZM205.799 183.538H205.854C206.695 183.528 207.527 183.366 208.311 183.059C208.338 183.049 208.321 183.073 208.321 183.073C207.925 185.987 205.587 188.251 202.662 188.552V183.54L205.799 183.538ZM162.429 130.034C161.653 130.03 160.883 130.16 160.153 130.42C159.27 130.74 158.46 131.232 157.769 131.868C156.421 133.095 155.575 134.777 155.393 136.591L155.366 136.687C155.366 140.838 155.103 145.092 156.559 148.81C158.634 153.852 163.14 157.485 168.508 158.444C169.273 158.576 170.046 158.659 170.821 158.69C170.924 158.693 171.03 158.696 171.134 158.697C172.222 158.703 173.31 158.697 174.398 158.697H174.445C175.346 158.68 176.244 158.6 177.133 158.458C179.335 158.065 181.43 157.217 183.284 155.969L183.361 155.917L183.412 155.883C184.528 155.117 185.543 154.214 186.434 153.196L187.04 153.069C187.045 153.067 187.05 153.067 187.056 153.069C187.077 153.074 187.096 153.085 187.111 153.102C187.209 153.218 187.282 153.353 187.326 153.498C187.361 153.59 187.399 153.704 187.44 153.836C188.497 157.199 190.559 160.21 193.032 162.858C194.075 163.969 195.177 165.023 196.333 166.016L196.339 166.021L196.384 166.06C196.616 166.26 196.851 166.457 197.089 166.649C198.61 167.908 200.281 168.975 202.063 169.826L202.104 169.845L202.258 169.916C203.465 169.916 204.671 169.896 205.878 169.916H205.911H205.937H205.973H206.025C206.827 169.945 207.617 170.113 208.362 170.411L208.339 151.027L208.327 150.854L208.321 150.775L208.313 150.682L208.304 150.579L208.297 150.509L208.285 150.394L208.279 150.338L208.265 150.216L208.259 150.164L208.243 150.04L208.237 149.993L208.219 149.87L208.212 149.823L208.194 149.704L208.185 149.653L208.166 149.541L208.156 149.482L208.138 149.382L208.125 149.312L208.108 149.225L208.092 149.141L208.077 149.07L208.056 148.971L208.045 148.919L208.018 148.801L208.011 148.77L207.978 148.629V148.622C206.431 142.248 200.451 137.074 193.54 137.053H170.3L170.272 137.046C169.712 136.91 169.731 135.893 169.526 135.193C168.653 132.205 165.638 130.081 162.524 130.031L162.429 130.034ZM131.76 88.7558C131.84 88.8057 131.94 88.8057 132.02 88.7558H156.255C156.324 88.7846 156.401 88.7846 156.47 88.7558H163.261C163.394 88.7584 163.527 88.7728 163.658 88.7995C164.615 89.0555 165.358 89.8127 165.595 90.7755V90.7904L165.599 90.8213L165.604 90.8526V90.8722L165.609 90.9123V90.9261L165.613 90.9693V90.9817L165.616 91.0264V91.0382V91.0937C165.782 100.114 165.673 109.137 165.616 118.159C165.558 119.43 164.549 120.451 163.279 120.523C158.489 120.613 153.699 120.647 148.909 120.65H147.712C140.127 120.647 132.542 120.571 124.958 120.524C123.687 120.466 122.665 119.456 122.593 118.186C122.427 109.166 122.536 100.143 122.593 91.1205V91.0619C122.684 89.7927 123.718 88.7975 124.99 88.7533L131.76 88.7558ZM146.285 112.947L146.482 112.908L146.799 112.433V106.439C147.43 106.076 147.982 105.591 148.422 105.013C150.972 101.658 148.16 96.4923 144.276 96.3391L144.184 96.336H144.046L143.906 96.3391C138.718 96.5699 137.449 103.29 140.704 105.939C140.929 106.131 141.172 106.298 141.431 106.438V112.433L141.471 112.629C141.66 112.913 141.831 112.949 141.906 112.95H141.923C141.93 112.949 141.937 112.948 141.944 112.947H146.285ZM247.793 46.203V52.3598C247.793 52.3598 247.547 52.7196 248.307 52.8738H253.383V75.7926H236.528C236.449 75.7427 236.347 75.7427 236.267 75.7926H229.825V46.203H247.793ZM52.4163 48.0022C50.0033 48.0474 48.3702 52.1531 51.3172 53.4428C51.6133 53.5708 51.9325 53.6366 52.2549 53.6356H52.3063C54.126 53.6037 55.993 51.6442 55.0127 49.6117C54.5305 48.6432 53.5497 48.0232 52.4682 48.0027L52.4163 48.0022Z" fill="#0081E2"/>
<path fill-rule="evenodd" clip-rule="evenodd" d="M103.353 239.423C101.391 239.46 99.4563 240.623 98.9546 242.673C97.9393 246.825 102.347 251.772 106.84 251.796H106.96C107.571 251.788 108.177 251.684 108.755 251.488C110.092 251.033 111.113 249.94 111.475 248.575C112.575 244.343 108.126 239.467 103.463 239.421L103.353 239.423ZM97.3327 140.431L114.636 120.242L131.939 140.431H122.089C122.089 140.431 121.726 140.184 121.575 140.945V161.426H107.695V140.944L107.656 140.748L107.182 140.431H97.3327ZM188.809 89.1513C188.92 89.1461 189.031 89.142 189.141 89.1384C189.252 89.1348 189.365 89.1333 189.482 89.1328C189.567 89.1328 189.653 89.1328 189.739 89.1328C197.918 89.2469 205.324 96.5705 205.103 105.156C207.067 105.812 208.967 106.648 210.778 107.654C213.406 109.199 215.742 111.194 217.679 113.548L217.73 113.61C217.999 112.759 218.334 111.562 218.334 111.562C218.447 111.419 218.62 111.337 218.802 111.339L225.91 111.942C226.602 108.456 226.793 104.889 226.478 101.349L219.338 101.113C219.338 101.113 218.999 101.548 218.699 99.7504C218.333 97.6135 217.737 95.5224 216.922 93.5135C216.922 93.5135 216.662 93.294 217.132 92.8807L223.237 89.1909C221.747 85.9647 219.806 82.9668 217.471 80.2871L211.555 84.293C211.555 84.293 211.537 84.8431 210.238 83.5662C208.685 82.0528 206.974 80.7112 205.134 79.5648C205.134 79.5648 204.794 79.5407 204.932 78.9295L207.702 72.3563C204.601 70.6204 201.268 69.3358 197.804 68.5421L195.372 75.2602C195.372 75.2602 195.681 75.7167 193.882 75.4473C191.736 75.1348 189.563 75.0551 187.4 75.2093C187.4 75.2093 187.112 75.3897 186.864 74.814L185.241 67.8677C182.821 68.155 180.434 68.6773 178.115 69.4273C178.115 69.4273 179.547 70.9838 180.6 72.3204C183.777 76.3597 186.229 80.9193 187.848 85.7966C188.116 86.5965 188.359 87.4082 188.58 88.2317C188.659 88.5375 188.735 88.8444 188.809 89.1513ZM260.597 54.4978V84.0869H237.042V76.8188H253.895C253.908 76.828 254.261 77.0511 254.409 76.3047V54.4978H260.597ZM52.7489 62.2085L52.1351 62.1926L45.5759 57.0346L35.2991 62.6958V74.0131H68.1374V66.3985L58.3664 58.2416L52.7489 62.2085ZM248.819 51.8459H252.794L248.819 47.1012V51.8459Z" fill="white"/>
<path fill-rule="evenodd" clip-rule="evenodd" d="M44.0769 269.212C44.5657 269.239 44.8027 270.198 44.0769 270.24C43.1228 270.257 42.032 270.457 41.8397 269.892C41.759 269.608 41.924 269.313 42.2078 269.232C42.2402 269.223 42.2731 269.217 42.307 269.214C42.8971 269.202 43.4873 269.201 44.0769 269.212ZM73.2043 86.6171H30.23C29.4702 86.4665 29.7159 86.103 29.7159 86.103V35.8935C29.866 35.1399 30.2243 35.3758 30.23 35.3794H73.2043L73.4012 35.4185L73.7179 35.893V60.4834H94.5414L94.6144 60.4891C94.9768 60.5677 95.0297 60.651 95.0549 60.997V87.1054C97.4298 87.1229 99.7831 87.5578 102.007 88.3906C102.376 88.5283 102.877 88.7381 102.877 88.7381C102.923 88.5592 102.97 88.3803 103.018 88.2009C107.727 70.8379 123.445 57.3781 141.443 55.6206C151.137 54.6732 160.973 57.2629 169.234 62.4687V53.9869C169.277 53.5551 169.368 53.5114 169.749 53.4729H228.798V45.6897C228.949 44.9356 229.307 45.172 229.312 45.1756H248.307L248.503 45.2147L248.509 45.2234L248.538 45.2301L248.701 45.3591L254.289 52.0294C254.31 52.0669 254.329 52.106 254.344 52.1461L254.37 52.1631L254.409 52.3594V53.4708H261.112L261.309 53.5099L261.625 53.9838V84.6C261.475 85.3603 261.111 85.114 261.111 85.114H236.528C235.769 84.9629 236.014 84.6 236.014 84.6V76.8188H229.311C228.551 76.6682 228.797 76.3048 228.797 76.3048V54.4979H170.261L170.252 63.1251C172.703 64.7583 174.992 66.6207 177.089 68.6881C179.797 67.7552 182.599 67.1249 185.445 66.8103C185.552 66.8016 185.659 66.8016 185.766 66.8103C185.942 66.8715 186.079 67.0124 186.136 67.1902L187.763 74.1571C187.937 74.1468 188.11 74.1381 188.285 74.1304C190.365 74.0476 192.449 74.1735 194.505 74.5056L196.892 67.7541C196.892 67.7541 196.513 67.199 198.032 67.5413C201.682 68.3838 205.19 69.7507 208.447 71.5982C208.726 71.7298 208.881 72.032 208.826 72.3353L206.05 78.9275C206.197 79.0215 206.343 79.1166 206.488 79.2128C208.219 80.3683 209.831 81.6946 211.299 83.1709L217.199 79.1099C217.199 79.1099 217.235 78.4571 218.246 79.6081C220.703 82.4348 222.738 85.6019 224.288 89.0115C224.435 89.2819 224.384 89.6181 224.161 89.8314L218.038 93.5326C218.102 93.694 218.164 93.8569 218.225 94.0204C218.946 95.9733 219.471 97.994 219.79 100.052L226.949 100.236C226.949 100.236 227.36 99.7289 227.504 101.255C227.831 104.986 227.615 108.744 226.863 112.414C226.825 112.719 226.585 112.961 226.28 113.002L219.152 112.397C219.125 112.497 219.1 112.598 219.071 112.697C218.925 113.393 218.717 114.074 218.449 114.732C220.574 117.519 222.078 120.727 222.86 124.143C223.045 124.967 223.186 125.801 223.281 126.641H250.533C250.553 120.302 250.592 113.962 250.592 107.621C250.633 106.145 251.801 104.949 253.275 104.872C260.263 104.782 267.252 104.782 274.242 104.872C275.689 104.952 276.845 106.107 276.924 107.554C277.088 120.596 276.924 133.639 276.924 146.682C276.88 148.156 275.714 149.351 274.241 149.431C267.275 149.519 260.31 149.431 253.341 149.431C251.866 149.391 250.669 148.223 250.592 146.748C250.512 140.387 250.51 134.026 250.528 127.664H223.376C223.816 134.805 221.361 141.822 216.568 147.132V187.113L241.063 187.121C241.074 183.712 241.094 180.303 241.094 176.892C241.138 175.427 242.297 174.241 243.76 174.161C255.225 174.018 266.691 174.018 278.158 174.161C279.598 174.237 280.748 175.387 280.824 176.827C280.913 183.822 280.824 190.818 280.824 197.813C280.78 199.278 279.62 200.465 278.157 200.543C266.713 200.684 255.268 200.543 243.824 200.543C242.359 200.5 241.172 199.34 241.094 197.878C241.054 194.631 241.05 191.384 241.059 188.138H216.051C215.635 188.101 215.571 188.005 215.537 187.624V148.211C213.812 149.916 211.843 151.356 209.694 152.481C209.58 152.541 209.479 152.59 209.388 152.631V171.09C211.9 172.842 213.346 176.258 212.104 179.301C211.553 180.619 210.603 181.731 209.387 182.481C209.387 182.626 209.378 182.771 209.367 182.915C209.009 186.452 206.2 189.242 202.661 189.576V199.517L203.5 199.548C203.538 199.535 203.578 199.524 203.618 199.517H224.531H224.535H224.651C229.438 199.694 233.175 203.719 232.997 208.505C232.994 208.594 232.989 208.683 232.983 208.773L229.72 246.075L229.173 252.322V252.326L228.248 261.678C228.234 264.346 226.108 266.716 224.136 268.006C223.146 268.649 222.025 269.061 220.854 269.211H251.066C251.089 269.211 251.112 269.214 251.134 269.221C251.412 269.304 251.569 269.597 251.485 269.875C251.434 270.044 251.303 270.176 251.134 270.226C251.112 270.233 251.089 270.236 251.066 270.236H172.72C154.71 270.307 136.701 270.273 118.693 270.236H52.4522C52.1937 270.253 51.9701 270.057 51.9536 269.798C51.9531 269.787 51.9526 269.775 51.9526 269.764C51.9176 269.495 52.1078 269.248 52.3772 269.214C52.4019 269.211 52.427 269.209 52.4522 269.21H82.5399C82.1061 268.798 81.7863 268.28 81.6116 267.707C77.4992 252.973 73.3688 238.236 69.7335 223.376C69.4492 221.873 70.4367 220.424 71.9398 220.14C72.0415 220.12 72.1444 220.107 72.2477 220.099C90.7122 219.684 109.187 219.905 127.655 220.099C129.173 220.16 130.481 221.186 130.904 222.645L138.705 251.761H152.019L152.524 245.982C152.508 245.921 152.514 245.857 152.54 245.8L155.788 208.685C155.813 208.331 155.865 207.978 155.942 207.631C156.963 202.993 161.012 199.646 165.76 199.518H180.85V196.299C176.985 196.299 173.127 196.679 169.605 195.417C163.675 193.194 159.712 187.565 159.619 181.233V155.371H122.6V161.939C122.6 161.939 122.662 162.16 122.283 162.414L122.087 162.453H107.18C107.172 162.453 106.954 162.507 106.706 162.136L106.666 161.939V155.371C95.5474 155.371 84.4291 155.405 73.3102 155.371C63.8517 155.281 54.8307 148.564 52.1227 139.471C52.0035 139.071 51.8965 138.668 51.802 138.261H43.2076L43.1999 180.37C47.8531 180.387 52.5042 180.43 57.1594 180.458C59.0063 180.544 60.4781 182.033 60.5408 183.881V186.8L69.7474 182.276L70.3272 182.365L70.4876 182.737V202.278L70.1519 202.759L69.7474 202.739L60.5408 198.215C60.5408 200.159 60.7947 202.235 59.5975 203.493C58.9678 204.145 58.1083 204.527 57.202 204.555C47.5318 204.734 37.86 204.734 28.1866 204.555C26.388 204.452 24.9522 203.016 24.8489 201.218C24.7405 195.411 24.7405 189.602 24.8489 183.792C24.9522 181.993 26.388 180.557 28.1866 180.454C32.8511 180.366 37.5161 180.351 42.1811 180.361V137.748C42.2176 137.332 42.3132 137.268 42.6951 137.234H51.5927C49.3217 125.154 57.2735 113.52 69.3531 111.249C70.5657 111.021 71.7948 110.895 73.0285 110.87C73.0285 110.87 72.7365 106.02 73.8751 102.281C76.4881 93.6996 84.9683 87.4905 94.0299 87.1219V61.511L73.7199 61.5059V86.103L73.5693 86.4665C73.4655 86.5518 73.338 86.6042 73.2043 86.6171ZM50.0167 269.212C50.5071 269.25 50.7307 270.183 50.0167 270.237C48.8534 270.268 47.6896 270.237 46.5253 270.237C45.9963 270.224 45.8981 269.261 46.4985 269.209C47.6695 269.181 48.8421 269.182 50.0167 269.212ZM267.17 269.212C267.684 269.251 267.791 270.189 267.17 270.237C266.033 270.266 264.894 270.237 263.756 270.237C263.242 270.224 263.037 269.264 263.73 269.209C264.875 269.182 266.02 269.183 267.167 269.212H267.17ZM260.673 270.24H253.898C253.349 270.221 253.235 269.238 253.898 269.212C256.168 269.212 258.44 269.132 260.709 269.212C261.246 269.271 261.269 270.217 260.67 270.238L260.673 270.24ZM174.242 269.212L182.152 269.165C183.857 269.095 185.319 267.929 185.767 266.283V266.278L185.784 266.208L185.787 266.195L185.801 266.132L185.805 266.113L185.817 266.052L185.82 266.032L185.834 265.952L157.118 265.923C157.026 265.984 156.906 265.984 156.814 265.923L141.828 265.908L141.332 265.527L137.816 252.409C137.812 252.362 137.81 252.317 137.811 252.274C135.218 242.459 132.629 232.643 129.899 222.866C129.837 222.623 129.73 222.394 129.583 222.191C129.139 221.548 128.416 221.154 127.634 221.128C109.2 220.934 90.7642 221.128 72.3284 221.128C71.3902 221.171 70.6644 221.965 70.7071 222.903C70.7112 222.991 70.722 223.079 70.7395 223.166C74.5876 237.946 78.4908 252.714 82.599 267.425C82.9131 268.425 83.8204 269.122 84.8681 269.166C86.4822 269.183 88.0963 269.199 89.7109 269.214L174.242 269.212ZM186.902 265.455V265.461C186.949 266.466 186.615 267.452 185.969 268.223C185.722 268.567 185.429 268.876 185.1 269.143L217.975 269.115L186.902 265.451V265.455ZM165.851 264.88H169.467C169.672 264.563 169.686 264.552 169.779 264.421C170.01 264.096 170.272 263.794 170.56 263.518C171.58 262.406 172.993 261.736 174.498 261.647C174.57 261.647 174.642 261.647 174.714 261.647C175.616 261.7 176.5 261.923 177.319 262.305C180.182 263.569 183.262 264.267 186.391 264.361L186.449 264.364C187.798 264.524 189.147 264.684 190.495 264.844L218.59 268.154C218.655 268.141 218.722 268.149 218.781 268.179L219.163 268.222C219.668 268.285 220.179 268.28 220.682 268.209C222.79 267.952 224.652 266.591 225.994 264.816C226.731 263.92 227.161 262.809 227.219 261.65L228.095 252.79H186.387C186.309 252.783 186.231 252.766 186.157 252.739C185.989 252.662 185.82 252.587 185.651 252.512C181.378 250.661 176.775 249.693 172.119 249.668C169.799 249.665 167.479 249.665 165.158 249.668C164.764 249.668 164.371 249.688 163.98 249.727C163.575 249.772 163.177 249.83 162.788 249.9C160.73 250.296 158.798 251.186 157.158 252.493L157.098 252.544L157.05 252.584L157.009 252.618L156.94 252.674L156.914 252.684C156.88 252.729 156.844 252.773 156.804 252.814C154.474 255.271 153.121 258.46 152.272 261.858C152.139 262.474 152.531 263.081 153.146 263.214C153.203 263.226 153.262 263.235 153.32 263.238C153.913 263.116 154.373 262.65 154.486 262.055C155.097 259.25 156.549 256.341 159.277 255.728C159.719 255.629 160.134 256.088 159.718 256.657C158.104 258.926 157.684 261.972 157.631 264.885H160.033C160.06 264.143 160.17 263.406 160.363 262.689C160.846 260.678 161.578 258.735 162.542 256.906C162.634 256.718 162.834 256.609 163.042 256.632C163.492 256.689 163.593 257.085 163.196 257.887C162.048 260.064 161.307 262.434 161.012 264.878H164.919C164.896 264.207 164.957 263.537 165.1 262.881C165.507 260.824 166.222 258.839 167.219 256.994C167.298 256.756 167.53 256.605 167.779 256.631C168.536 256.742 167.831 257.982 167.428 258.896C166.55 260.781 166.016 262.807 165.848 264.88L165.851 264.88ZM180.932 264.593C179.361 264.153 177.819 263.619 176.312 262.994C174.359 262.223 172.247 263.027 170.772 264.837L182.03 264.88C181.93 264.859 181.831 264.836 181.732 264.814C181.462 264.75 181.195 264.675 180.929 264.592L180.932 264.593ZM155.422 252.79H138.983L142.221 264.88H156.606C156.592 262.294 157.114 259.732 158.141 257.357C156.486 258.562 155.873 260.802 155.403 262.684C155.134 263.666 154.063 264.576 153.136 264.251C153.028 264.246 152.921 264.228 152.818 264.197C151.654 263.907 151.015 262.625 151.354 261.301C152.158 258.238 153.365 255.173 155.419 252.79L155.422 252.79ZM103.527 238.397C109.63 238.512 115.429 246.368 111.337 250.987C110.304 252.1 108.846 252.72 107.327 252.691H107.208C103.675 252.697 99.5482 250.149 98.2117 246.273C97.088 243.007 98.8285 238.482 103.34 238.396H103.525L103.527 238.397ZM103.355 239.425C101.393 239.462 99.4588 240.625 98.9571 242.675C97.9418 246.827 102.35 251.774 106.842 251.798H106.962C107.573 251.79 108.179 251.686 108.757 251.49C110.094 251.035 111.115 249.942 111.478 248.577C112.578 244.345 108.129 239.47 103.465 239.423L103.355 239.425ZM161.178 246.544H153.505L153.048 251.765H156.424L156.456 251.739C156.533 251.676 156.61 251.614 156.691 251.552C156.94 251.359 157.194 251.175 157.455 251H157.458L157.493 250.977L157.548 250.941C158.596 250.248 159.733 249.699 160.928 249.309H160.932L161.178 246.544ZM228.651 246.544H212.277L211.82 251.764H228.192L228.651 246.544ZM220.22 200.545H204.088C203.577 206.389 198.988 211.466 193.049 211.919H193.035H193.02L192.917 211.925H192.89H192.87L192.773 211.931H192.735H192.724L192.63 211.935H192.585H192.578H192.478H192.434H192.285H191.997C189.071 211.917 186.125 211.486 183.838 209.839C183.801 209.812 183.763 209.785 183.727 209.758C183.681 209.724 183.636 209.69 183.591 209.655H183.587L183.536 209.615L183.463 209.558L183.457 209.553L183.449 209.547L183.387 209.495L183.336 209.452L183.329 209.446L183.315 209.435L183.248 209.38L183.209 209.346L183.201 209.339L183.182 209.323L183.113 209.264L183.083 209.238L183.075 209.231L183.05 209.209L182.98 209.146L182.96 209.128L182.952 209.121L182.92 209.092L182.851 209.028L182.838 209.016L182.832 209.011L182.792 208.974L182.724 208.908L182.718 208.903L182.715 208.9C181.844 208.06 181.117 207.083 180.562 206.007L180.556 205.997L180.55 205.985L180.517 205.921L180.492 205.869L180.481 205.849L180.467 205.82L180.44 205.765L180.423 205.729L180.408 205.7L180.384 205.649L180.365 205.608L180.355 205.588L180.338 205.552L180.299 205.467L180.292 205.45L180.289 205.444C179.593 203.909 179.255 202.236 179.302 200.551L166.23 200.532L162.251 246.015L161.991 248.997C162.222 248.946 162.222 248.946 162.459 248.894C165.503 248.3 168.909 248.611 172.241 248.628C177.094 248.672 181.888 249.708 186.326 251.675L186.49 251.748H210.788L211.293 245.97C211.271 245.903 211.277 245.83 211.311 245.768L214.556 208.671C214.582 208.316 214.634 207.964 214.711 207.617C215.036 206.053 215.735 204.591 216.746 203.355C217.685 202.176 218.87 201.217 220.218 200.543L220.22 200.545ZM215.585 208.786L212.372 245.517H228.743L231.965 208.689C232.254 204.486 229.081 200.844 224.878 200.554C224.832 200.551 224.787 200.548 224.741 200.546C224.639 200.546 224.53 200.546 224.423 200.546C219.861 200.757 216.121 204.236 215.582 208.771L215.585 208.786ZM165.203 200.564L165.131 200.57C160.78 201.025 157.326 204.434 156.814 208.779L153.597 245.469H161.268L165.203 200.564ZM180.335 200.545C180.331 200.648 180.329 200.745 180.329 200.845C180.338 201.241 180.366 201.727 180.429 202.243C181.163 206.868 184.92 210.42 189.579 210.894H189.598L189.707 210.902H189.721L189.843 210.91H189.867L189.961 210.914H190H190.085H190.121H190.24C190.371 210.914 190.502 210.914 190.632 210.914H191.024C192.826 210.986 194.626 210.713 196.326 210.11C200.054 208.532 202.622 205.043 203.022 201.015L203.031 200.92L203.064 200.536L201.958 200.498C201.779 200.404 201.66 200.225 201.641 200.023V183.025V183.014C201.634 182.969 201.628 182.772 201.96 182.552L202.156 182.513C204.338 182.513 206.564 182.814 208.448 181.872C211.547 180.231 212.565 175.435 209.99 172.736C209.133 171.847 208.016 171.251 206.799 171.035C206.587 170.998 206.373 170.972 206.159 170.956C206.045 170.949 205.931 170.945 205.817 170.943H202.155L201.946 170.899L201.918 170.886C201.742 170.837 201.575 170.76 201.423 170.658C200.591 170.263 199.781 169.822 198.996 169.339C193.376 165.909 188.801 160.426 186.676 154.764L186.668 154.744L186.633 154.647L186.597 154.544C184.284 156.925 181.325 158.579 178.085 159.301L178.066 159.305L177.912 159.338H177.902C176.885 159.559 175.848 159.685 174.807 159.714H174.776H174.759H174.722H174.658H174.566H174.511C172.084 159.721 169.668 159.805 167.354 159.251C164.922 158.666 162.648 157.554 160.692 155.994L160.65 155.96C160.65 164.438 160.572 172.917 160.65 181.395C160.762 188.595 167.087 195.237 174.69 195.26H181.368C184.47 195.26 187.576 195.13 190.675 195.26C190.958 195.296 190.975 195.374 191.044 195.466C191.21 195.699 191.156 196.022 190.924 196.188C190.839 196.249 190.737 196.282 190.633 196.284H181.875V200.017C181.875 200.017 182.059 200.392 181.361 200.531L180.335 200.545ZM122.578 170.569C125.56 170.554 128.544 170.556 131.526 170.613C133.323 170.717 134.757 172.151 134.861 173.948C135.04 183.312 135.04 192.678 134.861 202.045C134.756 203.842 133.323 205.276 131.526 205.38C117.893 205.64 104.256 205.64 90.6182 205.38C88.819 205.277 87.3833 203.841 87.28 202.042C87.0661 190.533 87.0661 179.023 87.28 167.511C87.3848 165.714 88.8185 164.28 90.6151 164.176C95.1814 164.09 99.7492 164.146 104.317 164.176C105.548 164.231 106.663 164.921 107.26 165.999C111.247 165.999 115.234 165.974 119.22 165.999C121.067 166.084 122.539 167.573 122.602 169.421L122.578 170.569ZM110.006 171.641C108.209 171.536 106.776 170.102 106.671 168.306C106.642 166.772 105.808 165.232 104.307 165.204C99.7734 165.175 95.2405 165.204 90.7081 165.204C89.4148 165.248 88.3718 166.276 88.3091 167.569C88.2366 179.051 88.0963 190.536 88.3091 202.018C88.3836 203.287 89.4035 204.295 90.6737 204.355C104.282 204.44 117.894 204.612 131.5 204.355C132.769 204.281 133.777 203.26 133.835 201.99C133.894 192.652 134.012 183.312 133.835 173.975C133.761 172.706 132.74 171.698 131.471 171.64C124.329 171.595 117.186 171.774 110.045 171.64L110.006 171.641ZM42.4504 181.395C37.7037 181.381 32.958 181.395 28.2113 181.486C26.9411 181.559 25.9315 182.58 25.8734 183.851C25.8374 189.631 25.7665 195.414 25.8734 201.194C25.9474 202.464 26.9694 203.473 28.2406 203.531C37.8852 203.591 47.5318 203.708 57.1748 203.531C58.445 203.459 59.4546 202.437 59.5127 201.166V197.394L59.8478 196.913L60.2524 196.934L69.459 201.457V183.563L60.2524 188.087L59.672 187.999L59.5127 187.626C59.5127 184.939 60.0313 181.541 57.145 181.488C52.3988 181.458 47.6526 181.414 42.9059 181.398C42.7604 181.462 42.5949 181.461 42.4504 181.395ZM242.055 187.763C242.055 191.126 242.076 194.489 242.119 197.852C242.171 198.748 242.887 199.464 243.783 199.516C255.232 199.657 266.681 199.657 278.131 199.516C279.028 199.464 279.743 198.749 279.795 197.852C279.864 192.478 279.88 187.103 279.843 181.728L260.823 190.835C260.685 190.918 260.511 190.917 260.373 190.831L242.073 181.741C242.061 183.666 242.054 185.59 242.055 187.515C242.072 187.597 242.071 187.681 242.053 187.763H242.055ZM39.6134 187.131C39.69 187.134 39.7655 187.145 39.8396 187.165L49.6096 192.048C49.6096 192.048 50.1313 192.571 49.6096 192.966L39.8396 197.85L39.2577 197.763L39.0968 197.394V187.624L39.434 187.142C39.4828 187.133 39.5327 187.13 39.582 187.131L39.6134 187.131ZM40.1238 188.455V196.564L48.2319 192.511L40.1238 188.455ZM279.833 180.601C279.823 179.352 279.81 178.102 279.794 176.852C279.742 175.955 279.026 175.239 278.129 175.187C266.696 175.045 255.261 175.187 243.827 175.187C242.913 175.218 242.172 175.939 242.117 176.853C242.102 178.102 242.089 179.351 242.08 180.599L260.602 189.801L279.833 180.601ZM173.758 186.891C174.324 186.949 174.877 187.669 175.652 187.926C177.095 188.378 178.671 188.034 179.795 187.021C179.951 186.914 180.147 186.88 180.331 186.927C180.726 187.087 180.485 187.784 180.485 187.784C180.443 187.822 180.402 187.858 180.36 187.895C178.446 189.54 175.602 189.392 173.425 187.82C173.191 187.664 173.128 187.348 173.284 187.115C173.389 186.958 173.571 186.872 173.758 186.891ZM202.662 183.538V188.553C205.586 188.251 207.925 185.988 208.321 183.075C208.321 183.075 208.338 183.05 208.311 183.061C207.527 183.367 206.695 183.53 205.854 183.54H202.662V183.538ZM121.575 170.574C121.566 168.871 120.922 167.057 119.207 167.027C115.371 167.003 111.533 167.027 107.696 167.027C107.65 168.01 107.914 168.984 108.452 169.809C108.826 170.286 109.388 170.579 109.994 170.611H110.066H115.439C117.483 170.602 119.529 170.585 121.575 170.574ZM162.429 130.034C161.653 130.03 160.883 130.16 160.153 130.421C159.27 130.74 158.46 131.232 157.769 131.868C156.421 133.095 155.575 134.777 155.393 136.591L155.366 136.687C155.366 140.838 155.103 145.093 156.559 148.81C158.634 153.852 163.14 157.485 168.508 158.444C169.273 158.577 170.046 158.659 170.821 158.69C170.924 158.693 171.03 158.696 171.134 158.697C172.222 158.703 173.31 158.697 174.398 158.697H174.445C175.346 158.68 176.244 158.601 177.133 158.458C179.335 158.066 181.43 157.217 183.284 155.969L183.361 155.917L183.412 155.883C184.528 155.118 185.543 154.214 186.434 153.196L187.04 153.069C187.045 153.067 187.05 153.067 187.055 153.069C187.077 153.074 187.096 153.085 187.111 153.102C187.209 153.218 187.282 153.353 187.326 153.498C187.361 153.59 187.399 153.704 187.439 153.837C188.497 157.199 190.559 160.211 193.032 162.859C194.075 163.969 195.177 165.023 196.332 166.016L196.339 166.021L196.384 166.06C196.616 166.26 196.851 166.457 197.089 166.65C198.61 167.908 200.281 168.975 202.063 169.826L202.104 169.845L202.258 169.916C203.465 169.916 204.671 169.896 205.878 169.916H205.911H205.937H205.973H206.025C206.827 169.945 207.617 170.113 208.362 170.411L208.339 151.027L208.327 150.854L208.321 150.775L208.313 150.682L208.304 150.579L208.297 150.51L208.285 150.394L208.279 150.338L208.265 150.216L208.259 150.165L208.243 150.04L208.237 149.993L208.219 149.87L208.212 149.823L208.194 149.705L208.185 149.653L208.166 149.542L208.156 149.483L208.138 149.382L208.125 149.312L208.108 149.225L208.092 149.141L208.077 149.07L208.056 148.971L208.045 148.92L208.018 148.801L208.011 148.77L207.978 148.63V148.622C206.431 142.248 200.451 137.074 193.54 137.053H170.3L170.272 137.047C169.712 136.91 169.731 135.893 169.526 135.193C168.653 132.205 165.638 130.081 162.524 130.031L162.429 130.034ZM97.3327 140.431H107.183L107.657 140.748L107.696 140.944V161.426H121.576V140.944C121.726 140.184 122.09 140.43 122.09 140.43H131.94L114.637 120.242L97.3327 140.431ZM122.602 141.459V154.346H158.893C158.804 154.25 158.716 154.153 158.629 154.056C158.389 153.786 158.159 153.508 157.94 153.222L157.935 153.216L157.901 153.171L157.892 153.159C156.087 150.819 154.919 148.051 154.499 145.125C154.485 145.029 154.473 144.934 154.461 144.841C154.447 144.751 154.435 144.66 154.423 144.569C154.349 144.12 154.32 143.665 154.337 143.21V136.543L154.346 136.471C154.482 135.47 154.765 134.494 155.186 133.576C155.215 133.516 155.246 133.457 155.277 133.398C155.301 133.352 155.328 133.304 155.351 133.258C157.315 129.671 162.203 128.129 165.984 129.73L166.035 129.752L166.08 129.771L166.093 129.777L166.103 129.782L166.136 129.796L166.177 129.815L166.196 129.824L166.211 129.83L166.237 129.842L166.274 129.86L166.3 129.872L166.317 129.88L166.337 129.89L166.371 129.907L166.402 129.922L166.421 129.931L166.437 129.939L166.467 129.955L166.504 129.973L166.522 129.983L166.536 129.99L166.564 130.005L166.605 130.026L166.623 130.036L166.634 130.042L166.661 130.057L166.705 130.081L166.722 130.091L166.732 130.096L166.758 130.111L166.806 130.138L166.821 130.147L166.829 130.151L166.855 130.167L166.904 130.196L166.918 130.204L166.924 130.208L166.953 130.226L167.004 130.256L167.015 130.263L167.021 130.267L167.051 130.286L167.102 130.318L167.111 130.324L167.117 130.327L167.15 130.349L167.201 130.381L167.208 130.386L167.212 130.389L167.249 130.413L167.297 130.446L167.305 130.451L167.348 130.482L167.392 130.512L167.398 130.516L167.452 130.555L167.487 130.58L167.578 130.649C169.292 131.963 170.43 133.891 170.751 136.027C178.376 136.027 186.001 135.957 193.627 136.027H193.735C201.303 136.145 208.382 142.247 209.292 150.149C209.312 150.324 209.329 150.501 209.343 150.679L209.351 150.785L209.389 150.996V151.479C218.089 146.865 223.46 136.614 222.271 126.791C220.858 115.099 210.191 105.23 197.874 105.191H189.279L188.79 104.833C188.79 104.833 188.952 103.001 189.015 101.399C189.648 85.1695 180.412 69.0485 165.942 61.4087C150.887 53.461 131.089 55.4216 117.797 66.7229C110.827 72.6761 105.906 80.6691 103.728 89.5723L103.235 89.9646C102.334 89.7749 101.072 89.1005 99.8392 88.7658C88.908 85.8039 77.6452 92.2644 74.6832 103.196C73.9672 105.838 73.7878 108.598 74.1553 111.311L73.8582 111.844C73.2218 111.982 71.6288 111.929 70.3575 112.116C58.7632 113.823 50.7482 124.606 52.4553 136.201C53.0948 140.544 55.0656 144.581 58.0954 147.757C62.1168 151.937 67.6572 154.313 73.4572 154.345H106.668V141.457H96.2167L96.1797 141.449C95.8938 141.419 95.6872 141.163 95.7175 140.877C95.7278 140.779 95.7659 140.687 95.8265 140.61L114.246 119.119C114.425 119.005 114.64 118.958 114.85 118.987L115.026 119.119L133.447 140.61C133.655 140.976 133.588 141.339 133.09 141.45H133.087L133.057 141.456L122.602 141.459ZM251.492 127.447C251.492 133.876 251.533 140.303 251.615 146.731C251.667 147.637 252.39 148.36 253.296 148.412C260.267 148.5 267.239 148.5 274.212 148.412C275.118 148.36 275.841 147.637 275.893 146.731C276.057 133.684 276.057 120.636 275.893 107.587C275.84 106.681 275.117 105.959 274.212 105.905C267.257 105.817 260.3 105.905 253.344 105.905C252.419 105.933 251.668 106.663 251.615 107.588C251.534 114.022 251.493 120.458 251.492 126.894C251.586 127.066 251.586 127.274 251.492 127.446V127.447ZM263.79 143.383H263.808C264.321 143.416 264.798 143.657 265.128 144.051C265.904 144.904 266.12 146.364 265.02 147.154L265.012 147.16L264.994 147.173C264.869 147.26 264.736 147.334 264.596 147.394H264.593L264.573 147.403C264.208 147.552 263.805 147.578 263.424 147.477C262.341 147.22 261.388 146.125 261.745 144.894V144.886L261.75 144.869V144.864C261.786 144.747 261.832 144.632 261.889 144.523C262.209 143.857 262.869 143.421 263.607 143.388H263.624H263.641H263.653C263.691 143.388 263.73 143.385 263.769 143.385L263.79 143.383ZM263.917 146.524C264.842 146.311 265.006 144.393 263.726 144.409C263.046 144.435 262.585 145.372 262.822 145.996C262.96 146.332 263.292 146.549 263.655 146.54L263.726 146.543C263.776 146.545 263.826 146.541 263.875 146.532L263.917 146.524ZM274.522 110.507L274.838 110.981V141.598C274.753 142.025 274.601 142.134 274.485 142.148H274.466C274.416 142.149 274.367 142.136 274.325 142.11H253.183L253.114 142.095C252.438 141.936 252.669 141.597 252.669 141.597V110.98L252.82 110.617C252.923 110.533 253.05 110.48 253.183 110.467H274.325L274.522 110.507ZM273.811 111.494H253.697V141.084H273.811V111.494ZM144.361 62.5509C154.713 62.7165 164.072 71.6326 164.106 82.5392V87.858C165.339 88.2302 166.281 89.23 166.579 90.4827L166.585 90.5084L166.588 90.5218V90.5336V90.548L166.593 90.5737L166.599 90.6051V90.6148V90.6205C166.613 90.6976 166.624 90.7747 166.632 90.8559V90.8698L166.635 90.9063V90.933V90.9438V90.9536V90.9742V91.0122V91.0333C166.635 91.059 166.635 91.0847 166.635 91.1114C166.692 100.145 166.801 109.182 166.635 118.214C166.532 120.013 165.096 121.449 163.297 121.552C157.3 121.665 151.3 121.724 145.297 121.732H144.097C137.696 121.732 131.296 121.672 124.896 121.552C123.097 121.448 121.661 120.013 121.558 118.214C121.391 109.166 121.391 100.118 121.558 91.0682L121.561 91.0004V90.9808C121.592 90.4462 121.755 89.9276 122.037 89.4721C122.5 88.6944 123.237 88.1176 124.104 87.856C124.092 84.1306 123.929 80.4136 124.905 76.952L124.949 76.7978L124.953 76.7854L124.964 76.7489L125.002 76.623V76.6158V76.6127L125.025 76.5346L125.053 76.4451V76.442C125.072 76.384 125.091 76.3264 125.11 76.2683C127.873 68.2841 135.274 62.8316 143.718 62.5597C143.884 62.5571 144.049 62.5561 144.215 62.5566L144.361 62.5509ZM131.76 88.756H125.001C123.729 88.7997 122.695 89.7954 122.604 91.0646V91.1232C122.547 100.145 122.438 109.169 122.604 118.189C122.676 119.459 123.698 120.469 124.968 120.527C132.553 120.574 140.138 120.65 147.723 120.653H148.919C153.71 120.65 158.5 120.616 163.289 120.526C164.559 120.454 165.568 119.432 165.626 118.162C165.682 109.14 165.792 100.119 165.626 91.0965V91.041V91.0292L165.623 90.9844V90.9721L165.619 90.9289V90.915L165.615 90.875V90.8554L165.609 90.8241L165.605 90.7932V90.7783C165.368 89.8155 164.626 89.0583 163.668 88.8023C163.537 88.7756 163.405 88.7612 163.272 88.7586H156.481C156.412 88.7879 156.334 88.7879 156.266 88.7586H132.02C131.94 88.8074 131.839 88.8064 131.76 88.756ZM188.81 89.1513C188.921 89.1462 189.031 89.1421 189.142 89.1385C189.253 89.1349 189.366 89.1334 189.483 89.1328C189.568 89.1328 189.653 89.1328 189.74 89.1328C197.919 89.247 205.325 96.5706 205.104 105.156C207.068 105.812 208.968 106.648 210.779 107.654C213.407 109.199 215.743 111.194 217.68 113.548L217.731 113.61C218 112.759 218.335 111.562 218.335 111.562C218.448 111.419 218.621 111.337 218.803 111.339L225.911 111.942C226.603 108.456 226.794 104.889 226.479 101.349L219.339 101.113C219.339 101.113 219 101.548 218.7 99.7505C218.334 97.6136 217.738 95.5225 216.923 93.5136C216.923 93.5136 216.663 93.2941 217.133 92.8808L223.238 89.1909C221.748 85.9648 219.806 82.9668 217.472 80.2871L211.556 84.2931C211.556 84.2931 211.538 84.8431 210.238 83.5662C208.686 82.0529 206.975 80.7112 205.135 79.5649C205.135 79.5649 204.795 79.5407 204.933 78.9295L207.703 72.3564C204.602 70.6205 201.269 69.3358 197.805 68.5422L195.373 75.2602C195.373 75.2602 195.682 75.7167 193.883 75.4474C191.737 75.1348 189.564 75.0551 187.401 75.2094C187.401 75.2094 187.113 75.3898 186.865 74.8141L185.242 67.8677C182.822 68.1551 180.435 68.6774 178.116 69.4274C178.116 69.4274 179.548 70.9839 180.601 72.3204C183.778 76.3598 186.23 80.9194 187.849 85.7967C188.116 86.5965 188.36 87.4082 188.581 88.2317C188.659 88.5376 188.735 88.8445 188.809 89.1513H188.81ZM141.944 112.947C141.937 112.949 141.93 112.95 141.923 112.95H141.906C141.832 112.95 141.66 112.913 141.471 112.629L141.431 112.433V106.439C141.172 106.298 140.928 106.131 140.704 105.94C137.449 103.291 138.718 96.5706 143.906 96.3398L144.046 96.3367H144.184L144.276 96.3398C148.16 96.494 150.972 101.659 148.422 105.014C147.982 105.592 147.43 106.077 146.799 106.439V112.434L146.482 112.909L146.285 112.948L141.944 112.947ZM145.772 106.131C145.862 105.644 146.422 105.492 146.759 105.236C149.546 103.121 148.501 97.4455 144.172 97.3633H144.058C140.305 97.4347 138.012 103.563 142.177 105.673C142.177 105.673 142.382 105.715 142.458 106.131V111.92H145.772V106.131ZM267.141 109.195H260.365C259.815 109.176 259.702 108.192 260.365 108.167C262.635 108.167 264.907 108.087 267.176 108.167C267.708 108.226 267.78 109.172 267.141 109.195ZM204.077 105.001V104.982C204.201 97.1602 197.333 89.9065 189.044 90.1712C190.028 94.6974 190.305 99.3485 189.867 103.96L189.847 104.165C192.631 104.165 195.416 104.14 198.201 104.165C200.186 104.201 202.16 104.482 204.077 105.001ZM143.997 63.5765C134.22 63.6669 125.183 72.0295 125.151 82.5407V87.7264C127.181 87.6889 129.212 87.6611 131.243 87.6426C131.213 84.6097 131.002 81.5938 131.974 78.8349C131.994 78.7758 132.016 78.7172 132.038 78.6591L132.054 78.6123C132.084 78.5342 132.114 78.4581 132.145 78.379L132.17 78.3163L132.188 78.2721V78.2664L132.199 78.2407L132.228 78.1682L132.233 78.1579C134.268 73.4688 138.835 70.383 143.945 70.2452C144.029 70.2452 144.112 70.2452 144.196 70.2452C144.964 70.2529 145.73 70.3352 146.482 70.4909C147.338 70.6323 148.175 70.8687 148.977 71.1962C153.664 73.1814 156.781 77.6968 156.976 82.7828V82.8692V82.9288V82.9632C156.976 83.0147 156.976 83.0625 156.976 83.1118V87.6868C159.008 87.7017 161.04 87.7156 163.071 87.7285C163.071 84.0314 163.262 80.3375 162.217 76.9155L162.204 76.8744L162.166 76.751L162.111 76.5834C159.491 69.0099 152.47 63.8371 144.461 63.578L144.225 63.5754L143.997 63.5765ZM155.105 78.6936C153.072 73.6929 147.253 70.5958 141.901 71.502C136.783 72.6067 132.935 76.8451 132.327 82.0452L132.324 82.075L132.314 82.1845V82.2169L132.304 82.3443L132.301 82.3906L132.296 82.4785L132.293 82.5299L132.287 82.626V82.6636L132.283 82.7921V82.8347V82.9329V82.9746V83.1098V87.6334C140.177 87.5691 148.072 87.6226 155.967 87.6796C155.967 85.1043 156.168 82.5237 155.582 80.1365L155.575 80.1103L155.558 80.0429C155.467 79.6857 155.357 79.3336 155.229 78.9876L155.209 78.9362L155.186 78.8745L155.16 78.8108L155.128 78.7275L155.105 78.6936ZM72.6908 36.407H30.745V85.589H72.6913L72.6908 36.407ZM260.598 54.4979H254.409V76.3058C254.259 77.0558 253.905 76.8255 253.894 76.8199H237.041V84.088H260.598V54.4979ZM247.793 46.2032H229.825V75.7923H236.267C236.347 75.7424 236.449 75.7424 236.528 75.7923H253.382V52.8735H248.307C247.547 52.7193 247.793 52.3594 247.793 52.3594L247.793 46.2032ZM34.7855 75.0402C34.7608 75.0485 34.7351 75.0536 34.7089 75.0546H34.6929C34.5716 75.0546 34.3629 74.9842 34.2719 74.5262V40.6613C34.3146 40.4464 34.786 40.1472 34.786 40.1472H68.6514L68.8478 40.1863L69.1649 40.6608V74.5262C69.0775 74.9631 68.8838 75.0479 68.7609 75.0541H68.7439C68.7126 75.0546 68.6812 75.0495 68.6514 75.0392L34.7855 75.0402ZM52.7499 62.2091L52.1361 62.1932L45.5758 57.0347L35.299 62.6959V74.0132H68.1374V66.3986L58.3663 58.2417L52.7499 62.2091ZM68.1374 41.1753H35.299V61.5244L45.3779 55.9727C45.4478 55.9449 45.5208 55.9274 45.5959 55.9213H45.6298C45.7398 55.9305 45.8467 55.9634 45.9434 56.0174L52.4718 61.1491L58.0985 57.1745C58.2939 57.1108 58.5051 57.1154 58.6974 57.1869L58.7241 57.1997L68.1394 65.061L68.1374 41.1753ZM52.572 46.9784C55.4795 47.0977 57.5835 51.2347 55.1535 53.6096C54.5223 54.2033 53.6885 54.5339 52.8218 54.5349H52.7504C50.5544 54.5498 48.2021 52.8437 48.638 50.2087C48.9876 48.3468 50.6073 46.9933 52.5016 46.9789L52.572 46.9784ZM52.4178 48.0034C50.0049 48.0486 48.3717 52.1543 51.3188 53.4441C51.6148 53.5721 51.9341 53.6379 52.2564 53.6369H52.3078C54.1275 53.605 55.9945 51.6454 55.0142 49.6129C54.5321 48.6444 53.5513 48.0245 52.4697 48.0039L52.4178 48.0034ZM248.821 51.8469H252.796L248.821 47.1023V51.8469Z" fill="#262626"/>
<path fill-rule="evenodd" clip-rule="evenodd" d="M215.581 208.784L212.367 245.515H228.738L231.96 208.687C232.249 204.484 229.076 200.842 224.872 200.553C224.829 200.55 224.785 200.548 224.742 200.546C224.639 200.546 224.53 200.546 224.423 200.546C219.862 200.756 216.122 204.235 215.582 208.77L215.581 208.784ZM165.199 200.562L165.127 200.567C160.776 201.023 157.322 204.432 156.809 208.777L153.597 245.468H161.268L165.199 200.562ZM42.4507 181.394C37.704 181.38 32.9583 181.394 28.2116 181.486C26.9414 181.558 25.9318 182.58 25.8737 183.85C25.8377 189.631 25.7668 195.413 25.8737 201.193C25.9477 202.464 26.9697 203.473 28.2409 203.531C37.8854 203.591 47.5321 203.708 57.1751 203.531C58.4453 203.458 59.4549 202.437 59.513 201.166V197.394L59.8481 196.912L60.2527 196.933L69.4593 201.457V183.563L60.2527 188.087L59.6723 187.998L59.513 187.626C59.513 184.939 60.0316 181.541 57.1453 181.487C52.3991 181.457 47.6529 181.413 42.9061 181.398C42.7607 181.462 42.5951 181.461 42.4507 181.394ZM39.6137 187.131C39.6903 187.134 39.7658 187.145 39.8399 187.164L49.6098 192.048C49.6098 192.048 50.1316 192.571 49.6098 192.966L39.8399 197.849L39.258 197.763L39.0971 197.394V187.624L39.4343 187.141C39.4831 187.133 39.533 187.129 39.5823 187.131L39.6137 187.131ZM251.492 127.445C251.492 133.874 251.533 140.301 251.615 146.729C251.667 147.635 252.39 148.358 253.296 148.41C260.267 148.498 267.239 148.498 274.212 148.41C275.118 148.358 275.841 147.635 275.893 146.729C276.057 133.682 276.057 120.634 275.893 107.585C275.84 106.68 275.118 105.957 274.212 105.903C267.257 105.815 260.3 105.903 253.345 105.903C252.419 105.931 251.668 106.662 251.615 107.586C251.534 114.021 251.494 120.456 251.492 126.892C251.587 127.065 251.587 127.273 251.492 127.445ZM263.79 143.381H263.808C264.321 143.414 264.798 143.655 265.129 144.049C265.904 144.902 266.12 146.362 265.02 147.152L265.012 147.158L264.994 147.171C264.869 147.258 264.736 147.332 264.596 147.393H264.593L264.574 147.401C264.209 147.55 263.806 147.576 263.425 147.475C262.341 147.218 261.389 146.123 261.745 144.892V144.884L261.75 144.868V144.862C261.786 144.745 261.833 144.631 261.889 144.521C262.209 143.855 262.869 143.42 263.607 143.387H263.625H263.642H263.653C263.691 143.387 263.731 143.383 263.77 143.383L263.79 143.381ZM274.522 110.505L274.839 110.979V141.596C274.754 142.023 274.602 142.132 274.485 142.146H274.466C274.417 142.147 274.368 142.134 274.325 142.108H253.183L253.114 142.093C252.438 141.934 252.67 141.595 252.67 141.595V110.978L252.82 110.615C252.924 110.531 253.05 110.478 253.183 110.465H274.325L274.522 110.505ZM267.142 109.195C267.78 109.171 267.707 108.226 267.178 108.167C264.909 108.085 262.637 108.167 260.367 108.167C259.704 108.19 259.817 109.174 260.367 109.195H267.142Z" fill="#30F58B"/>
<path fill-rule="evenodd" clip-rule="evenodd" d="M186.9 265.454V265.46C186.946 266.465 186.613 267.451 185.967 268.222C185.719 268.566 185.427 268.875 185.097 269.142L217.973 269.114L186.9 265.45V265.454ZM180.929 264.592C179.359 264.152 177.816 263.618 176.31 262.993C174.357 262.222 172.244 263.027 170.77 264.837L182.027 264.88C181.928 264.858 181.829 264.836 181.73 264.813C181.462 264.75 181.195 264.675 180.929 264.592ZM220.216 200.542C218.867 201.22 217.683 202.185 216.746 203.369C215.735 204.605 215.036 206.067 214.711 207.63C214.634 207.977 214.582 208.33 214.557 208.685L211.311 245.782C211.278 245.844 211.271 245.917 211.293 245.984L210.788 251.762H186.49L186.326 251.688C181.888 249.721 177.094 248.685 172.241 248.642C168.909 248.625 165.503 248.314 162.459 248.908C162.222 248.956 162.222 248.956 161.991 249.011L162.251 246.029L166.231 200.546L179.302 200.564C179.255 202.249 179.593 203.922 180.289 205.457L180.292 205.464L180.299 205.481L180.339 205.566L180.356 205.601L180.365 205.622L180.384 205.662L180.408 205.714L180.423 205.743L180.44 205.778L180.467 205.833L180.481 205.862L180.492 205.883L180.517 205.934L180.55 205.999L180.557 206.011L180.562 206.021C181.117 207.096 181.844 208.073 182.715 208.913L182.718 208.917L182.724 208.922L182.793 208.988L182.832 209.024L182.838 209.03L182.851 209.041L182.921 209.106L182.952 209.135L182.96 209.142L182.98 209.16L183.05 209.223L183.075 209.244L183.084 209.252L183.113 209.277L183.182 209.337L183.201 209.353L183.209 209.36L183.249 209.393L183.315 209.449L183.329 209.46L183.336 209.466L183.387 209.509L183.449 209.561L183.457 209.567L183.463 209.571L183.536 209.629L183.587 209.668H183.591C183.636 209.703 183.681 209.737 183.727 209.771C183.763 209.799 183.801 209.826 183.838 209.853C186.125 211.498 189.071 211.931 191.997 211.948H192.284H192.434H192.477H192.577H192.584H192.629L192.723 211.944H192.734H192.772L192.869 211.939H192.884H192.911L193.014 211.932H193.029H193.043C198.982 211.48 203.571 206.402 204.082 200.559L220.216 200.542ZM40.1239 188.455V196.563L48.232 192.511L40.1239 188.455ZM121.575 170.574C121.566 168.871 120.922 167.057 119.208 167.027C115.371 167.003 111.533 167.027 107.696 167.027C107.65 168.01 107.914 168.984 108.452 169.809C108.826 170.286 109.388 170.578 109.994 170.611H110.066H115.44C117.483 170.602 119.529 170.585 121.575 170.574ZM133.055 141.457L133.086 141.451H133.089C133.587 141.34 133.654 140.976 133.445 140.611L115.026 119.12L114.85 118.987C114.64 118.959 114.425 119.005 114.246 119.12L95.8266 140.611C95.6487 140.836 95.6873 141.163 95.913 141.341C95.9901 141.402 96.0826 141.439 96.1798 141.45L96.2168 141.458H106.669V154.346H73.4573C61.7283 154.34 52.2246 144.828 52.2297 133.099C52.2308 131.142 52.5022 129.194 53.0363 127.312C55.4235 119.348 62.1503 113.448 70.3576 112.119C71.6289 111.932 73.2219 111.985 73.8583 111.847L74.1554 111.314C72.6354 100.091 80.5008 89.7607 91.724 88.2407C94.4371 87.8732 97.1965 88.0526 99.8393 88.7686C101.073 89.1033 102.334 89.7777 103.235 89.9674L103.728 89.5752C105.906 80.6719 110.828 72.679 117.797 66.7258C131.088 55.4244 150.887 53.4634 165.942 61.4116C180.412 69.0513 189.648 85.1724 189.015 101.404C188.952 103.006 188.791 104.839 188.791 104.839L189.279 105.196H197.873C210.19 105.235 220.858 115.104 222.271 126.797C223.459 136.62 218.088 146.871 209.389 151.484V151.001L209.351 150.79L209.343 150.684C209.329 150.507 209.312 150.329 209.291 150.154C208.381 142.253 201.303 136.15 193.734 136.033H193.626C186.002 135.963 178.377 136.033 170.751 136.033C170.431 133.896 169.294 131.966 167.579 130.651L167.488 130.582L167.453 130.557L167.399 130.518L167.394 130.514L167.35 130.484L167.306 130.453L167.298 130.448L167.251 130.415L167.214 130.391L167.21 130.387L167.203 130.383L167.151 130.35L167.118 130.329L167.113 130.326L167.104 130.32L167.052 130.288L167.023 130.269L167.017 130.265L167.006 130.258L166.954 130.228L166.926 130.21L166.919 130.206L166.906 130.198L166.857 130.169L166.83 130.153L166.822 130.148L166.807 130.14L166.76 130.113L166.733 130.098L166.724 130.092L166.707 130.083L166.663 130.059L166.636 130.044L166.624 130.038L166.607 130.028L166.566 130.007L166.537 129.992L166.524 129.984L166.506 129.975L166.469 129.957L166.439 129.941L166.422 129.933L166.404 129.924L166.372 129.908L166.339 129.892L166.318 129.882L166.301 129.874L166.275 129.862L166.239 129.844L166.213 129.832L166.198 129.826L166.179 129.816L166.138 129.798L166.105 129.783L166.094 129.779L166.082 129.773L166.037 129.754L165.985 129.732C162.205 128.131 157.316 129.673 155.353 133.26C155.328 133.306 155.301 133.354 155.278 133.4C155.247 133.458 155.217 133.518 155.187 133.578C154.767 134.496 154.484 135.472 154.348 136.473L154.339 136.545V143.208C154.322 143.663 154.351 144.119 154.424 144.568C154.436 144.659 154.449 144.75 154.462 144.84C154.476 144.93 154.487 145.028 154.5 145.124C154.92 148.05 156.089 150.817 157.893 153.158L157.902 153.17L157.937 153.215L157.943 153.222C158.163 153.508 158.392 153.786 158.631 154.056C158.719 154.153 158.807 154.251 158.896 154.347H122.6V141.457H133.055ZM263.917 146.522C264.842 146.31 265.006 144.391 263.726 144.408C263.046 144.433 262.585 145.37 262.823 145.994C262.96 146.331 263.292 146.547 263.655 146.538L263.726 146.541C263.776 146.543 263.826 146.539 263.875 146.531L263.917 146.522ZM273.811 111.493V141.082H253.697V111.493H273.811ZM144.361 62.5507C154.713 62.7162 164.072 71.6324 164.106 82.5389V87.8577C165.339 88.2299 166.281 89.2297 166.579 90.4825L166.585 90.5082L166.588 90.5215V90.5334V90.5478L166.593 90.5735L166.599 90.6048V90.6146V90.6202C166.613 90.6973 166.624 90.7745 166.632 90.8557V90.8695L166.636 90.906V90.9328V90.9436V90.9533V90.9739V91.0119V91.033C166.636 91.0587 166.636 91.0844 166.636 91.1112C166.692 100.145 166.801 109.181 166.636 118.214C166.532 120.013 165.097 121.449 163.297 121.552C157.3 121.665 151.3 121.724 145.297 121.731H144.097C137.696 121.731 131.296 121.671 124.896 121.552C123.097 121.448 121.661 120.012 121.558 118.213C121.391 109.166 121.391 100.118 121.558 91.068L121.561 91.0001V90.9806C121.592 90.446 121.755 89.9273 122.037 89.4719C122.5 88.6941 123.237 88.1173 124.104 87.8557C124.092 84.1304 123.929 80.4133 124.905 76.9517L124.949 76.7975L124.953 76.7852L124.964 76.7487L125.002 76.6227V76.6155V76.6124L125.026 76.5343L125.053 76.4449V76.4418C125.072 76.3837 125.091 76.3261 125.11 76.268C127.873 68.2839 135.274 62.8314 143.718 62.5594C143.884 62.5568 144.049 62.5558 144.215 62.5563L144.361 62.5507ZM155.105 78.6918C153.072 73.6911 147.253 70.594 141.9 71.5002C136.782 72.6049 132.934 76.8433 132.327 82.0434L132.323 82.0732L132.314 82.1827V82.215L132.304 82.3425L132.3 82.3888L132.295 82.4767L132.292 82.5281L132.287 82.6242V82.6618L132.282 82.7903V82.8329V82.9311V82.9728V83.1079V87.6316C140.177 87.5673 148.072 87.6208 155.967 87.6778C155.967 85.1025 156.168 82.5219 155.582 80.1347L155.575 80.1085L155.558 80.0411C155.467 79.6839 155.357 79.3318 155.229 78.9858L155.208 78.9344L155.185 78.8727L155.16 78.809L155.127 78.7257L155.105 78.6918ZM68.1374 41.175V65.0613L58.7222 57.2L58.6954 57.1871C58.5032 57.1157 58.2919 57.111 58.0966 57.1748L52.4698 61.1494L45.9414 56.0177C45.8448 55.9637 45.7378 55.9308 45.6278 55.9215H45.596C45.5209 55.9277 45.4479 55.9452 45.378 55.9729L35.2991 61.5246V41.175H68.1374ZM52.5721 46.9781C55.4795 47.0974 57.5835 51.2344 55.1536 53.6093C54.5224 54.2031 53.6886 54.5336 52.8219 54.5346H52.7505C50.5545 54.5495 48.2022 52.8434 48.6381 50.2084C48.9876 48.3465 50.6074 46.993 52.5017 46.9786L52.5721 46.9781Z" fill="#30F58B"/>
</svg>
