<svg width="239" height="229" viewBox="0 0 239 229" fill="none" xmlns="http://www.w3.org/2000/svg">
<path fill-rule="evenodd" clip-rule="evenodd" d="M151.9 224.454V224.46C151.946 225.465 151.613 226.451 150.967 227.222C150.719 227.566 150.427 227.875 150.097 228.142L182.973 228.114L151.9 224.45V224.454ZM145.929 223.592C144.359 223.152 142.816 222.618 141.31 221.993C139.357 221.222 137.244 222.027 135.77 223.837L147.027 223.88C146.928 223.858 146.829 223.836 146.73 223.813C146.462 223.75 146.195 223.675 145.929 223.592ZM185.216 159.542C183.867 160.22 182.683 161.185 181.746 162.369C180.735 163.605 180.036 165.067 179.711 166.63C179.634 166.977 179.582 167.33 179.557 167.685L176.311 204.782C176.278 204.844 176.271 204.917 176.293 204.984L175.788 210.762H151.49L151.326 210.688C146.888 208.721 142.094 207.685 137.241 207.642C133.909 207.625 130.503 207.314 127.459 207.908C127.222 207.956 127.222 207.956 126.991 208.011L127.251 205.029L131.231 159.546L144.302 159.564C144.255 161.249 144.593 162.922 145.289 164.457L145.292 164.464L145.299 164.481L145.339 164.566L145.356 164.601L145.365 164.622L145.384 164.662L145.408 164.714L145.423 164.743L145.44 164.778L145.467 164.833L145.481 164.862L145.492 164.883L145.517 164.934L145.55 164.999L145.557 165.011L145.562 165.021C146.117 166.096 146.844 167.073 147.715 167.913L147.718 167.917L147.724 167.922L147.793 167.988L147.832 168.024L147.838 168.03L147.851 168.041L147.921 168.106L147.952 168.135L147.96 168.142L147.98 168.16L148.05 168.223L148.075 168.244L148.084 168.252L148.113 168.277L148.182 168.337L148.201 168.353L148.209 168.36L148.249 168.393L148.315 168.449L148.329 168.46L148.336 168.466L148.387 168.509L148.449 168.561L148.457 168.567L148.463 168.571L148.536 168.629L148.587 168.668H148.591C148.636 168.703 148.681 168.737 148.727 168.771C148.763 168.799 148.801 168.826 148.838 168.853C151.125 170.498 154.071 170.931 156.997 170.948H157.284H157.434H157.477H157.577H157.584H157.629L157.723 170.944H157.734H157.772L157.869 170.939H157.884H157.911L158.014 170.932H158.029H158.043C163.982 170.48 168.571 165.402 169.082 159.559L185.216 159.542ZM5.12392 147.455V155.563L13.232 151.511L5.12392 147.455ZM86.5752 129.574C86.566 127.871 85.9224 126.057 84.2075 126.027C80.3707 126.003 76.5333 126.027 72.6965 126.027C72.6502 127.01 72.9144 127.984 73.4516 128.809C73.8263 129.286 74.3882 129.578 74.9938 129.611H75.0657H80.4396C82.4834 129.602 84.5293 129.585 86.5752 129.574ZM98.0554 100.457L98.0858 100.451H98.0889C98.587 100.34 98.6543 99.9763 98.4451 99.6108L80.0258 78.1195L79.8505 77.9874C79.6397 77.9586 79.4254 78.0054 79.2459 78.1195L60.8266 99.6108C60.6487 99.8365 60.6873 100.163 60.913 100.341C60.9901 100.402 61.0826 100.439 61.1798 100.45L61.2168 100.458H71.6694V113.346H38.4573C26.7283 113.34 17.2246 103.828 17.2297 92.0985C17.2308 90.1416 17.5022 88.1944 18.0363 86.3119C20.4235 78.3478 27.1503 72.4475 35.3576 71.1187C36.6289 70.9321 38.2219 70.9851 38.8583 70.8473L39.1554 70.3137C37.6354 59.091 45.5008 48.7607 56.724 47.2407C59.4371 46.8732 62.1965 47.0526 64.8393 47.7686C66.073 48.1033 67.3339 48.7777 68.2351 48.9674L68.728 48.5752C70.9061 39.6719 75.8275 31.679 82.797 25.7258C96.0882 14.4244 115.887 12.4634 130.942 20.4116C145.412 28.0513 154.648 44.1724 154.015 60.4044C153.952 62.0062 153.791 63.8388 153.791 63.8388L154.279 64.1961H162.873C175.19 64.2351 185.858 74.1043 187.271 85.7968C188.459 95.6198 183.088 105.871 174.389 110.484V110.001L174.351 109.79L174.343 109.684C174.329 109.507 174.312 109.329 174.291 109.154C173.381 101.253 166.303 95.1504 158.734 95.0327H158.626C151.002 94.9628 143.377 95.0327 135.751 95.0327C135.431 92.8958 134.294 90.9661 132.579 89.6507L132.488 89.5823L132.453 89.5571L132.399 89.518L132.394 89.5139L132.35 89.4836L132.306 89.4533L132.298 89.4476L132.251 89.4152L132.214 89.3905L132.21 89.3875L132.203 89.3828L132.151 89.3504L132.118 89.3289L132.113 89.3258L132.104 89.3196L132.052 89.2877L132.023 89.2687L132.017 89.2651L132.006 89.2579L131.954 89.2276L131.926 89.2101L131.919 89.206L131.906 89.1978L131.857 89.169L131.83 89.153L131.822 89.1484L131.807 89.1397L131.76 89.113L131.733 89.0975L131.724 89.0924L131.707 89.0831L131.663 89.059L131.636 89.0436L131.624 89.0379L131.607 89.0281L131.566 89.0066L131.537 88.9916L131.524 88.9845L131.506 88.9752L131.469 88.9567L131.439 88.9413L131.422 88.933L131.404 88.9238L131.372 88.9084L131.339 88.8919L131.318 88.8822L131.301 88.8739L131.275 88.8616L131.239 88.8441L131.213 88.8323L131.198 88.8256L131.179 88.8163L131.138 88.7979L131.105 88.7834L131.094 88.7788L131.082 88.7732L131.037 88.7536L130.985 88.7315C127.205 87.1308 122.316 88.6729 120.353 92.2599C120.328 92.3062 120.301 92.3535 120.278 92.3998C120.247 92.4584 120.217 92.518 120.187 92.5776C119.767 93.4962 119.484 94.4719 119.348 95.4727L119.339 95.5447V102.208C119.322 102.663 119.351 103.119 119.424 103.568C119.436 103.659 119.449 103.75 119.462 103.84C119.476 103.93 119.487 104.028 119.5 104.124C119.92 107.05 121.089 109.817 122.893 112.158L122.902 112.17L122.937 112.215L122.943 112.222C123.163 112.508 123.392 112.786 123.631 113.056C123.719 113.153 123.807 113.251 123.896 113.347H87.6002V100.457H98.0554ZM228.917 105.522C229.842 105.31 230.006 103.391 228.726 103.408C228.046 103.433 227.585 104.37 227.823 104.994C227.96 105.331 228.292 105.547 228.655 105.538L228.726 105.541C228.776 105.543 228.826 105.539 228.875 105.531L228.917 105.522ZM238.811 70.4926V100.082H218.697V70.4926H238.811ZM109.361 21.5507C119.713 21.7162 129.072 30.6324 129.106 41.5389V46.8577C130.339 47.2299 131.281 48.2297 131.579 49.4825L131.585 49.5082L131.588 49.5215V49.5334V49.5478L131.593 49.5735L131.599 49.6048V49.6146V49.6202C131.613 49.6973 131.624 49.7745 131.632 49.8557V49.8695L131.636 49.906V49.9328V49.9436V49.9533V49.9739V50.0119V50.033C131.636 50.0587 131.636 50.0844 131.636 50.1112C131.692 59.145 131.801 68.1815 131.636 77.2138C131.532 79.013 130.097 80.4487 128.297 80.552C122.3 80.6646 116.3 80.7242 110.297 80.7314H109.097C102.696 80.7314 96.2964 80.6713 89.896 80.5515C88.0968 80.4482 86.6611 79.0124 86.5578 77.2133C86.3912 68.166 86.3912 59.1178 86.5578 50.068L86.5608 50.0001V49.9806C86.5917 49.446 86.7552 48.9273 87.0369 48.4719C87.5 47.6941 88.2372 47.1173 89.1038 46.8557C89.092 43.1304 88.9291 39.4133 89.9047 35.9517L89.9494 35.7975L89.953 35.7852L89.9638 35.7487L90.0019 35.6227V35.6155V35.6124L90.0255 35.5343L90.0533 35.4449V35.4418C90.0718 35.3837 90.0908 35.3261 90.1098 35.268C92.8728 27.2839 100.274 21.8314 108.718 21.5594C108.884 21.5568 109.049 21.5558 109.215 21.5563L109.361 21.5507ZM120.105 37.6918C118.072 32.6911 112.253 29.594 106.9 30.5002C101.782 31.6049 97.9341 35.8433 97.3265 41.0434L97.3234 41.0732L97.3137 41.1827V41.215L97.3039 41.3425L97.3003 41.3888L97.2952 41.4767L97.2921 41.5281L97.2869 41.6242V41.6618L97.2823 41.7903V41.8329V41.9311V41.9728V42.1079V46.6316C105.177 46.5673 113.072 46.6208 120.967 46.6778C120.967 44.1025 121.168 41.5219 120.582 39.1347L120.575 39.1085L120.558 39.0411C120.467 38.6839 120.357 38.3318 120.229 37.9858L120.208 37.9344L120.185 37.8727L120.16 37.809L120.127 37.7257L120.105 37.6918ZM33.1374 0.175049V24.0613L23.7222 16.2L23.6954 16.1871C23.5032 16.1157 23.2919 16.111 23.0966 16.1748L17.4698 20.1494L10.9414 15.0177C10.8448 14.9637 10.7378 14.9308 10.6278 14.9215H10.596C10.5209 14.9277 10.4479 14.9452 10.378 14.9729L0.299072 20.5246V0.175049H33.1374ZM17.5721 5.97813C20.4795 6.09739 22.5835 10.2344 20.1536 12.6093C19.5224 13.2031 18.6886 13.5336 17.8219 13.5346H17.7505C15.5545 13.5495 13.2022 11.8434 13.6381 9.2084C13.9876 7.34652 15.6074 5.99304 17.5017 5.97864L17.5721 5.97813Z" fill="#30F58B"/>
</svg>
