<svg width="263" height="224" viewBox="0 0 263 224" fill="none" xmlns="http://www.w3.org/2000/svg">
<path d="M106.473 10.6404V10.662C106.473 11.6788 107.176 12.49 108.182 12.49C108.798 12.49 109.253 12.2088 109.663 11.7867L110.453 12.5655C109.89 13.1927 109.231 13.6363 108.116 13.6363C106.418 13.6363 105.163 12.3059 105.163 10.6836V10.662C105.163 9.03968 106.418 7.67643 108.138 7.67643C109.209 7.67643 109.88 8.07687 110.42 8.66083L109.598 9.53728C109.198 9.11524 108.777 8.82327 108.127 8.82327C107.176 8.82327 106.473 9.64523 106.473 10.6404ZM113.643 12.5763C113.059 12.5763 112.4 12.3383 111.772 11.8731L111.188 12.7604C111.902 13.3227 112.799 13.6147 113.611 13.6147C114.8 13.6147 115.731 13.0199 115.731 11.8191V11.7975C115.731 10.77 114.789 10.3916 113.957 10.132C113.286 9.91562 112.669 9.74238 112.669 9.32086V9.29927C112.669 8.97491 112.961 8.73691 113.47 8.73691C113.946 8.73691 114.53 8.94201 115.081 9.27768L115.6 8.34726C114.995 7.94733 114.216 7.69853 113.502 7.69853C112.367 7.69853 111.469 8.35805 111.469 9.44012V9.46171C111.469 10.5541 112.41 10.9 113.253 11.138C113.924 11.3436 114.53 11.4953 114.53 11.9384V11.96C114.53 12.3383 114.205 12.5763 113.643 12.5763ZM118.953 12.5763C118.369 12.5763 117.71 12.3383 117.082 11.8731L116.498 12.7604C117.212 13.3227 118.11 13.6147 118.921 13.6147C120.11 13.6147 121.041 13.0199 121.041 11.8191V11.7975C121.041 10.77 120.099 10.3916 119.267 10.132C118.596 9.91562 117.98 9.74238 117.98 9.32086V9.29927C117.98 8.97491 118.271 8.73691 118.78 8.73691C119.256 8.73691 119.84 8.94201 120.391 9.27768L120.911 8.34726C120.305 7.94733 119.526 7.69853 118.812 7.69853C117.677 7.69853 116.779 8.35805 116.779 9.44012V9.46171C116.779 10.5541 117.72 10.9 118.563 11.138C119.234 11.3436 119.84 11.4953 119.84 11.9384V11.96C119.84 12.3383 119.515 12.5763 118.953 12.5763ZM104.6 20.196H106.463C106.463 20.196 106.906 20.1056 106.899 19.6445C106.89 19.1438 106.448 19.168 106.448 19.168H104.6C102.473 19.168 100.742 17.4377 100.742 15.3105V5.48401C100.742 3.35689 102.473 1.62661 104.6 1.62661H121.615C123.742 1.62661 125.472 3.35689 125.472 5.48401V15.3105C125.472 17.4377 123.742 19.168 121.615 19.168H110.876C110.876 19.168 110.445 19.2805 110.461 19.6727C110.48 20.1673 110.907 20.196 110.907 20.196H121.615C124.309 20.196 126.501 18.0041 126.501 15.3105V5.48401C126.501 2.79041 124.309 0.598511 121.615 0.598511H104.6C101.907 0.598511 99.7149 2.79041 99.7149 5.48401V15.3105C99.7144 18.0041 101.906 20.196 104.6 20.196ZM142.951 25.648V18.6806H141.726V21.5773H138.402V18.6806H137.178V25.648H138.402V22.7118H141.726V25.648H142.951ZM147.692 25.648V19.8151H149.901V18.6806H144.248V19.8151H146.458V25.648H147.692ZM152.402 20.671L154.582 23.9357H154.621L156.821 20.651V25.6475H158.045V18.6801H156.742L154.621 21.9746L152.501 18.6801H151.198V25.6475H152.402V20.671ZM159.841 18.6806V25.648H164.728V24.5331H161.065V18.6806H159.841ZM152.468 11.9697H154.789C154.789 11.9697 155.298 11.8762 155.296 11.4464C155.293 10.9751 154.759 10.9417 154.759 10.9417H152.483C152.483 10.9417 152.027 10.9735 152.034 11.4326C152.041 11.8453 152.468 11.9697 152.468 11.9697ZM128.716 37.6325L125.097 44.4298C124.964 44.6806 125.058 44.9916 125.309 45.1253C125.386 45.1664 125.469 45.1854 125.55 45.1854C125.734 45.1854 125.912 45.0867 126.005 44.913L129.624 38.1157C129.757 37.8649 129.663 37.5539 129.412 37.4202C129.161 37.2866 128.85 37.3827 128.716 37.6325ZM131.782 44.8431C131.882 44.9433 132.014 44.9937 132.146 44.9937C132.277 44.9937 132.409 44.9433 132.509 44.8431L135.796 41.5557C135.894 41.4581 135.948 41.3244 135.946 41.1856C135.944 41.0468 135.887 40.9152 135.787 40.8196L132.5 37.6927C132.294 37.4973 131.969 37.505 131.773 37.7107C131.578 37.9163 131.585 38.2417 131.791 38.4375L134.696 41.201L131.782 44.1152C131.582 44.3172 131.582 44.6426 131.782 44.8431ZM123.383 37.7024C123.182 37.5014 122.857 37.5014 122.656 37.7024L119.369 40.9898C119.271 41.0874 119.217 41.2211 119.219 41.3599C119.22 41.4987 119.278 41.6303 119.379 41.7259L122.666 44.8528C122.765 44.9474 122.893 44.9942 123.02 44.9942C123.155 44.9942 123.291 44.9407 123.392 44.8343C123.588 44.6287 123.58 44.3033 123.374 44.1075L120.47 41.3439L123.384 38.4298C123.584 38.2288 123.584 37.9034 123.383 37.7024ZM115.504 28.9868C112.963 28.9868 110.896 31.0537 110.896 33.5947V48.8146C110.896 51.3555 112.963 53.4225 115.504 53.4225H118.103V58.5378C118.103 58.7537 118.239 58.9465 118.442 59.0205C118.499 59.0416 118.559 59.0518 118.617 59.0518C118.767 59.0518 118.911 58.9871 119.011 58.8688L123.59 53.423H130.344C130.344 53.423 130.848 53.3619 130.838 52.8874C130.828 52.4001 130.344 52.3949 130.344 52.3949H123.351C123.199 52.3949 123.055 52.4618 122.957 52.5779L119.131 57.1278V52.9085C119.131 52.6247 118.901 52.3944 118.617 52.3944H115.504C113.53 52.3944 111.925 50.7885 111.925 48.8146V33.5947C111.925 31.6207 113.53 30.0149 115.504 30.0149H139.432C141.406 30.0149 143.012 31.6207 143.012 33.5947V48.8146C143.012 50.7885 141.406 52.3944 139.432 52.3944H134.894C134.894 52.3944 134.376 52.4767 134.402 52.8992C134.436 53.4379 134.925 53.4225 134.925 53.4225H139.433C141.973 53.4225 144.041 51.3555 144.041 48.8146V33.5947C144.041 33.477 144.032 33.3618 144.023 33.2467H165.771C168.465 33.2467 170.657 31.0548 170.657 28.3612V15.8272C170.657 13.1336 168.465 10.9417 165.771 10.9417H158.867C158.867 10.9417 158.424 10.9751 158.435 11.4367C158.447 11.9548 158.897 11.9697 158.897 11.9697H165.771C167.898 11.9697 169.628 13.7 169.628 15.8272V28.3612C169.628 30.4883 167.898 32.2186 165.771 32.2186H143.831C143.244 30.348 141.495 28.9868 139.433 28.9868H131.599C131.562 28.7827 131.534 28.5755 131.534 28.3612V15.8272C131.534 13.7 133.265 11.9697 135.392 11.9697H148.194C148.194 11.9697 148.866 11.9219 148.874 11.4495C148.884 10.9129 148.194 10.9417 148.194 10.9417H135.392C132.698 10.9417 130.506 13.1336 130.506 15.8272V28.3612C130.506 28.575 130.53 28.7817 130.56 28.9868H115.504ZM161.882 160.445C162.059 160.576 162.5 160.639 162.683 160.426C162.904 160.168 162.745 159.787 162.596 159.677C161.835 159.118 161.106 158.553 160.415 157.989C160.262 157.865 159.858 157.765 159.673 158.104C159.523 158.379 159.619 158.673 159.782 158.806C160.454 159.358 161.156 159.906 161.882 160.445ZM262.003 202.893C260.968 202.867 259.933 202.847 258.898 202.832C258.895 202.832 258.893 202.832 258.891 202.832C258.61 202.832 258.381 203.058 258.377 203.339C258.373 203.623 258.6 203.856 258.883 203.86C259.915 203.875 260.946 203.895 261.978 203.921C261.982 203.921 261.987 203.921 261.99 203.921C262.268 203.921 262.497 203.699 262.504 203.419C262.512 203.136 262.288 202.9 262.003 202.893ZM256.022 202.805C256.021 202.805 256.021 202.805 256.02 202.805C254.042 202.815 252.038 202.845 250.062 202.893C249.779 202.9 249.555 203.136 249.561 203.419C249.568 203.699 249.797 203.921 250.075 203.921C250.079 203.921 250.083 203.921 250.087 203.921C252.056 203.872 254.054 203.844 256.024 203.833C256.309 203.832 256.537 203.6 256.536 203.317C256.535 203.034 256.305 202.805 256.022 202.805ZM246.067 203.408C246.066 203.691 245.836 203.921 245.553 203.921C245.552 203.921 245.552 203.921 245.552 203.921C231.948 203.9 218.305 203.884 204.641 203.871V216.772C204.641 217.056 204.411 217.286 204.127 217.286H195.814V218.375C195.814 218.659 195.585 218.889 195.3 218.889H194.865C194.902 219.089 194.923 219.293 194.923 219.502C194.923 221.432 193.353 223.002 191.424 223.002C189.494 223.002 187.924 221.432 187.924 219.502C187.924 219.293 187.944 219.088 187.98 218.889H179.626C179.662 219.089 179.683 219.293 179.683 219.502C179.683 221.432 178.113 223.002 176.184 223.002C174.254 223.002 172.684 221.432 172.684 219.502C172.684 219.293 172.705 219.088 172.741 218.889H164.386C164.422 219.089 164.443 219.293 164.443 219.502C164.443 221.432 162.873 223.002 160.944 223.002C159.268 223.002 157.864 221.816 157.525 220.241L148.975 220.314L149.243 221.036C149.302 221.193 149.28 221.368 149.185 221.506C149.09 221.644 148.934 221.728 148.766 221.729L127.33 221.912C127.328 221.912 127.326 221.912 127.325 221.912C127.121 221.912 126.937 221.792 126.855 221.605C126.772 221.418 126.808 221.198 126.948 221.048C128.902 218.943 136.727 215.564 139.319 215.236C139.26 213.884 138.663 209.269 137.907 203.832C120.976 203.829 103.566 203.833 86.6437 203.84V216.771C86.6437 216.907 86.5902 217.037 86.4951 217.133C86.362 217.267 86.3188 217.311 83.2376 217.311C81.7402 217.311 79.5252 217.301 76.2332 217.285C75.9505 217.284 75.7217 217.055 75.7217 216.771V203.845C73.6152 203.846 71.507 203.847 69.401 203.848L69.4745 216.773C69.475 216.911 69.4211 217.042 69.3239 217.139C69.1836 217.28 69.1573 217.306 64.9987 217.306C64.0529 217.306 62.8937 217.304 61.4713 217.303C56.9909 217.297 51.0228 217.285 45.0568 217.27C33.1247 217.24 21.2008 217.203 21.2008 217.203C20.9176 217.202 20.6883 216.972 20.6883 216.689V203.893C14.1856 203.902 7.68654 203.91 1.19669 203.92H1.19618C0.912423 203.92 0.682644 203.69 0.68213 203.407C0.681616 203.122 0.911395 202.892 1.19566 202.891C7.68603 202.882 14.1862 202.873 20.6889 202.865V188.383C20.6889 188.383 20.7413 187.775 21.1654 187.787C21.738 187.803 21.7169 188.383 21.7169 188.383V216.178C25.8617 216.19 30.9025 216.205 36.1278 216.22V161.054H35.5592H35.4867H21.7164V183.424C21.7164 183.424 21.7041 184.001 21.1834 184.001C20.7125 184.001 20.6883 183.424 20.6883 183.424V161.054H19.2454C18.9617 161.054 18.7314 160.824 18.7314 160.54V155.985C18.7314 155.7 18.9617 155.471 19.2454 155.471H35.4862H35.679H41.7905V134.799C41.7905 134.789 41.7956 134.781 41.7962 134.771L39.7944 134.747C39.5148 134.744 39.2891 134.518 39.2866 134.238L39.2203 127.516C39.2192 127.378 39.2727 127.247 39.3693 127.149C39.466 127.052 39.5971 126.997 39.7343 126.997C39.7343 126.997 39.7348 126.997 39.7353 126.997L45.2721 127.007C45.4649 125.065 46.5382 121.958 49.5773 121.807C49.586 121.806 49.5942 121.806 49.603 121.806H52.1686L41.6795 78.9748C41.3839 78.8699 41.0955 78.7414 40.8236 78.5702C39.8587 77.9621 39.1874 77.0152 38.935 75.9028C38.6826 74.7904 38.8774 73.6467 39.4855 72.6813C40.0931 71.7164 41.0405 71.0456 42.1524 70.7927C43.0201 70.5953 43.9053 70.675 44.7113 71.0055L77.2901 47.7043L76.7627 46.781C75.8323 44.8312 74.9018 40.6978 77.9085 38.7645C79.4342 37.7837 81.0617 37.4896 82.6146 37.9163C84.2184 38.3563 85.6485 39.5576 86.4478 41.1337L89.5224 45.6275C97.9399 46.5024 102.806 51.5051 103.624 52.4119C104.153 52.5533 104.563 52.9393 104.79 53.5197C105.434 55.1672 104.553 57.9502 102.649 60.2876C101.497 61.7012 96.9904 66.5251 87.3659 69.2521C85.9179 69.6623 84.643 69.8674 83.5486 69.8674C82.2815 69.8674 81.256 69.5924 80.4813 69.0429C79.3674 68.2523 79.1761 67.1625 79.1458 66.8977C76.7437 58.3337 78.9577 52.9069 79.557 51.6696L79.3165 51.2491L47.1906 73.7495C47.2158 73.8358 47.243 73.9217 47.2636 74.0106C47.5165 75.123 47.3211 76.2668 46.713 77.2322C46.4 77.7298 45.9954 78.1466 45.5256 78.471L56.4557 121.806H60.0479C60.1368 121.812 65.0409 122.248 66.3363 127.046L76.3879 127.064C76.3298 127.022 76.2707 126.986 76.2132 126.94C75.1188 126.058 74.4762 124.679 74.2906 122.845C74.2582 122.795 74.233 122.74 74.2192 122.679L66.0309 86.706C66.0222 86.6685 66.0181 86.6305 66.0181 86.5919C66.0181 83.7153 68.21 81.3749 70.9036 81.3749H117.235C119.918 81.3749 123.072 82.9813 123.656 86.5081L130.826 118.004C134.035 118.159 136.58 118.284 136.898 118.307C137.164 118.304 137.941 117.899 138.891 117.323C138.809 116.645 138.795 116.226 138.794 116.205C138.79 116.028 138.877 115.863 139.023 115.765C141.928 113.828 153.145 103.159 155.01 99.6981C157.93 94.28 161.815 93.2427 162.734 93.0689L164.284 87.8318C164.3 87.7732 164.697 86.4485 166.719 85.7108L166.631 83.7338C162.644 83.2568 160.65 81.7578 160.532 81.6658C154.776 77.701 154.807 67.4894 155.34 61.7372C155.339 61.7367 155.338 61.7367 155.337 61.7362C155.241 61.6925 152.997 60.6325 152.387 58.2643C151.952 56.5777 152.459 54.7004 153.894 52.6823C153.678 52.3574 152.986 51.6825 152.51 51.2173C151.031 49.7743 150.273 48.9899 150.575 48.3103C151.631 45.9359 154.752 46.2582 157.03 46.4937C158.034 46.5975 159.172 46.7147 159.539 46.4998C169.738 40.521 179.08 43.0156 184.423 47.3434C190.668 52.4021 191.88 65.9308 186.869 74.6557C183.773 80.045 180.436 82.2822 177.278 83.1658L177.435 84.3198C179.068 84.3491 179.54 84.9752 179.906 85.6749L179.931 85.7242C180.453 86.7163 180.737 87.3676 180.988 87.9423C181.109 88.2189 181.225 88.4754 181.348 88.7355C182.597 88.8234 185.947 89.5359 189.006 94.3787C189.81 95.6515 190.652 99.6312 191.478 105.087H192.209H196.643C199.336 105.087 201.528 107.279 201.528 109.972V113.902C201.528 113.902 201.506 114.583 201.024 114.583C200.544 114.583 200.5 113.902 200.5 113.902V109.972C200.5 107.845 198.77 106.115 196.643 106.115H192.095H171.978C169.851 106.115 168.121 107.845 168.121 109.972V131.625C168.121 133.752 169.851 135.482 171.978 135.482H182.204V126.249C179.609 126.136 177.531 123.996 177.531 121.374V120.223C177.531 117.529 179.723 115.337 182.417 115.337H187.049C189.743 115.337 191.935 117.529 191.935 120.223V121.374C191.935 123.913 189.986 125.996 187.507 126.229V135.482H191.04H196.643C198.77 135.482 200.501 133.752 200.501 131.625V118.803C200.501 118.803 200.544 118.288 201.006 118.288C201.391 118.288 201.529 118.803 201.529 118.803V127.069H207.061C207.346 127.069 207.575 127.298 207.575 127.583V134.693C207.575 134.977 207.346 135.207 207.061 135.207H204.644V202.844C208.059 202.847 211.467 202.851 214.879 202.855L211.393 173.974C211.376 173.828 211.421 173.682 211.519 173.572C211.616 173.461 211.757 173.399 211.904 173.399H212.373C205.227 163.945 209.513 154.765 209.559 154.67C209.667 154.447 209.919 154.331 210.16 154.399C215.791 155.976 218.386 159.388 219.467 161.398C220.437 157.852 222.402 154.078 226.143 150.812C226.247 150.72 226.384 150.675 226.521 150.686C226.659 150.697 226.787 150.764 226.875 150.869C226.931 150.936 230.462 155.262 232.033 161.7C233.122 159.768 235.599 156.687 240.776 155.238C241.017 155.17 241.269 155.286 241.377 155.509C241.42 155.599 245.513 164.381 238.634 173.399H240.077C240.223 173.399 240.362 173.461 240.46 173.57C240.557 173.679 240.603 173.824 240.588 173.969L237.396 202.882C240.115 202.885 242.839 202.888 245.555 202.893C245.837 202.893 246.067 203.124 246.067 203.408ZM103.832 53.8934C103.661 53.457 103.392 53.404 103.289 53.3886C99.8984 53.0288 96.8912 53.4647 94.2583 54.3673C95.4575 56.1393 95.7187 58.0284 94.9435 59.625C94.1735 61.2119 92.4663 62.2785 90.6959 62.2785C88.175 62.2785 86.6596 60.3858 86.0376 59.3927C82.4835 62.6764 80.5533 66.1817 80.1842 66.8905C80.2351 67.1445 80.4217 67.7511 81.0961 68.2199C81.9083 68.7838 83.6062 69.2485 87.0847 68.2636C96.4198 65.6183 100.747 60.9929 101.851 59.6384C103.706 57.3606 104.256 54.979 103.832 53.8934ZM86.8216 58.6961C87.2683 59.4466 88.5621 61.2499 90.6959 61.2499C92.0813 61.2499 93.4168 60.4161 94.0187 59.1757C94.6649 57.8438 94.3894 56.2775 93.2656 54.7385C90.7514 55.7465 88.6063 57.171 86.8216 58.6961ZM77.6725 46.3045L80.1641 50.6626C81.0005 49.4273 81.9021 48.4902 82.8017 47.7752C82.9811 47.6328 83.3615 47.5285 83.543 47.8199C83.7645 48.1756 83.5702 48.4764 83.4134 48.6013C82.4439 49.3785 81.4667 50.4457 80.5846 51.9138C80.5204 52.031 77.8355 57.0476 79.8264 65.4348C81.9206 61.9367 89.1826 51.6609 102.003 52.2592C100.096 50.5187 95.3774 46.9666 88.338 46.5636C87.9586 46.5939 87.4687 46.6618 86.8961 46.8144C86.7516 46.853 86.4756 46.6736 86.3913 46.3554C86.3245 46.104 86.5172 45.8537 86.6581 45.8167C87.1701 45.682 87.6255 45.6064 88.01 45.5643C88.0712 45.5391 88.137 45.5267 88.2059 45.5278L85.5776 41.6863C85.5642 41.6673 85.5524 41.6467 85.5421 41.6262C84.8749 40.2912 83.6782 39.2754 82.3406 38.9084C81.971 38.8066 81.5942 38.7562 81.2148 38.7562C80.2978 38.7562 79.3632 39.0508 78.4626 39.6301C75.4591 41.5609 77.6499 46.2572 77.6725 46.3045ZM78.7361 50.3994L77.7687 48.6254L45.6937 71.5663C46.1337 71.902 46.4981 72.3153 46.7747 72.7846L78.7361 50.3994ZM41.371 77.6994C42.1035 78.161 42.9733 78.3096 43.8169 78.1173C44.6614 77.9256 45.3806 77.4162 45.8417 76.6832C46.3028 75.9506 46.4519 75.0819 46.2596 74.2373C46.0674 73.3927 45.5585 72.6736 44.8254 72.2125C44.3016 71.8825 43.7089 71.7128 43.1044 71.7128C42.8633 71.7128 42.6207 71.7401 42.3796 71.7946C41.535 71.9863 40.8159 72.4957 40.3548 73.2288C39.8937 73.9613 39.7446 74.83 39.9368 75.6746C40.1291 76.5192 40.638 77.2383 41.371 77.6994ZM42.7944 79.2071L53.1854 121.636L55.3701 121.711L44.5859 78.9542C44.4101 79.0195 44.2307 79.0776 44.0446 79.1197C43.7274 79.1917 43.4072 79.2272 43.09 79.2272C42.9908 79.2277 42.8931 79.2138 42.7944 79.2071ZM46.3223 126.936H65.2326C63.9912 123.201 60.1764 122.846 60.0063 122.833L49.6163 122.834C47.135 122.967 46.4863 125.746 46.3223 126.936ZM19.7595 160.026H34.9722V156.499H19.7595V160.026ZM201.527 128.096V131.624C201.527 132.561 201.257 133.434 200.798 134.178H206.545V128.096H201.527ZM196.641 136.51H195.002C196.319 150.923 197.238 163.726 197.322 164.893C197.337 165.099 197.227 165.294 197.043 165.388C196.275 165.781 195.51 166.128 194.748 166.442V170.88H196.642H196.873C196.87 170.883 196.867 170.887 196.864 170.891C197.168 170.905 197.464 170.945 197.751 171.012V136.378C197.393 136.461 197.023 136.51 196.641 136.51ZM200.498 177.038V175.764C200.498 173.637 198.768 171.907 196.641 171.907H196.146H188.153C187.877 171.907 187.854 171.907 187.505 171.907V180.895H193.735H196.642C198.768 180.895 200.498 179.165 200.498 177.038ZM194.786 217.861V217.227C194.786 216.362 194.082 215.657 193.217 215.657H159.2C158.334 215.657 157.63 216.362 157.63 217.227V217.861H194.786ZM162.272 214.629H173.771V203.847C170.852 203.846 167.934 203.844 165.014 203.842V209.323C165.014 209.547 164.785 209.728 164.5 209.728H164.5H162.369C162.152 211.863 161.982 213.295 161.932 213.712L162.272 214.629ZM147.596 216.598C150.219 215.381 152.993 214.38 154.345 214.21C154.289 212.944 153.763 208.819 153.076 203.837C151.372 203.836 149.668 203.835 147.964 203.835C147.507 209.669 147 213.963 146.906 214.74L147.596 216.598ZM152.934 202.809C152.37 198.755 151.717 194.246 151.13 190.285C150.455 190.148 149.896 189.996 149.478 189.841C149.223 189.945 148.962 190.044 148.689 190.133C148.583 194.599 148.329 198.99 148.043 202.806C149.674 202.807 151.303 202.808 152.934 202.809ZM164.588 188.998C164.625 188.036 164.661 186.729 164.694 185.284C164.125 184.701 163.772 183.906 163.772 183.029V181.924H156.035C153.341 181.924 151.149 179.732 151.149 177.039V175.765C151.149 174.837 151.414 173.972 151.865 173.232C151.268 173.185 150.775 173.145 150.437 173.116L151.144 188.654C151.152 188.836 151.064 189.008 150.911 189.108C150.881 189.128 150.846 189.146 150.814 189.166C153.289 189.726 158.748 190.39 164.588 188.998ZM187.505 170.879H187.901C189.54 169.997 190.523 168.886 191.566 167.546C190.195 167.935 188.84 168.209 187.505 168.381V170.879ZM193.719 170.879V166.842C193.573 166.897 193.425 166.957 193.279 167.008C193.138 167.19 192.999 167.372 192.863 167.548C191.894 168.813 191.034 169.932 189.799 170.879H193.719ZM186.477 121.032H183.23V180.895H186.477V121.032ZM177.619 214.629V186.26H174.799V214.629H177.619ZM185.414 185.232C186.629 185.232 187.618 184.243 187.618 183.029V182.046H164.8V183.029C164.8 184.243 165.788 185.232 167.003 185.232H185.414ZM165.014 202.814C167.934 202.815 170.852 202.817 173.771 202.819V186.26H167.003C166.542 186.26 166.103 186.16 165.706 185.986C165.672 187.363 165.636 188.574 165.599 189.428C165.589 189.654 165.431 189.848 165.211 189.904C165.146 189.92 165.08 189.933 165.014 189.949V202.814ZM178.647 202.823C183.673 202.826 188.698 202.829 193.719 202.833V181.924H188.646V183.028C188.646 184.81 187.196 186.26 185.414 186.26H178.647V202.823ZM182.201 171.907H170.541C168.414 171.907 166.683 173.638 166.683 175.765V177.039C166.683 179.166 168.414 180.896 170.541 180.896H182.201V171.907ZM167.554 171.907H156.036C153.908 171.907 152.178 173.638 152.178 175.765V177.039C152.178 179.166 153.908 180.896 156.036 180.896H167.554C166.402 180.002 165.656 178.607 165.656 177.039V175.765C165.655 174.196 166.402 172.802 167.554 171.907ZM163.685 190.239C163.476 197.388 162.907 204.239 162.471 208.701H163.986V190.181C163.885 190.201 163.785 190.219 163.685 190.239ZM193.719 214.68V203.862C188.698 203.857 183.673 203.854 178.647 203.851V214.63H193.217C193.389 214.629 193.556 214.648 193.719 214.68ZM187.505 136.51V167.339C190.491 166.939 193.418 166.046 196.271 164.625C196.113 162.439 195.21 150.18 193.962 136.511H191.206H187.505V136.51ZM182.201 125.22V120.518C182.201 120.234 182.431 120.004 182.716 120.004H186.991C187.275 120.004 187.505 120.234 187.505 120.518V125.201C189.417 124.974 190.904 123.345 190.904 121.373V120.222C190.904 118.095 189.174 116.365 187.047 116.365H182.414C180.287 116.365 178.557 118.095 178.557 120.222V121.373C178.557 123.429 180.174 125.108 182.201 125.22ZM168.989 106.114H165.625C163.497 106.114 161.767 107.845 161.767 109.972V131.625C161.767 133.752 163.497 135.482 165.625 135.482H168.989C167.837 134.587 167.091 133.193 167.091 131.625V109.972C167.091 108.403 167.837 107.009 168.989 106.114ZM156.111 57.3257C156.347 57.1761 161.926 53.7022 164.323 57.3051C166.145 60.045 165.632 63.1529 165.256 65.423C165.05 66.6757 164.854 67.8585 165.199 68.3176C165.471 68.6784 165.727 68.846 165.951 68.8105C166.584 68.7164 167.371 67.3239 167.703 66.413C167.714 66.3816 167.728 66.3523 167.745 66.3241C168.657 64.8071 170.557 63.9481 172.068 64.3676C173.013 64.6303 174.599 65.5987 174.599 69.1359C174.599 71.0749 174.043 72.4741 172.946 73.2945C171.805 74.1468 170.38 74.136 169.519 74.0245C170.43 79.5844 172.176 81.873 172.999 82.6718C176.946 82.6615 181.692 81.6021 185.976 74.1432C190.767 65.8018 189.676 52.9229 183.773 48.1417C178.698 44.0304 169.803 41.6735 160.057 47.3866C159.399 47.7726 158.307 47.6595 156.922 47.5161C154.778 47.2946 152.353 47.0442 151.554 48.6398C151.712 49.0038 152.653 49.9213 153.226 50.4811C154.562 51.7842 155.298 52.5024 154.846 53.1177C153.507 54.941 153.014 56.586 153.381 58.0073C153.748 59.4322 154.894 60.2866 155.453 60.6289C155.642 58.9598 155.846 57.8413 155.88 57.6649C155.907 57.5246 155.991 57.4018 156.111 57.3257ZM167.734 85.4271C167.827 85.4081 167.915 85.3865 168.014 85.3695C170.745 84.9048 174.146 84.4962 176.4 84.3558L176.271 83.4059C175.124 83.632 174.006 83.7004 172.94 83.7004C172.843 83.7004 172.757 83.666 172.679 83.6187C172.229 83.6819 171.787 83.7364 171.362 83.7749C171.138 83.7955 170.775 83.6541 170.744 83.3C170.72 83.0275 170.986 82.7772 171.201 82.7587C171.447 82.7371 171.698 82.7119 171.954 82.6811C170.832 81.5753 169.192 79.0529 168.391 73.4524C168.366 73.2791 168.431 73.1054 168.563 72.9908C168.696 72.8761 168.876 72.836 169.045 72.8864C169.063 72.8915 171.03 73.4462 172.333 72.4669C173.154 71.8501 173.57 70.7295 173.57 69.1349C173.57 67.0175 172.938 65.6759 171.792 65.3571C170.734 65.0641 169.334 65.7149 168.65 66.8134C168.437 67.382 167.515 69.6165 166.102 69.8268C165.669 69.8916 165.019 69.7882 164.377 68.9349C163.767 68.1243 163.977 66.8577 164.241 65.2549C164.608 63.0373 165.064 60.2768 163.465 57.8742C161.832 55.4175 157.778 57.5472 156.85 58.0808C156.498 60.1648 154.091 75.9815 161.139 80.8367C161.187 80.8732 163.508 82.6009 168.18 82.8219C168.38 82.8312 168.82 82.9057 168.775 83.3946C168.741 83.7564 168.24 83.8654 168.019 83.8541C167.896 83.8479 167.782 83.8366 167.663 83.8284L167.734 85.4271ZM163.776 93.1635C169.04 94.1001 178.171 90.1908 180.392 89.1894C180.394 89.173 180.394 89.157 180.398 89.1411C180.272 88.8743 180.159 88.6178 180.044 88.3525C179.8 87.7938 179.523 87.1605 179.02 86.2018L178.993 86.1504C178.739 85.6656 178.551 85.2821 177.011 85.3515C174.83 85.4502 171.119 85.8841 168.187 86.3832C165.71 86.8047 165.285 88.0683 165.268 88.1217L163.776 93.1635ZM139.836 116.451C139.949 118.067 140.869 126.413 147.794 128.82C148.967 128.102 154.905 124.384 156.202 122.049C156.237 121.987 157.561 119.698 157.561 119.698C157.699 119.45 158.012 119.36 158.26 119.498C158.508 119.636 158.597 119.949 158.46 120.197L157.162 122.533C157.109 125.911 156.612 146.803 152.494 149.727C152.927 150.546 154.564 152.61 157.102 155.052C157.29 155.233 157.644 155.607 157.266 155.988C157.051 156.204 156.636 156.022 156.437 155.829C154.602 154.058 153.179 152.43 152.313 151.243C150.513 151.407 136.555 152.763 132.236 155.752C127.984 158.695 127.207 163.532 129.858 170.539C132.307 177.009 133.914 187.668 134.228 189.858C136.285 190.066 145.884 190.882 150.104 188.399L149.399 172.878L139.825 171.227C139.546 171.179 139.358 170.913 139.407 170.633C139.455 170.354 139.72 170.168 140 170.215L150.628 172.047C150.691 172.057 150.749 172.083 150.801 172.114C151.255 172.151 151.883 172.202 152.639 172.26C153.519 171.407 154.716 170.878 156.036 170.878H170.542H182.203V168.541C175.833 168.152 170.088 165.704 165.476 162.871C165.311 162.77 164.921 162.523 165.051 162.119C165.201 161.65 165.72 161.803 165.866 161.894C167.441 162.873 169.113 163.792 170.872 164.585C174.719 166.32 178.499 167.275 182.203 167.508V136.51H171.977H165.626C162.932 136.51 160.74 134.318 160.74 131.625V109.972C160.74 107.278 162.932 105.086 165.626 105.086H171.977H190.456C189.671 99.877 188.88 96.1064 188.136 94.9277C185.507 90.766 182.746 89.942 181.547 89.7867L181.335 89.888C180.905 90.0936 171.95 94.333 165.56 94.333C164.661 94.333 163.815 94.2476 163.048 94.0569C162.949 94.0703 158.885 94.6733 155.915 100.184C153.994 103.748 143.191 114.06 139.836 116.451ZM152.285 127.068H155.993C156.044 125.959 156.082 124.878 156.108 123.85C155.109 124.922 153.669 126.068 152.285 127.068ZM136.824 119.332C135.923 119.268 116.133 118.331 115.933 118.321C115.896 118.319 115.858 118.313 115.822 118.304C115.769 118.29 110.468 116.887 108.176 119.851C106.759 121.682 106.938 122.269 106.963 122.33C106.998 122.413 107.098 122.43 107.118 122.433L116.052 122.831C116.099 122.833 116.145 122.841 116.19 122.856C116.358 122.911 132.957 128.36 138.855 128.36H138.916C140.983 128.347 142.541 128.012 143.703 127.595C140.648 124.878 139.49 120.889 139.054 118.423C138.158 118.94 137.329 119.334 136.875 119.334C136.857 119.334 136.841 119.333 136.824 119.332ZM126.148 126.916C121.131 125.548 116.621 124.08 115.935 123.855L112.247 123.691C112.916 124.511 113.241 125.594 113.216 126.916L126.148 126.916ZM116.036 117.297C116.716 117.329 121.561 117.559 126.413 117.792L119.936 88.6661C119.47 85.8496 116.398 84.8102 114.57 84.8102H74.1637C72.6061 84.8102 70.7514 85.2734 70.72 87.4694L78.0283 119.068H107.501C110.153 115.907 115.393 117.131 116.036 117.297ZM75.129 122.05H105.923C105.963 121.521 106.239 120.871 106.742 120.095H77.6191C77.3801 120.095 77.1719 119.93 77.1184 119.698L69.7043 87.6421C69.6956 87.6041 69.6909 87.5655 69.6909 87.5265C69.6909 85.1819 71.3626 83.7821 74.1631 83.7821H114.57C116.735 83.7821 120.38 85.0549 120.945 88.4708L127.478 117.842C128.252 117.879 129.016 117.916 129.758 117.952L122.646 86.706C122.152 83.7241 119.573 82.4024 117.233 82.4024H70.9015C68.7919 82.4024 67.0724 84.2515 67.0446 86.5354L75.129 122.05ZM76.8568 126.139C78.0684 127.114 79.556 126.923 79.5704 126.92C79.5935 126.917 79.6172 126.915 79.6408 126.915H112.189C112.215 125.695 111.894 124.747 111.231 124.099C111.028 123.9 110.802 123.744 110.571 123.615L107.045 123.458C106.84 123.443 106.508 123.346 106.255 123.089L75.349 123.089C75.5444 124.465 76.0502 125.489 76.8568 126.139ZM40.3095 133.725L78.2879 134.173V128.095L40.2535 128.026L40.3095 133.725ZM68.2069 174.592H37.4838C37.3573 174.592 37.2453 174.541 37.1553 174.465V187.835H68.0403C68.1298 187.835 68.2094 187.863 68.2824 187.903L68.2069 174.592ZM37.1553 202.106H68.3637L68.2881 188.791C68.2136 188.833 68.1323 188.863 68.0408 188.863H37.1558L37.1553 202.106ZM70.0528 160.026V156.499H36.0907C36.0512 157.556 36.0907 160.026 36.0907 160.026H70.0528ZM50.2543 155.47V134.87L47.6182 134.839V155.47H50.2543ZM42.8181 134.799V155.471H46.5896V134.828L42.815 134.783C42.8155 134.788 42.8181 134.793 42.8181 134.799ZM37.1553 161.054V173.691C37.2448 173.615 37.3568 173.564 37.4838 173.564H68.2012L68.1298 161.054H37.1553ZM68.4444 216.273L68.3693 203.134H37.1553V216.223C50.9102 216.26 65.614 216.292 68.4444 216.273ZM75.7222 202.817V135.17L51.2824 134.883V155.47H70.5669C70.8506 155.47 71.0809 155.7 71.0809 155.984V160.54C71.0809 160.824 70.8506 161.054 70.5669 161.054H69.1579L69.3954 202.82C71.504 202.82 73.6136 202.819 75.7222 202.817ZM76.7503 216.26C77.6905 216.264 78.7253 216.269 79.7534 216.272V135.206H78.8014C78.7993 135.206 78.7973 135.206 78.7952 135.206L76.7498 135.182V216.26H76.7503ZM85.6166 216.273V135.206H80.7815V216.274C82.8593 216.279 84.7649 216.28 85.6166 216.273ZM137.765 202.804C137.223 198.936 136.614 194.742 136.066 191.049C134.734 190.958 133.842 190.853 133.712 190.837C133.48 190.808 133.295 190.627 133.264 190.395C133.248 190.272 131.579 177.995 128.896 170.903C126.053 163.391 126.954 158.159 131.649 154.908C135.926 151.947 148.444 150.58 151.669 150.271C151.458 149.901 151.352 149.624 151.369 149.468C151.391 149.252 151.521 149.074 151.715 148.993C153.528 148.238 154.724 142.085 155.411 135.207H126.145C126.145 135.207 125.631 135.187 125.61 134.728C125.585 134.164 126.129 134.179 126.129 134.179H155.51C155.696 132.154 155.84 130.09 155.943 128.097H150.815C149.376 129.07 148.238 129.755 148.121 129.825C147.993 129.901 147.839 129.92 147.699 129.873C146.535 129.497 145.528 128.968 144.649 128.342C143.331 128.899 141.476 129.372 138.922 129.389H138.856C136.92 129.389 133.944 128.844 130.77 128.097H79.3154V134.179H112.8C112.8 134.179 113.319 134.163 113.32 134.726C113.32 135.157 112.785 135.207 112.785 135.207H86.6447V202.813C103.516 202.806 120.879 202.802 137.765 202.804ZM148.026 220.707L145.899 214.981C145.87 214.904 145.86 214.82 145.87 214.738C145.886 214.613 147.34 202.846 147.654 190.427C145.311 191.015 142.539 191.191 140.084 191.191C139.012 191.191 138.003 191.158 137.114 191.112C137.478 193.571 138.115 197.92 138.725 202.259C140.63 215.803 140.469 215.905 140.078 216.153C139.944 216.238 139.77 216.254 139.62 216.204H139.618C138.655 216.204 131.857 218.651 128.737 220.871L148.026 220.707ZM148.595 219.289L157.459 219.214C157.469 219.104 157.483 218.996 157.502 218.89H157.116C156.832 218.89 156.602 218.66 156.602 218.376V217.228C156.602 215.795 157.767 214.63 159.2 214.63H161.174L160.924 213.954C160.895 213.877 160.885 213.793 160.895 213.711C160.911 213.59 162.285 202.456 162.65 190.421C160.795 190.713 158.951 190.836 157.238 190.836C155.337 190.836 153.604 190.689 152.196 190.474C152.567 192.987 153.171 197.115 153.75 201.233C155.655 214.776 155.493 214.879 155.102 215.126C154.969 215.211 154.796 215.229 154.645 215.178H154.643C154.015 215.178 150.905 216.219 147.952 217.559L148.595 219.289ZM163.332 218.889H158.558C158.505 219.085 158.474 219.29 158.474 219.502C158.474 220.865 159.582 221.973 160.945 221.973C162.308 221.973 163.417 220.865 163.417 219.502C163.416 219.29 163.384 219.086 163.332 218.889ZM178.571 218.889H173.797C173.745 219.086 173.713 219.29 173.713 219.502C173.713 220.865 174.821 221.973 176.185 221.973C177.547 221.973 178.656 220.865 178.656 219.502C178.655 219.29 178.623 219.086 178.571 218.889ZM193.811 218.889H189.036C188.982 219.085 188.953 219.29 188.953 219.502C188.953 220.865 190.061 221.973 191.424 221.973C192.787 221.973 193.895 220.865 193.895 219.502C193.895 219.29 193.865 219.085 193.811 218.889ZM195.623 216.258H197.75V181.791C197.393 181.875 197.023 181.924 196.641 181.924H194.747V215.139C195.134 215.423 195.441 215.807 195.623 216.258ZM203.613 216.258V135.206H199.952C199.603 135.529 199.209 135.8 198.779 136.01V171.378C200.402 172.173 201.527 173.838 201.527 175.765V177.039C201.527 178.965 200.403 180.63 198.779 181.425V216.258L203.613 216.258ZM232.38 163.351C232.918 166.378 232.969 169.79 232.057 173.399H237.335C243.626 165.747 241.307 158.157 240.616 156.356C234.847 158.14 232.846 162.188 232.38 163.351ZM220.264 173.398H230.997C233.8 162.83 227.892 153.955 226.409 151.95C217.541 160.08 219.738 171.253 220.264 173.398ZM213.672 173.398H219.209C218.858 171.849 218.154 167.765 219.082 163.036C218.696 162.01 216.658 157.467 210.316 155.517C209.602 157.366 207.13 165.334 213.672 173.398ZM215.913 202.856C222.737 202.863 229.552 202.871 236.361 202.88L239.502 174.426H212.482L215.913 202.856ZM121.442 134.178H117.213C117.213 134.178 116.756 134.252 116.77 134.682C116.785 135.171 117.259 135.206 117.259 135.206H121.503C121.503 135.206 121.931 135.094 121.92 134.685C121.907 134.224 121.442 134.178 121.442 134.178ZM53.0024 168.759C53.866 168.759 54.5661 168.059 54.5661 167.196C54.5661 166.332 53.866 165.632 53.0024 165.632C52.1388 165.632 51.4386 166.332 51.4386 167.196C51.4386 168.059 52.1388 168.759 53.0024 168.759ZM53.0024 182.474C53.866 182.474 54.5661 181.774 54.5661 180.91C54.5661 180.047 53.866 179.347 53.0024 179.347C52.1388 179.347 51.4386 180.047 51.4386 180.91C51.4386 181.774 52.1388 182.474 53.0024 182.474ZM53.0024 193.903C52.1388 193.903 51.4386 194.603 51.4386 195.467C51.4386 196.33 52.1388 197.03 53.0024 197.03C53.866 197.03 54.5661 196.33 54.5661 195.467C54.5666 194.603 53.8665 193.903 53.0024 193.903ZM53.0024 207.978C52.1388 207.978 51.4386 208.678 51.4386 209.542C51.4386 210.405 52.1388 211.105 53.0024 211.105C53.866 211.105 54.5661 210.405 54.5661 209.542C54.5666 208.679 53.8665 207.978 53.0024 207.978ZM95.7243 89.1663C95.7243 88.8825 95.494 88.6522 95.2103 88.6522H78.1707C77.8869 88.6522 77.6566 88.8825 77.6566 89.1663C77.6566 89.45 77.8869 89.6803 78.1707 89.6803H95.2103C95.4946 89.6803 95.7243 89.45 95.7243 89.1663ZM105.71 92.0064C105.71 91.7226 105.48 91.4923 105.196 91.4923H78.9037C78.6199 91.4923 78.3896 91.7226 78.3896 92.0064C78.3896 92.2901 78.6199 92.5204 78.9037 92.5204H105.196C105.48 92.5204 105.71 92.2901 105.71 92.0064ZM106.443 94.846C106.443 94.5622 106.213 94.3319 105.929 94.3319H79.6367C79.353 94.3319 79.1227 94.5622 79.1227 94.846C79.1227 95.1297 79.353 95.36 79.6367 95.36H105.929C106.213 95.36 106.443 95.1303 106.443 94.846ZM106.662 97.1721H80.3698C80.086 97.1721 79.8557 97.4023 79.8557 97.6861C79.8557 97.9698 80.086 98.2001 80.3698 98.2001H106.662C106.946 98.2001 107.176 97.9698 107.176 97.6861C107.176 97.4023 106.946 97.1721 106.662 97.1721ZM105.339 100.012H81.1017C80.818 100.012 80.5877 100.242 80.5877 100.526C80.5877 100.81 80.818 101.04 81.1017 101.04H105.339C105.622 101.04 105.853 100.81 105.853 100.526C105.853 100.242 105.623 100.012 105.339 100.012ZM98.8749 102.852H81.8348C81.551 102.852 81.3207 103.083 81.3207 103.366C81.3207 103.65 81.551 103.88 81.8348 103.88H98.8749C99.1587 103.88 99.389 103.65 99.389 103.366C99.389 103.083 99.1587 102.852 98.8749 102.852Z" fill="#262626"/>
</svg>
