<svg width="265" height="220" viewBox="0 0 265 220" fill="none" xmlns="http://www.w3.org/2000/svg">
<path d="M133.742 0.5C133.355 0.5 133.036 0.818613 133.036 1.20576V43.3339C133.036 43.7211 133.354 44.0397 133.742 44.0397H190.244C190.631 44.0397 190.95 43.7218 190.95 43.3339V1.20576C190.95 0.819319 190.632 0.5 190.244 0.5H133.742ZM134.447 1.91153H189.539V42.6289H134.447V1.91153ZM137.959 3.64379C137.572 3.64379 137.253 3.9624 137.253 4.34954V40.1894C137.253 40.5766 137.572 40.8952 137.959 40.8952H186.027C186.414 40.8952 186.733 40.5773 186.733 40.1894V4.34954C186.733 3.96311 186.415 3.64379 186.027 3.64379H137.959ZM138.664 5.05531H185.322V39.4844H138.664V5.05531ZM117.399 15.5089C117.013 15.5089 116.693 15.8269 116.693 16.2147V46.8119C116.693 47.199 117.012 47.5177 117.399 47.5177H129.533C129.919 47.5177 130.238 47.1997 130.238 46.8119V16.2147C130.238 15.8276 129.92 15.5089 129.533 15.5089H117.399ZM194.925 15.5089C194.538 15.5089 194.219 15.8269 194.219 16.2147V46.8119C194.219 47.199 194.537 47.5177 194.925 47.5177H207.059C207.446 47.5177 207.765 47.1997 207.765 46.8119V16.2147C207.765 15.8276 207.446 15.5089 207.059 15.5089H194.925ZM118.105 16.9198H128.828V46.1061H118.105V16.9198ZM195.63 16.9198H206.353V46.1061H195.63V16.9198ZM39.0487 17.2285C33.4351 17.2285 28.7512 20.149 25.5205 24.3914C22.2912 28.6337 20.4671 34.2014 20.4671 39.6723C20.4671 48.0708 25.6646 54.3047 32.5414 56.5668L32.653 66.196C32.6573 66.5796 32.9745 66.8933 33.3588 66.8933H44.0477C44.4348 66.8933 44.7534 66.5754 44.7534 66.1875L44.7647 56.4142C52.1756 54.4594 57.631 48.5004 57.631 39.6723C57.631 34.2014 55.8061 28.6337 52.5762 24.3914C49.3455 20.149 44.6623 17.2285 39.0487 17.2285ZM39.0487 18.6393C44.1763 18.6393 48.4306 21.2751 51.4536 25.2469C54.4773 29.2173 56.2194 34.5172 56.2194 39.6716C56.2194 48.0913 51.1194 53.4541 44.0025 55.1617C43.9424 55.1765 43.8852 55.1984 43.8315 55.2281C42.7096 54.3386 41.5418 53.6922 40.3352 53.3573C40.6255 52.4622 41.4592 49.9416 42.6489 47.1743C43.0848 46.1591 43.544 45.4279 44.0025 44.5915C45.0311 45.2379 46.165 45.281 46.9795 44.7709C47.5433 44.417 47.9382 43.7818 47.934 43.0676C47.9297 42.3527 47.5518 41.6292 46.8495 41.0019C46.3614 40.5653 45.5814 40.5399 45.0579 40.8225C44.5337 41.1057 44.1247 41.5664 43.71 42.1386C43.693 42.1619 43.6789 42.2071 43.6612 42.2311C43.0438 41.3897 42.5259 40.6487 42.432 40.453C42.4489 40.2657 42.3903 40.0807 42.2695 39.9365C42.1628 39.6681 41.9021 39.4922 41.6139 39.4922C41.3285 39.4922 41.0699 39.6652 40.9611 39.9281C40.9611 39.9281 40.2723 41.4526 39.0247 41.4286C38.1331 41.4116 37.4492 40.5943 37.1229 40.1237C37.0861 40.0425 37.0367 39.9669 36.971 39.8998C36.9526 39.868 36.906 39.7938 36.906 39.7938C36.7936 39.5536 36.5563 39.3968 36.2913 39.3876C36.2836 39.3869 36.2751 39.3869 36.2673 39.3869C35.8802 39.3869 35.5608 39.7055 35.5608 40.0927C35.5608 40.2029 35.587 40.3117 35.6364 40.4099C35.6364 40.4099 35.688 40.5017 35.7014 40.53C35.5672 40.773 35.1024 41.4392 34.5216 42.2304C34.5047 42.2064 34.4905 42.1612 34.4736 42.1379C34.0596 41.5657 33.6491 41.105 33.1257 40.8217C32.6015 40.5384 31.8215 40.5639 31.334 41.0012C31.3333 41.0012 31.3326 41.0012 31.3326 41.0012C30.6304 41.6292 30.2532 42.3527 30.2496 43.0669C30.2454 43.7811 30.6403 44.4163 31.2041 44.7702C32.0179 45.2803 33.1504 45.2372 34.1797 44.5908C34.6375 45.4272 35.096 46.1577 35.5333 47.1736C36.6559 49.7861 37.4309 52.0906 37.7777 53.1496C36.2553 53.3213 34.7329 54.0363 33.2634 55.3199C26.771 53.3121 21.8773 47.6088 21.8773 39.6709C21.8773 34.5165 23.6201 29.2166 26.6431 25.2462C29.6668 21.2759 33.9218 18.6393 39.0487 18.6393ZM123.546 19.0738C121.218 19.0738 119.329 21.0137 119.329 23.3684C119.329 25.7231 121.218 27.6623 123.546 27.6623C125.874 27.6623 127.764 25.7231 127.764 23.3684C127.763 21.0137 125.874 19.0738 123.546 19.0738ZM201.072 19.0738C198.743 19.0738 196.855 21.0137 196.855 23.3684C196.855 25.7231 198.743 27.6623 201.072 27.6623C203.4 27.6623 205.288 25.7231 205.288 23.3684C205.288 21.0137 203.4 19.0738 201.072 19.0738ZM123.546 20.4853C125.094 20.4853 126.352 21.7612 126.352 23.3684C126.352 24.9756 125.094 26.2508 123.546 26.2508C122 26.2508 120.741 24.9756 120.741 23.3684C120.74 21.7612 121.999 20.4853 123.546 20.4853ZM201.072 20.4853C202.619 20.4853 203.876 21.7612 203.876 23.3684C203.876 24.9756 202.619 26.2508 201.072 26.2508C199.524 26.2508 198.266 24.9756 198.266 23.3684C198.266 21.7612 199.524 20.4853 201.072 20.4853ZM123.546 30.5829C121.218 30.5829 119.329 32.5228 119.329 34.8775C119.329 37.2322 121.218 39.1736 123.546 39.1736C125.874 39.1736 127.764 37.2315 127.764 34.8775C127.763 32.5228 125.874 30.5829 123.546 30.5829ZM201.072 30.5829C198.743 30.5829 196.855 32.5235 196.855 34.8775C196.855 37.2315 198.743 39.1736 201.072 39.1736C203.4 39.1736 205.288 37.2315 205.288 34.8775C205.288 32.5228 203.4 30.5829 201.072 30.5829ZM123.546 31.9937C125.094 31.9937 126.352 33.2696 126.352 34.8768C126.352 36.484 125.094 37.7613 123.546 37.7613C122 37.7613 120.741 36.4833 120.741 34.8768C120.741 33.2703 121.999 31.9937 123.546 31.9937ZM201.072 31.9937C202.619 31.9937 203.876 33.2696 203.876 34.8768C203.876 36.484 202.619 37.7613 201.072 37.7613C199.524 37.7613 198.266 36.484 198.266 34.8768C198.266 33.2696 199.524 31.9937 201.072 31.9937ZM63.5483 37.3332C61.7207 37.3332 60.223 38.8302 60.223 40.6578C60.223 42.4862 61.7207 43.9832 63.5483 43.9832C65.2418 43.9832 66.6363 42.6918 66.8334 41.0492H99.6256V65.8251C99.6256 65.8286 99.6256 65.8322 99.6256 65.8357C99.6256 66.2221 99.9435 66.5415 100.331 66.5415C100.719 66.5415 101.037 66.2228 101.037 65.8357C101.037 65.8322 101.037 65.8286 101.037 65.8251V40.3435C101.037 39.957 100.719 39.6377 100.331 39.6377H66.6964C66.2605 38.3081 65.0178 37.3332 63.5483 37.3332ZM63.5483 40.0545C63.8889 40.0545 64.1531 40.3173 64.1531 40.6578C64.1531 40.9984 63.8882 41.2619 63.5483 41.2619C63.2071 41.2619 62.945 40.9984 62.945 40.6578C62.945 40.3173 63.2057 40.0545 63.5483 40.0545ZM41.5023 41.6631C41.7799 42.1026 42.1939 42.6911 42.882 43.5819C42.8961 43.6003 42.9131 43.6081 42.9272 43.6264C42.3903 44.5759 41.8399 45.4823 41.3525 46.6169C40.2278 49.2323 39.4641 51.4916 39.0925 52.6233C38.7202 51.4908 37.9565 49.233 36.8325 46.6169C36.3443 45.4816 35.7947 44.5759 35.2571 43.625C35.2712 43.6073 36.3422 42.1916 36.6206 41.7613C37.1716 42.3082 37.9515 42.8203 39.0006 42.8401C40.1557 42.862 40.9738 42.2636 41.5023 41.6631ZM32.2758 42.0531C32.3309 42.0037 32.3641 42.0143 32.4566 42.0644C32.6403 42.1633 32.9808 42.4819 33.3312 42.9666C33.3772 43.0302 33.4287 43.175 33.4761 43.2442C32.8417 43.6625 32.2532 43.7628 31.9564 43.5756C31.7516 43.447 31.6618 43.2944 31.6633 43.074C31.664 42.8535 31.7812 42.4954 32.2758 42.0531ZM45.8456 41.9853C45.8548 41.9832 45.8548 42.0051 45.9078 42.0531C46.4023 42.4954 46.521 42.8543 46.5224 43.074C46.5238 43.2951 46.4334 43.447 46.2292 43.5756C45.9318 43.7628 45.3419 43.6639 44.7082 43.2449C44.7555 43.1757 44.8078 43.0309 44.8545 42.9666C45.2049 42.4819 45.544 42.1626 45.7284 42.0644C45.8188 42.015 45.8364 41.9881 45.8456 41.9853ZM157.246 45.2181C155.418 45.2181 153.921 46.7172 153.921 48.5449C153.921 50.1874 155.134 51.553 156.704 51.8151V72.1261H144.465C144.462 72.1261 144.458 72.1261 144.455 72.1261C144.068 72.1261 143.75 72.444 143.75 72.8319C143.75 73.2197 144.067 73.5376 144.455 73.5376C144.458 73.5376 144.462 73.5376 144.465 73.5376H157.41C157.797 73.5376 158.116 73.2197 158.116 72.8319V51.7395C159.524 51.3524 160.572 50.0694 160.572 48.5442C160.571 46.7179 159.073 45.2181 157.246 45.2181ZM157.246 47.9408C157.586 47.9408 157.851 48.2043 157.851 48.5456C157.851 48.8861 157.586 49.1496 157.246 49.1496C156.905 49.1496 156.643 48.8861 156.643 48.5456C156.643 48.2036 156.904 47.9408 157.246 47.9408ZM38.4934 54.5181C38.6474 54.5823 38.8191 54.5901 38.9787 54.54C40.4115 54.6784 41.8753 55.4379 43.3525 56.7053L43.3511 57.9261H33.9692L33.9543 56.6389C35.5397 55.1708 37.0367 54.5223 38.4934 54.5181ZM33.9861 59.3376H43.3504L43.3476 61.7897H34.0137L33.9861 59.3376ZM34.0299 63.2006H43.3447L43.3419 65.4811H34.0561L34.0299 63.2006ZM213.063 65.527C212.676 65.527 212.357 65.8449 212.357 66.2327V127.831C212.357 128.218 212.675 128.537 213.063 128.537H263.604C263.99 128.537 264.309 128.219 264.309 127.831V66.2327C264.309 65.8456 263.991 65.527 263.604 65.527H213.063ZM213.768 66.9385H262.897V127.125H213.768V66.9385ZM69.3668 67.3737C63.2919 67.3737 58.353 72.3133 58.353 78.3875V134.729C58.2187 134.54 58.0004 134.428 57.7687 134.432H37.9946C37.7389 132.853 36.3712 131.631 34.723 131.631C32.8953 131.631 31.3983 133.129 31.3983 134.957C31.3983 136.784 32.8953 138.282 34.723 138.282C36.2419 138.282 37.5192 137.241 37.9127 135.843H57.7694C58.0011 135.845 58.2187 135.734 58.3537 135.547V193.551C58.3537 197.931 61.9192 201.498 66.2993 201.498H117.408C116.678 206.166 114.755 218.443 114.755 218.443C114.75 218.479 114.747 218.516 114.747 218.552C114.747 218.938 115.063 219.256 115.449 219.258L132.652 219.352C132.743 219.354 132.832 219.337 132.917 219.305H194.842C195.229 219.305 195.548 218.987 195.548 218.599V214.134C197.785 215.922 201.008 217.774 203.917 217.512C206.927 217.241 209.696 215.749 211.579 213.385C222.329 199.895 242.124 175.057 242.124 175.057C242.349 174.776 242.324 174.366 242.067 174.114L241.205 173.262C242.247 172.018 247.033 166.269 251.478 160.312C253.271 157.907 252.984 154.689 251.672 151.715C250.36 148.741 248.015 145.907 245.374 144.009C244.442 143.34 243.303 143.414 242.378 143.844C241.454 144.274 240.634 145.008 239.913 145.788C238.558 147.253 237.697 148.745 237.584 148.938C237.533 148.963 237.268 149.104 237.079 149.202C236.322 147.815 235.469 146.406 234.547 145.347C234.014 144.736 233.48 144.224 232.929 143.862C232.379 143.5 231.774 143.25 231.124 143.395C231.124 143.395 231.123 143.395 231.122 143.395C230.431 143.549 229.856 143.902 229.477 144.394C229.097 144.885 228.914 145.48 228.843 146.101C228.702 147.342 228.978 148.748 229.329 150.185C229.583 151.22 230.074 152.276 230.493 153.273C230.893 154.228 231.185 155.105 231.229 155.736C230.182 158.288 228.975 160.423 228.362 161.456L228.114 161.239C227.988 161.13 227.829 161.068 227.663 161.065C227.455 161.061 227.256 161.15 227.119 161.307L208.649 182.435C206.405 172.737 203.932 162.055 201.951 153.492C200.833 148.661 198.024 144.416 194.068 141.494C195.105 136.447 196.047 128.078 193.652 122.225C192.704 119.91 191.527 117.782 190.176 115.879C186.072 110.106 183.921 103.171 184.035 96.0888C184.037 95.9998 184.038 95.9066 184.038 95.8105C184.038 85.3922 173.427 77.1046 160.553 77.1046C153.933 77.1046 147.916 79.2989 143.627 82.8447V75.864C143.627 73.6125 142.734 71.4528 141.141 69.8605C139.55 68.2688 137.389 67.3744 135.138 67.3744L69.3668 67.3737ZM69.3668 68.7852H135.136C137.014 68.7852 138.814 69.5305 140.142 70.8573C141.47 72.1854 142.214 73.9855 142.214 75.8626V84.1205C139 87.3117 137.064 91.3647 137.064 95.8091C137.064 96.3432 137.173 97.1789 137.296 98.0465C137.389 98.7105 137.475 99.2234 137.551 99.6812V118.158C137.551 121.989 139.389 125.39 142.22 127.553C142.217 127.583 142.214 127.614 142.214 127.645V137.199C141.02 137.551 138.498 138.687 138.417 138.717C137.735 138.964 137.076 139.254 136.426 139.566V78.2307C136.426 77.8443 136.108 77.5257 135.721 77.5249H66.2598C65.8726 77.5257 65.554 77.8436 65.554 78.2307V187.757C65.554 188.145 65.8719 188.463 66.2598 188.463H119.448C118.722 193.1 118.16 196.686 117.629 200.087H66.2986C62.6808 200.087 59.7638 197.169 59.7638 193.551V78.3875C59.7638 73.0763 64.0549 68.7852 69.3668 68.7852ZM252.422 69.763C251.54 69.763 250.81 70.4935 250.81 71.3758V73.1893C250.81 74.0717 251.54 74.8015 252.422 74.8015H255.798C256.681 74.8015 257.411 74.0717 257.411 73.1893V71.3758C257.411 70.4935 256.681 69.763 255.798 69.763H252.422ZM219.017 71.0424C218.63 71.0424 218.311 71.3603 218.311 71.7481V74.076C218.311 74.4624 218.629 74.7817 219.017 74.7817H224.557C224.943 74.7817 225.263 74.4631 225.263 74.076V71.7481C225.263 71.361 224.944 71.0424 224.557 71.0424H219.017ZM227.504 71.0424C227.117 71.0424 226.798 71.3603 226.798 71.7481V74.076C226.798 74.4624 227.116 74.7817 227.504 74.7817H233.045C233.432 74.7817 233.751 74.4631 233.751 74.076V71.7481C233.751 71.361 233.432 71.0424 233.045 71.0424H227.504ZM252.422 71.1745H255.798C255.917 71.1745 256 71.2579 256 71.3765V73.19C256 73.3087 255.917 73.3914 255.798 73.3914H252.422C252.304 73.3914 252.221 73.3087 252.221 73.19V71.3765C252.221 71.2579 252.304 71.1745 252.422 71.1745ZM96.277 72.0251C95.5613 72.0251 94.9657 72.6185 94.9657 73.3342V74.5443C94.9657 75.26 95.5613 75.8549 96.277 75.8549H110.558C111.274 75.8549 111.869 75.26 111.869 74.5443V73.3342C111.869 72.6185 111.274 72.0251 110.558 72.0251H96.277ZM219.723 72.4539H223.852V73.3702H219.723V72.4539ZM228.209 72.4539H232.339V73.3702H228.209V72.4539ZM96.3766 73.4366H110.457V74.4433H96.3766V73.4366ZM160.551 78.5147C172.822 78.5147 182.624 86.3579 182.624 95.8091C182.624 95.8903 182.623 95.9765 182.622 96.0655C182.503 103.448 184.745 110.677 189.023 116.694C190.31 118.508 191.437 120.541 192.344 122.759C194.422 127.836 193.739 135.67 192.792 140.622C192.729 140.582 191.861 140.469 191.735 140.591C189.315 138.121 185.95 136.583 182.224 136.583H170.723L171.012 121.005C173.805 120.094 175.786 117.134 175.786 113.619C175.786 111.659 174.889 109.797 173.653 108.334C172.795 107.32 171.775 106.492 170.704 105.966C171.226 105.651 171.714 105.313 172.155 104.955C172.329 104.821 172.432 104.615 172.432 104.395C172.432 104.008 172.113 103.689 171.726 103.689C171.557 103.689 171.394 103.75 171.267 103.859C168.095 106.434 161.675 108.003 157.242 105.936C147.718 101.494 145.654 96.3177 143.033 93.583C142.671 93.2057 142.106 92.974 141.611 93.1068C141.117 93.2389 140.814 93.5774 140.558 93.9377C140.045 94.659 139.676 95.6424 139.328 96.6017C139.107 97.2121 138.917 97.7229 138.741 98.1637C138.723 98.038 138.476 96.1107 138.476 95.8091C138.476 86.3579 148.279 78.5147 160.551 78.5147ZM66.9648 78.9358H135.015V140.309C129.618 143.425 125.645 148.86 124.616 155.448C122.796 167.047 121.684 174.169 119.667 187.052H66.9648V78.9358ZM238.662 81.9312C228.141 81.9312 219.597 90.4752 219.597 100.996C219.597 111.517 228.141 120.061 238.662 120.061C249.183 120.061 257.727 111.517 257.727 100.996C257.728 90.476 249.183 81.9312 238.662 81.9312ZM238.662 83.3427C248.42 83.3427 256.316 91.2382 256.316 100.997C256.316 110.755 248.421 118.651 238.662 118.651C228.904 118.651 221.008 110.756 221.008 100.997C221.008 91.2382 228.904 83.3427 238.662 83.3427ZM238.662 86.1163C230.452 86.1163 223.783 92.7868 223.783 100.996C223.783 109.205 230.453 115.876 238.662 115.876C246.871 115.876 253.542 109.206 253.542 100.996C253.542 92.7861 246.872 86.1163 238.662 86.1163ZM238.662 87.5278C244.802 87.5278 249.966 91.6268 251.591 97.2383H249.485C248.517 97.2397 247.716 98.0408 247.716 99.0094V102.355C247.716 103.324 248.516 104.125 249.485 104.125H251.613C251.661 104.126 251.709 104.121 251.756 104.112C250.351 110.051 245.035 114.465 238.663 114.465C231.216 114.465 225.194 108.443 225.194 100.996C225.194 93.5491 231.215 87.5278 238.662 87.5278ZM207.328 94.0874C205.596 94.0874 204.177 95.4361 204.031 97.1309H185.474C185.471 97.1309 185.467 97.1309 185.464 97.1309C185.077 97.1309 184.759 97.4488 184.759 97.8366C184.759 98.2231 185.077 98.5424 185.464 98.5424C185.467 98.5424 185.471 98.5424 185.474 98.5424H204.215C204.681 99.8169 205.897 100.739 207.328 100.739C209.156 100.739 210.652 99.2411 210.652 97.4135C210.652 95.5858 209.155 94.0874 207.328 94.0874ZM141.707 94.7557C141.841 94.5678 141.962 94.5049 142.012 94.5586C144.241 96.8843 146.803 102.624 156.645 107.214C160.522 109.023 165.325 108.493 169.015 106.843C170.135 107.093 171.519 107.995 172.575 109.245C173.643 110.509 174.374 112.1 174.374 113.618C174.374 116.818 172.473 119.383 170.169 119.865C169.849 119.932 169.616 120.214 169.609 120.542L169.226 141.214C166.799 142.948 164.427 143.857 162.082 143.871C159.736 143.884 157.375 143.005 154.953 141.224V129.281C154.953 128.894 154.636 128.575 154.248 128.575H149.38C143.617 128.575 138.961 123.92 138.961 118.158V100.402C138.966 100.392 138.97 100.382 138.975 100.371C139.182 100.288 139.305 100.156 139.401 100.042C139.519 99.8974 139.605 99.7512 139.689 99.5894C140.023 98.9409 140.317 98.0168 140.655 97.0821C140.994 96.1482 141.381 95.2128 141.707 94.7557ZM207.328 96.8101C207.668 96.8101 207.931 97.0722 207.931 97.4135C207.931 97.7533 207.667 98.0175 207.328 98.0175C206.986 98.0175 206.722 97.7533 206.722 97.4135C206.722 97.0715 206.986 96.8101 207.328 96.8101ZM251.905 98.589C252.046 99.3718 252.132 100.173 252.132 100.997C252.132 101.617 252.076 102.222 251.995 102.82C251.88 102.749 251.748 102.712 251.613 102.714H249.486C249.28 102.714 249.128 102.561 249.128 102.356V99.0101C249.128 98.8038 249.28 98.6512 249.486 98.6505H251.613C251.714 98.6498 251.813 98.6293 251.905 98.589ZM98.7227 99.7745C92.4104 99.7745 86.4224 101.195 81.0667 103.731C80.7226 103.894 80.5686 104.307 80.724 104.655L84.2076 112.49C84.3207 112.745 84.5743 112.91 84.8533 112.91C84.9593 112.91 85.0639 112.886 85.1585 112.84C89.2631 110.864 93.8622 109.755 98.7227 109.755C103.493 109.755 108.012 110.823 112.059 112.731C112.153 112.776 112.256 112.798 112.359 112.798C112.637 112.798 112.89 112.634 113.004 112.38L116.488 104.545C116.643 104.196 116.488 103.78 116.141 103.619C110.846 101.151 104.942 99.7745 98.7227 99.7745ZM98.7227 101.185C104.488 101.185 109.953 102.436 114.902 104.639L111.992 111.184C107.932 109.378 103.448 108.345 98.7227 108.345C93.9046 108.345 89.3408 109.417 85.2179 111.29L82.3086 104.745C87.3203 102.476 92.8654 101.185 98.7227 101.185ZM27.6851 105.361C27.5233 105.361 27.3672 105.416 27.2415 105.518L20.4255 111.05L18.6183 109.18C18.2566 108.805 17.7705 108.615 17.2831 108.609C16.7949 108.603 16.3046 108.783 15.9337 109.148L14.2325 110.826C13.6476 111.404 13.5225 112.276 13.8482 112.988C13.8242 113.007 13.8009 113.027 13.7797 113.049C10.6126 116.174 8.49672 119.796 7.64048 123.193C6.85488 126.306 7.13818 129.288 8.77295 131.401C6.30031 132.604 4.21481 134.718 3.19325 137.334C2.40271 139.358 2.32995 141.417 2.15545 143.054C2.06785 143.872 1.95411 144.582 1.75912 145.112C1.56272 145.642 1.31899 145.976 0.913477 146.209L0.92478 146.204C0.51856 146.429 0.214072 146.77 0.0812555 147.158C-0.0515607 147.546 -0.0119987 147.949 0.130708 148.279C0.415415 148.938 1.16851 149.436 1.97035 149.182C3.04348 148.843 3.75278 148.043 4.18231 147.181C4.61184 146.32 4.80965 145.376 4.95307 144.558C4.95377 144.557 5.00464 144.251 5.02866 144.1C5.02866 144.099 5.02866 144.098 5.02866 144.097C5.66095 140.024 6.41899 136.789 8.91353 134.979C9.26041 134.728 9.78108 134.385 10.2657 134.03C10.5843 133.797 10.8825 133.577 11.1382 133.32C13.0428 134.252 15.4215 134.368 17.8963 133.795C21.2803 133.009 24.9165 130.958 28.0829 127.833C28.1076 127.809 28.1309 127.784 28.1521 127.756C28.8416 128.06 29.683 127.939 30.2482 127.382L31.9487 125.705C32.6905 124.973 32.7053 123.762 31.9819 123.013L28.7017 119.618L35.32 114.247C35.6181 114.004 35.6661 113.561 35.4273 113.26L33.8745 111.308C33.7403 111.14 33.5375 111.042 33.3221 111.042C33.1603 111.042 33.0041 111.098 32.8784 111.2L25.9797 116.798L23.1489 113.867L29.6844 108.564C29.9833 108.321 30.0313 107.877 29.7918 107.576L28.239 105.626C28.1034 105.459 27.8999 105.361 27.6851 105.361ZM27.577 107.063L28.2517 107.909L22.1641 112.85L21.4082 112.068L27.577 107.063ZM17.2661 110.01C17.3869 110.011 17.5063 110.061 17.6024 110.161L30.966 123.994C31.1588 124.194 31.1553 124.506 30.9582 124.701L29.257 126.378C29.0599 126.573 28.7724 126.571 28.5788 126.371L15.2152 112.538C15.0224 112.338 15.0252 112.027 15.2237 111.832L16.9256 110.153C17.0245 110.055 17.146 110.008 17.2661 110.01ZM98.7227 112.6C94.2621 112.6 90.0367 113.628 86.2733 115.46C85.9335 115.625 85.7831 116.036 85.9371 116.381L88.3214 121.745C88.4351 121.999 88.688 122.164 88.9664 122.164C89.0759 122.164 89.1833 122.138 89.2808 122.09C92.1243 120.673 95.3289 119.875 98.7227 119.875C102.027 119.875 105.153 120.632 107.941 121.979C108.037 122.025 108.142 122.049 108.248 122.049C108.526 122.049 108.779 121.885 108.893 121.631L111.276 116.268C111.43 115.921 111.277 115.508 110.934 115.345C107.232 113.586 103.089 112.6 98.7227 112.6ZM33.214 112.745L33.8879 113.593L27.7183 118.599L26.9624 117.818L33.214 112.745ZM98.7227 114.011C102.633 114.011 106.319 114.901 109.676 116.394L107.867 120.467C105.061 119.221 101.985 118.464 98.7227 118.464C95.3684 118.464 92.2112 119.262 89.3458 120.575L87.5344 116.5C90.9537 114.941 94.7199 114.011 98.7227 114.011ZM14.744 114.082L27.0762 126.845C24.0786 129.797 20.6416 131.709 17.5763 132.419C14.5045 133.132 11.8814 132.654 10.2622 130.977C8.64295 129.301 8.22897 126.628 9.0082 123.538C9.78461 120.459 11.7585 117.036 14.744 114.082ZM143.882 119.879C143.88 119.879 143.879 119.879 143.877 119.879C143.49 119.879 143.172 120.196 143.172 120.584C143.172 120.629 143.176 120.675 143.184 120.719C143.184 120.719 143.3 121.302 143.754 121.854C144.207 122.405 145.029 122.969 146.301 123.137C147.602 123.308 148.595 122.887 149.206 122.409C149.817 121.931 150.104 121.364 150.104 121.364C150.154 121.266 150.18 121.157 150.18 121.048C150.18 120.661 149.861 120.342 149.474 120.342C149.207 120.342 148.963 120.493 148.843 120.73C148.843 120.73 148.708 121.007 148.336 121.297C147.964 121.587 147.418 121.86 146.485 121.738C145.524 121.611 145.088 121.254 144.844 120.956C144.599 120.659 144.573 120.468 144.573 120.468C144.518 120.131 144.224 119.881 143.882 119.879ZM98.7227 123.492C95.8319 123.492 93.0978 124.191 90.6881 125.431C90.3574 125.602 90.2147 126.005 90.3659 126.345L93.81 134.093C93.923 134.347 94.1759 134.511 94.4543 134.511C94.58 134.511 94.7036 134.478 94.8117 134.414C95.9604 133.739 97.2936 133.354 98.7227 133.354C100.067 133.354 101.327 133.696 102.427 134.297C102.531 134.353 102.647 134.383 102.765 134.383C103.044 134.383 103.296 134.218 103.409 133.965L106.849 126.229C107.003 125.886 106.854 125.476 106.517 125.31C104.167 124.146 101.518 123.492 98.7227 123.492ZM98.7227 124.903C101.058 124.903 103.248 125.453 105.253 126.343L102.394 132.777C101.262 132.276 100.037 131.943 98.7227 131.943C97.3162 131.943 96.0127 132.322 94.8195 132.89L91.9576 126.45C94.0233 125.493 96.2953 124.903 98.7227 124.903ZM143.625 128.485C144.238 128.827 144.887 129.113 145.561 129.344C145.457 129.833 145.206 130.995 144.777 132.525C144.532 133.406 144.047 134.424 143.625 135.219V128.485ZM146.92 129.725C147.715 129.894 148.537 129.987 149.381 129.987H153.543V136.584H146.462C145.769 136.584 145.083 136.635 144.406 136.728C144.885 135.915 145.726 134.382 146.138 132.906V132.904C146.556 131.409 146.801 130.291 146.92 129.725ZM84.3779 131.513C83.9907 131.513 83.6721 131.831 83.6721 132.218V151C83.6721 151.387 83.99 151.706 84.3779 151.706H88.1702C88.5566 151.706 88.8753 151.388 88.876 151V132.218C88.8753 131.832 88.5574 131.513 88.1702 131.513H84.3779ZM106.465 131.513C106.078 131.513 105.759 131.831 105.759 132.218V135.395C105.759 135.783 106.078 136.101 106.465 136.101H111.332V151C111.332 151.387 111.65 151.706 112.038 151.706H115.83C116.216 151.706 116.536 151.388 116.536 151V136.101H121.39C121.776 136.101 122.096 135.783 122.096 135.395V132.218C122.096 131.832 121.777 131.513 121.39 131.513H106.465ZM9.80439 132.465C9.82912 132.485 9.85526 132.505 9.87998 132.526C9.74363 132.644 9.60164 132.767 9.43279 132.89C8.98701 133.216 8.47764 133.552 8.08414 133.837C5.06045 136.03 4.27344 139.756 3.63338 143.881C3.61007 144.027 3.58605 144.173 3.56132 144.317C3.42568 145.091 3.23776 145.911 2.91773 146.552C2.59911 147.192 2.19642 147.631 1.54365 147.838C1.52599 147.843 1.40589 147.643 1.41507 147.614C1.42496 147.586 1.44544 147.526 1.60723 147.436C1.61076 147.434 1.61429 147.432 1.61782 147.431C2.34761 147.01 2.80893 146.335 3.08021 145.6C3.3515 144.866 3.46524 144.056 3.55638 143.201C3.73935 141.492 3.82554 139.59 4.50587 137.847C5.44124 135.456 7.46598 133.469 9.80439 132.465ZM85.0836 132.923H87.4651V150.293H85.0836V132.923ZM107.171 132.923H120.684V134.689H115.83C115.443 134.689 115.124 135.008 115.124 135.395V150.293H112.743V135.395C112.743 135.008 112.424 134.689 112.037 134.689H107.17L107.171 132.923ZM34.723 134.353C35.0635 134.353 35.327 134.615 35.327 134.957C35.327 135.296 35.0635 135.561 34.723 135.561C34.3825 135.561 34.1182 135.296 34.1182 134.957C34.1182 134.615 34.3811 134.353 34.723 134.353ZM98.8492 135.464C97.4129 135.464 96.0806 135.786 94.893 136.434C93.6948 137.087 92.751 138.055 92.1024 139.287C91.4652 140.497 91.1367 141.776 91.1367 143.087C91.1367 144.738 91.4489 146.187 92.1053 147.401C92.7601 148.611 93.7421 149.552 94.9926 150.175C96.2169 150.785 97.5232 151.094 98.8753 151.094C101.049 151.094 102.94 150.333 104.394 148.852C105.847 147.371 106.588 145.45 106.588 143.24C106.588 141.048 105.855 139.144 104.413 137.679C102.969 136.212 101.06 135.464 98.8492 135.464ZM98.8492 136.875C100.755 136.875 102.22 137.464 103.407 138.67C104.596 139.879 105.176 141.351 105.176 143.241C105.176 145.147 104.591 146.638 103.388 147.865C102.184 149.091 100.733 149.684 98.8753 149.684C97.7351 149.684 96.6613 149.429 95.6221 148.912C94.6097 148.407 93.8707 147.696 93.3465 146.729C92.8251 145.764 92.5475 144.563 92.5475 143.088C92.5475 142.008 92.8103 140.972 93.3508 139.944C93.8813 138.938 94.6054 138.198 95.5684 137.673C96.5412 137.142 97.6214 136.875 98.8492 136.875ZM146.462 137.994H153.543V141.627C153.543 141.847 153.646 142.053 153.82 142.187C156.525 144.255 159.301 145.3 162.09 145.284C164.88 145.267 167.644 144.195 170.345 142.194C170.521 142.063 170.626 141.859 170.63 141.64L170.698 137.994H182.225C188.813 137.994 194.137 143.321 194.137 149.909V168.818H132.843V151.615C132.843 148.002 134.277 144.538 136.831 141.984C138.461 140.354 140.462 139.186 142.635 138.55C142.676 138.568 143.457 138.365 143.478 138.337C144.45 138.118 145.449 137.994 146.462 137.994ZM98.8619 138.398C97.7429 138.398 96.7213 138.863 95.9661 139.708C95.1791 140.59 94.8251 141.818 94.8251 143.28C94.8251 144.741 95.1791 145.968 95.9661 146.851C96.7213 147.696 97.7429 148.161 98.8619 148.161C99.981 148.161 101.004 147.694 101.754 146.848C102.538 145.964 102.886 144.73 102.886 143.253C102.886 141.809 102.535 140.591 101.754 139.711C101.004 138.865 99.981 138.398 98.8619 138.398ZM98.8619 139.809C99.6221 139.809 100.176 140.059 100.697 140.648C101.19 141.203 101.475 142.034 101.475 143.254C101.475 144.511 101.186 145.361 100.697 145.912C100.176 146.5 99.6221 146.75 98.8619 146.75C98.1018 146.75 97.5458 146.5 97.0194 145.911C96.5249 145.357 96.236 144.517 96.236 143.28C96.236 142.043 96.5242 141.203 97.0194 140.649C97.5458 140.059 98.1018 139.809 98.8619 139.809ZM134.86 142.059C132.653 144.738 131.43 148.115 131.43 151.616V217.934L116.276 217.852C116.433 216.848 122.43 178.487 126.009 155.667C126.917 149.865 130.264 145.031 134.86 142.059ZM193.484 142.815C197.038 145.531 199.557 149.411 200.574 153.808C202.626 162.674 205.203 173.81 207.509 183.774C207.463 183.87 207.439 183.975 207.439 184.08C207.439 184.467 207.758 184.786 208.145 184.786C208.35 184.786 208.544 184.697 208.678 184.542L227.716 162.763L239.649 173.71C239.702 173.791 239.771 173.859 239.853 173.911L240.623 174.672C240.122 175.302 221.085 199.19 210.474 212.505C208.83 214.567 206.416 215.869 203.788 216.105C201.385 216.321 197.793 214.256 195.753 212.473C195.693 212.42 195.623 212.377 195.546 212.347V149.908C195.547 147.299 194.784 144.872 193.484 142.815ZM231.429 144.77C231.511 144.752 231.769 144.787 232.152 145.039C232.535 145.292 233.004 145.725 233.482 146.274C234.438 147.373 235.446 148.929 236.215 150.44C236.336 150.677 236.579 150.826 236.844 150.826C236.961 150.826 237.077 150.796 237.179 150.741C237.863 150.37 238.358 150.123 238.358 150.123C238.481 150.062 238.585 149.966 238.654 149.848C238.654 149.848 239.646 148.156 240.948 146.747C241.6 146.042 242.332 145.421 242.971 145.123C243.612 144.826 244.052 144.8 244.549 145.157C246.967 146.894 249.187 149.581 250.38 152.286C251.573 154.99 251.731 157.609 250.344 159.468C246.024 165.258 241.374 170.857 240.195 172.268L229.444 162.404C230.046 161.413 231.446 158.994 232.618 156.089C232.654 155.998 232.672 155.901 232.669 155.803C232.638 154.78 232.222 153.752 231.792 152.726C231.361 151.7 230.901 150.68 230.698 149.85C230.359 148.466 230.142 147.156 230.244 146.259C230.295 145.812 230.418 145.483 230.592 145.256C230.769 145.029 230.999 144.866 231.429 144.77ZM132.842 170.229H194.136V192.825H132.842V170.229ZM102.254 190.12C99.7761 190.12 97.7528 192.144 97.7528 194.622C97.7528 197.101 99.7768 199.125 102.254 199.125C104.733 199.125 106.757 197.1 106.757 194.622C106.757 192.143 104.733 190.12 102.254 190.12ZM102.254 191.531C103.97 191.531 105.346 192.907 105.346 194.623C105.346 196.338 103.97 197.715 102.254 197.715C100.539 197.715 99.1636 196.338 99.1636 194.623C99.1643 192.906 100.539 191.531 102.254 191.531ZM132.842 194.237H194.136V217.893H132.842V194.237Z" fill="#262626"/>
</svg>
