<svg width="306" height="306" viewBox="0 0 306 306" fill="none" xmlns="http://www.w3.org/2000/svg">
<path fill-rule="evenodd" clip-rule="evenodd" d="M97.2464 179.697H101.278V261.782H97.2464V179.697ZM99.8012 172.583L60.7336 172.511L60.8 179.233L63.3496 179.263V200.768H67.9303V179.317L99.8012 179.692V172.583ZM208.047 160.851H203.415C201.01 160.851 199.043 162.818 199.043 165.222V166.374C199.043 168.778 201.01 170.745 203.415 170.745H203.715V165.518H207.991V170.745H208.047C210.451 170.745 212.419 168.778 212.419 166.373V165.222C212.419 162.818 210.451 160.851 208.047 160.851ZM185.286 228.029C185.286 229.523 186.509 230.746 188.003 230.746H206.414C207.908 230.746 209.131 229.523 209.131 228.029V226.532H185.285L185.286 228.029ZM215.243 226.41V260.427C215.692 260.684 216.032 261.099 216.193 261.599H219.275V226.088C218.769 226.294 218.218 226.409 217.641 226.409H215.243V226.41ZM217.641 180.995H215.39C216.768 196.207 217.716 209.746 217.716 209.746C216.891 210.202 216.066 210.605 215.243 210.959V216.393H217.64C218.218 216.393 218.768 216.508 219.274 216.714V180.674C218.769 180.88 218.218 180.995 217.641 180.995Z" fill="#0081E2"/>
<path d="M258.912 218.48L233.871 218.725C233.871 218.725 226.908 209.807 231.062 199.791C231.062 199.791 237.658 201.623 240.467 207.486C240.467 207.486 242.055 200.279 247.43 196.249C247.43 196.249 251.705 201.379 252.804 207.731C252.804 207.731 256.347 201.38 261.966 200.768C261.966 200.768 266.119 210.419 258.912 218.48ZM160.432 74.5009H136.504C134.253 74.5009 132.41 76.3432 132.41 78.5947V93.8146C132.41 96.0662 134.253 97.9085 136.504 97.9085H139.617V103.537L144.35 97.9085H160.432C162.684 97.9085 164.526 96.0662 164.526 93.8146V78.5947C164.526 76.3432 162.684 74.5009 160.432 74.5009ZM135.57 129.296H95.163C92.986 129.296 91.2053 130.184 91.2053 132.526L98.6194 164.581H128.735C128.748 164.566 128.756 164.552 128.769 164.536C131.305 161.258 136.958 162.808 136.958 162.808C136.958 162.808 142.624 163.076 148.062 163.337L141.439 133.554C140.94 130.545 137.747 129.296 135.57 129.296ZM203.715 216.393H177.035C174.631 216.393 172.664 218.361 172.664 220.765V222.038C172.664 224.442 174.631 226.41 177.035 226.41H203.715V216.393ZM217.641 150.6H186.624C184.22 150.6 182.252 152.567 182.252 154.971V176.624C182.252 179.028 184.22 180.996 186.624 180.996H203.715V170.745H203.415C201.01 170.745 199.043 168.778 199.043 166.373V165.222C199.043 162.818 201.01 160.851 203.415 160.851H208.047C210.451 160.851 212.419 162.818 212.419 165.222V166.373C212.419 168.778 210.451 170.745 208.047 170.745H207.991V180.996H217.641C220.045 180.996 222.012 179.028 222.012 176.624V154.971C222.012 152.567 220.045 150.6 217.641 150.6ZM217.641 216.393H207.991V226.41H217.641C220.045 226.41 222.012 224.442 222.012 222.038V220.765C222.012 218.361 220.045 216.393 217.641 216.393ZM214.217 260.143H180.2C179.054 260.143 178.116 261.081 178.116 262.227V263.375H216.301V262.227C216.301 261.081 215.363 260.143 214.217 260.143Z" fill="white"/>
<path fill-rule="evenodd" clip-rule="evenodd" d="M159.919 173.874C153.923 173.914 137.029 168.344 137.029 168.344L128.068 167.944C128.068 167.944 126.233 167.815 128.769 164.536C131.305 161.257 136.958 162.808 136.958 162.808C136.958 162.808 156.943 163.754 157.861 163.818C158.779 163.883 162.903 160.946 162.903 160.946L167.942 171.212C167.942 171.213 165.914 173.836 159.919 173.874ZM197.758 128.052C197.758 128.052 194.141 128.034 194.279 128.011C194.279 128.011 191.128 126.96 189.9 118.381C189.9 118.381 195.085 119.909 195.085 114.136C195.085 108.362 190.616 109.211 189.185 111.588C189.185 111.588 187.576 116.003 185.789 113.626C184.575 112.012 187.714 106.829 184.895 102.59C182.749 99.3638 177.385 102.76 177.385 102.76C177.385 102.76 173.969 120.833 181.848 126.26C181.848 126.26 183.912 127.86 188.144 128.269C188.169 128.563 188.216 129.297 188.279 131.021C188.279 131.021 197.129 129.921 197.99 129.921L197.758 128.052ZM172.584 234.843C173.461 240.772 176.275 260.001 175.809 259.691C175.47 259.464 171.7 260.708 168.307 262.297L167.381 259.803C167.381 259.803 168.907 247.586 169.186 234.746C165.585 235.821 160.579 235.744 157.513 235.558C158.332 241.088 161.258 261.034 160.785 260.719C160.235 260.352 150.707 263.833 148.325 266.398L169.763 266.215L169.43 265.318L179.054 265.236C178.994 265.001 178.96 264.756 178.96 264.503C178.96 264.103 179.039 263.723 179.182 263.375H178.116V262.227C178.116 261.081 179.054 260.143 180.2 260.143H182.914L182.406 258.775C182.406 258.775 183.847 247.246 184.184 234.816C179.53 235.663 175.182 235.314 172.584 234.843Z" fill="#FFD2BB"/>
<path fill-rule="evenodd" clip-rule="evenodd" d="M68.114 179.331H71.7787V200.768H68.114V179.331ZM232.894 218.969L236.436 248.285L257.812 248.407L260.988 219.091L232.894 218.969ZM199.132 259.96V230.929H195.285V259.96H199.132ZM207.422 119.399C212.328 110.857 211.176 97.6663 205.098 92.7423C200.178 88.7574 190.953 85.9897 180.798 91.9429C179.353 92.7901 173.444 90.3674 172.044 93.5185C171.715 94.2582 175.823 97.2823 175.433 97.8128C171.08 103.741 176.552 106.268 176.552 106.268L176.876 106.665C177.093 104.325 177.387 102.76 177.387 102.76C177.387 102.76 182.75 99.3637 184.896 102.59C187.715 106.829 184.576 112.012 185.79 113.626C187.578 116.003 189.187 111.588 189.187 111.588C190.617 109.211 195.086 108.362 195.086 114.135C195.086 119.909 189.902 118.38 189.902 118.38C191.792 127.234 194.455 128.186 194.455 128.186C198.832 128.186 203.131 126.87 207.422 119.399ZM184.184 234.816C183.98 242.318 183.375 249.486 182.927 253.995H185.673V234.504C185.174 234.622 184.677 234.727 184.184 234.816ZM203.716 226.298H207.991V165.518H203.716V226.298ZM168.857 174.384C167.643 173.992 166.609 173.425 165.715 172.755C164.447 173.334 162.573 173.858 159.919 173.875C158.023 173.887 155.038 173.338 151.842 172.583H99.8014V179.693H101.461V261.6H106.957V179.692H176.979C177.215 177.143 177.37 174.654 177.471 172.582H171.655C170.095 173.644 168.857 174.384 168.857 174.384ZM222.013 176.624C222.013 178.451 220.875 180.023 219.274 180.674V216.715C220.875 217.365 222.013 218.937 222.013 220.765V222.038C222.013 223.865 220.875 225.437 219.274 226.088V261.782H224.771V179.692H228.059V172.582H222.013V176.624ZM179.182 263.375C179.039 263.723 178.96 264.104 178.96 264.502C178.96 266.151 180.296 267.488 181.945 267.488C183.593 267.488 184.93 266.151 184.93 264.502C184.93 264.103 184.85 263.723 184.708 263.375H179.182ZM194.421 263.375C194.279 263.723 194.199 264.104 194.199 264.502C194.199 266.151 195.536 267.488 197.184 267.488C198.833 267.488 200.169 266.151 200.169 264.502C200.169 264.103 200.089 263.723 199.947 263.375H194.421ZM209.661 263.375C209.518 263.723 209.438 264.104 209.438 264.502C209.438 266.151 210.775 267.488 212.424 267.488C214.072 267.488 215.409 266.151 215.409 264.502C215.409 264.103 215.329 263.723 215.187 263.375H209.661Z" fill="#0081E2"/>
<path fill-rule="evenodd" clip-rule="evenodd" d="M146.986 50.484V60.3105C146.986 62.7147 145.018 64.682 142.614 64.682H125.6C123.196 64.682 121.228 62.7147 121.228 60.3105V50.484C121.228 48.0798 123.196 46.1125 125.6 46.1125H142.614C145.019 46.1125 146.986 48.0798 146.986 50.484ZM108.225 113.757C116.039 111.543 121.024 107.694 123.25 104.962C125.937 101.664 126.059 98.1218 124.349 97.8776C124.349 97.8776 119.852 97.1091 114.506 99.1905C114.455 99.21 118.273 104.644 112.455 106.499C109.569 107.419 107.203 103.643 107.179 103.593C104.953 105.603 102.726 108.269 100.653 111.803C100.652 111.803 100.896 115.834 108.225 113.757ZM107.176 103.588C107.176 103.588 107.178 103.592 107.178 103.593C107.185 103.587 107.192 103.58 107.199 103.574L107.176 103.588ZM56.6075 205.73C56.625 203.708 56.5751 201.721 56.6075 200.984H40.2454V205.54H42.2023V261.691C42.2023 261.691 57.65 261.84 57.67 261.777L57.5667 205.725L56.6075 205.73ZM67.5767 118.551L100.407 95.5572L98.9408 92.8698L65.7704 116.594C66.5749 116.995 67.2267 117.681 67.5767 118.551ZM64.9304 123.619C64.3079 123.76 63.6869 123.737 63.1112 123.58L73.7782 167.137L77.0357 167.249L65.9338 123.232C65.627 123.404 65.2913 123.537 64.9304 123.619ZM207.991 212.92V216.393H208.003C211.838 214.879 212.822 213.458 213.275 211.717C211.499 212.324 209.733 212.714 207.991 212.92ZM173.421 195.517C169.222 195.998 156.873 197.609 152.942 200.331C148.178 203.629 147.812 208.943 150.377 215.722C153.113 222.952 154.774 235.327 154.774 235.327C154.774 235.327 165.112 236.578 170.436 234.303C171.996 234.919 178.913 236.218 186.085 234.406C186.128 233.434 186.167 231.863 186.203 230.046C185.645 229.548 185.286 228.832 185.286 228.029V226.532L177.035 226.41C174.631 226.41 172.664 224.443 172.664 222.039V220.765C172.664 218.361 174.631 216.394 177.035 216.394H203.715V213.07C188.715 212.386 176.129 199.353 173.421 195.517ZM128.068 167.944C128.068 167.944 127.866 167.927 127.689 167.788H95.7758C96.2035 172.856 100.641 172.289 100.641 172.289H134.09C133.725 169.838 133.024 168.683 132.467 168.141L128.068 167.944Z" fill="#DEDECB"/>
<path d="M66.7546 172.45C66.7546 172.45 66.9376 167.503 70.6022 167.32H81.0461C81.0461 167.32 85.8098 167.686 86.9093 172.45H66.7546ZM64.9302 123.619C66.953 123.16 68.2201 121.147 67.7605 119.124C67.301 117.101 65.2885 115.834 63.2652 116.293C61.2424 116.753 59.9753 118.766 60.4349 120.789C60.8949 122.812 62.9074 124.079 64.9302 123.619ZM160.432 74.5009C162.388 74.5009 164.033 75.8914 164.432 77.7327H186.769C189.173 77.7327 191.141 75.7655 191.141 73.3613V60.8273C191.141 58.4231 189.173 56.4558 186.769 56.4558H156.39C153.986 56.4558 152.019 58.4231 152.019 60.8273V73.3613C152.019 73.7561 152.076 74.137 152.175 74.5009H160.432ZM101.139 96.6589C101.106 96.7165 97.9783 102.324 100.651 111.803C100.651 111.803 108.225 96.1675 124.348 97.8777C124.348 97.8777 119.378 92.7784 110.472 91.2327L107.003 86.396C105.782 83.9532 102.606 81.9988 99.1853 84.1974C95.7648 86.396 98.2081 91.5262 98.2081 91.5262L101.139 96.6589ZM57 205.54H57.5701L57.6698 261.735C71.6051 261.773 89.9217 261.816 89.9607 261.778L89.6518 205.54H91.5666V200.984H57V205.54ZM182.253 176.624V154.971C182.253 152.567 184.22 150.6 186.624 150.6H212.034C211.209 144.999 210.369 140.918 209.57 139.653C205.926 133.884 201.892 134.242 201.892 134.242C201.892 134.242 200.661 130.296 199.456 129.952C198.251 129.607 189.135 130.868 189.135 130.868C189.135 130.868 186.476 131.292 185.959 132.67C185.442 134.047 183.989 138.546 183.989 138.546C183.989 138.546 179.634 139.054 176.462 144.941C174.503 148.577 163.239 159.238 160.308 161.192C160.308 161.192 160.552 171.697 168.858 174.384C168.858 174.384 170.026 173.686 171.522 172.674H177.468C177.098 180.217 176.014 193.176 172.915 194.467C172.113 194.802 186.284 212.273 203.717 213.07V180.995H186.626C184.22 180.996 182.253 179.028 182.253 176.624ZM215.391 180.996H207.991V212.922C211.181 212.545 214.446 211.551 217.717 209.747C217.717 209.747 216.768 196.207 215.391 180.996ZM98.6193 164.582L91.2052 132.526C91.2052 130.184 92.9864 129.296 95.1629 129.296H135.57C137.747 129.296 140.94 130.545 141.438 133.554L148.061 163.337C149.206 163.392 150.34 163.447 151.409 163.498L144.146 131.592C143.597 128.268 140.637 126.888 138.233 126.888H91.9012C89.497 126.888 87.5298 129.004 87.5298 131.592L95.718 167.564H127.509C127.308 167.158 127.4 166.32 128.734 164.582H98.6193ZM132.471 168.141C133.058 168.712 133.805 169.958 134.148 172.674H152.234C145.232 171.048 137.028 168.345 137.028 168.345L132.471 168.141Z" fill="#30F58B"/>
<path d="M127.473 55.6404V55.662C127.473 56.6788 128.176 57.49 129.182 57.49C129.798 57.49 130.253 57.2088 130.663 56.7867L131.453 57.5655C130.89 58.1927 130.231 58.6363 129.116 58.6363C127.418 58.6363 126.163 57.3059 126.163 55.6836V55.662C126.163 54.0397 127.418 52.6764 129.138 52.6764C130.209 52.6764 130.88 53.0769 131.42 53.6608L130.598 54.5373C130.198 54.1152 129.777 53.8233 129.127 53.8233C128.176 53.8233 127.473 54.6452 127.473 55.6404ZM134.643 57.5763C134.059 57.5763 133.4 57.3383 132.772 56.8731L132.188 57.7604C132.902 58.3227 133.799 58.6147 134.611 58.6147C135.8 58.6147 136.731 58.0199 136.731 56.8191V56.7975C136.731 55.77 135.789 55.3916 134.957 55.132C134.286 54.9156 133.669 54.7424 133.669 54.3209V54.2993C133.669 53.9749 133.961 53.7369 134.47 53.7369C134.946 53.7369 135.53 53.942 136.081 54.2777L136.6 53.3473C135.995 52.9473 135.216 52.6985 134.502 52.6985C133.367 52.6985 132.469 53.3581 132.469 54.4401V54.4617C132.469 55.5541 133.41 55.9 134.253 56.138C134.924 56.3436 135.53 56.4953 135.53 56.9384V56.96C135.53 57.3383 135.205 57.5763 134.643 57.5763ZM139.953 57.5763C139.369 57.5763 138.71 57.3383 138.082 56.8731L137.498 57.7604C138.212 58.3227 139.11 58.6147 139.921 58.6147C141.11 58.6147 142.041 58.0199 142.041 56.8191V56.7975C142.041 55.77 141.099 55.3916 140.267 55.132C139.596 54.9156 138.98 54.7424 138.98 54.3209V54.2993C138.98 53.9749 139.271 53.7369 139.78 53.7369C140.256 53.7369 140.84 53.942 141.391 54.2777L141.911 53.3473C141.305 52.9473 140.526 52.6985 139.812 52.6985C138.677 52.6985 137.779 53.3581 137.779 54.4401V54.4617C137.779 55.5541 138.72 55.9 139.563 56.138C140.234 56.3436 140.84 56.4953 140.84 56.9384V56.96C140.84 57.3383 140.515 57.5763 139.953 57.5763ZM125.6 65.196H127.463C127.463 65.196 127.906 65.1056 127.899 64.6445C127.89 64.1438 127.448 64.168 127.448 64.168H125.6C123.473 64.168 121.742 62.4377 121.742 60.3105V50.484C121.742 48.3569 123.473 46.6266 125.6 46.6266H142.615C144.742 46.6266 146.472 48.3569 146.472 50.484V60.3105C146.472 62.4377 144.742 64.168 142.615 64.168H131.876C131.876 64.168 131.445 64.2805 131.461 64.6727C131.48 65.1673 131.907 65.196 131.907 65.196H142.615C145.309 65.196 147.501 63.0041 147.501 60.3105V50.484C147.501 47.7904 145.309 45.5985 142.615 45.5985H125.6C122.907 45.5985 120.715 47.7904 120.715 50.484V60.3105C120.714 63.0041 122.906 65.196 125.6 65.196ZM163.951 70.648V63.6806H162.726V66.5773H159.402V63.6806H158.178V70.648H159.402V67.7118H162.726V70.648H163.951ZM168.692 70.648V64.8151H170.901V63.6806H165.248V64.8151H167.458V70.648H168.692ZM173.402 65.671L175.582 68.9357H175.621L177.821 65.651V70.6475H179.045V63.6801H177.742L175.621 66.9746L173.501 63.6801H172.198V70.6475H173.402V65.671ZM180.841 63.6806V70.648H185.728V69.5331H182.065V63.6806C182.065 63.6806 180.841 63.6806 180.841 63.6806ZM173.468 56.9697H175.789C175.789 56.9697 176.298 56.8762 176.296 56.4464C176.293 55.9751 175.759 55.9417 175.759 55.9417H173.483C173.483 55.9417 173.027 55.9735 173.034 56.4326C173.041 56.8453 173.468 56.9697 173.468 56.9697ZM149.716 82.6325L146.097 89.4298C145.964 89.6806 146.058 89.9916 146.309 90.1253C146.386 90.1664 146.469 90.1854 146.55 90.1854C146.734 90.1854 146.912 90.0867 147.005 89.913L150.624 83.1157C150.757 82.8649 150.663 82.5539 150.412 82.4202C150.161 82.2866 149.85 82.3827 149.716 82.6325ZM152.782 89.8431C152.882 89.9433 153.014 89.9937 153.146 89.9937C153.277 89.9937 153.409 89.9433 153.509 89.8431L156.796 86.5557C156.894 86.4581 156.948 86.3244 156.946 86.1856C156.944 86.0468 156.887 85.9152 156.787 85.8196L153.5 82.6927C153.294 82.4973 152.969 82.505 152.773 82.7107C152.578 82.9163 152.585 83.2417 152.791 83.4375L155.696 86.201L152.782 89.1152C152.582 89.3172 152.582 89.6426 152.782 89.8431ZM144.383 82.7024C144.182 82.5014 143.857 82.5014 143.656 82.7024L140.369 85.9898C140.271 86.0874 140.217 86.2211 140.219 86.3599C140.22 86.4987 140.278 86.6303 140.379 86.7259L143.666 89.8528C143.765 89.9474 143.893 89.9942 144.02 89.9942C144.155 89.9942 144.291 89.9407 144.392 89.8343C144.588 89.6287 144.58 89.3033 144.374 89.1075L141.47 86.3439L144.384 83.4298C144.584 83.2288 144.584 82.9034 144.383 82.7024ZM136.504 73.9868C133.963 73.9868 131.896 76.0537 131.896 78.5947V93.8146C131.896 96.3555 133.963 98.4225 136.504 98.4225H139.103V103.538C139.103 103.754 139.239 103.946 139.442 104.02C139.499 104.042 139.559 104.052 139.617 104.052C139.767 104.052 139.911 103.987 140.011 103.869L144.59 98.423H151.344C151.344 98.423 151.848 98.3619 151.838 97.8874C151.828 97.4001 151.344 97.3949 151.344 97.3949H144.351C144.199 97.3949 144.055 97.4618 143.957 97.5779L140.131 102.128V97.9085C140.131 97.6247 139.901 97.3944 139.617 97.3944H136.504C134.53 97.3944 132.925 95.7885 132.925 93.8146V78.5947C132.925 76.6207 134.53 75.0149 136.504 75.0149H160.432C162.406 75.0149 164.012 76.6207 164.012 78.5947V93.8146C164.012 95.7885 162.406 97.3944 160.432 97.3944H155.894C155.894 97.3944 155.376 97.4767 155.402 97.8992C155.436 98.4379 155.925 98.4225 155.925 98.4225H160.433C162.973 98.4225 165.041 96.3555 165.041 93.8146V78.5947C165.041 78.477 165.032 78.3618 165.023 78.2467H186.771C189.465 78.2467 191.657 76.0548 191.657 73.3612V60.8272C191.657 58.1336 189.465 55.9417 186.771 55.9417H179.867C179.867 55.9417 179.424 55.9751 179.435 56.4367C179.447 56.9548 179.897 56.9697 179.897 56.9697H186.771C188.898 56.9697 190.628 58.7 190.628 60.8272V73.3612C190.628 75.4883 188.898 77.2186 186.771 77.2186H164.831C164.244 75.348 162.495 73.9868 160.433 73.9868H152.599C152.562 73.7827 152.534 73.5755 152.534 73.3612V60.8272C152.534 58.7 154.265 56.9697 156.392 56.9697H169.194C169.194 56.9697 169.866 56.9219 169.874 56.4495C169.884 55.9129 169.194 55.9417 169.194 55.9417H156.392C153.698 55.9417 151.506 58.1336 151.506 60.8272V73.3612C151.506 73.575 151.53 73.7817 151.56 73.9868H136.504ZM182.882 205.445C183.059 205.576 183.5 205.639 183.683 205.426C183.904 205.168 183.745 204.787 183.596 204.677C182.835 204.118 182.106 203.553 181.415 202.989C181.262 202.865 180.858 202.765 180.673 203.104C180.523 203.379 180.619 203.673 180.782 203.806C181.454 204.358 182.156 204.906 182.882 205.445ZM283.003 247.893C281.968 247.867 280.933 247.847 279.898 247.832C279.895 247.832 279.893 247.832 279.891 247.832C279.61 247.832 279.381 248.058 279.377 248.339C279.373 248.623 279.6 248.856 279.883 248.86C280.915 248.875 281.946 248.895 282.978 248.921C282.982 248.921 282.987 248.921 282.99 248.921C283.268 248.921 283.497 248.699 283.504 248.419C283.512 248.136 283.288 247.9 283.003 247.893ZM277.022 247.805C277.021 247.805 277.021 247.805 277.02 247.805C275.042 247.815 273.038 247.845 271.062 247.893C270.779 247.9 270.555 248.136 270.561 248.419C270.568 248.699 270.797 248.921 271.075 248.921C271.079 248.921 271.083 248.921 271.087 248.921C273.056 248.872 275.054 248.844 277.024 248.833C277.309 248.832 277.537 248.6 277.536 248.317C277.535 248.034 277.305 247.805 277.022 247.805ZM267.067 248.408C267.066 248.691 266.836 248.921 266.553 248.921C266.552 248.921 266.552 248.921 266.552 248.921C252.948 248.9 239.305 248.884 225.641 248.871V261.772C225.641 262.056 225.411 262.286 225.127 262.286H216.814V263.375C216.814 263.659 216.585 263.889 216.3 263.889H215.865C215.902 264.089 215.923 264.293 215.923 264.502C215.923 266.432 214.353 268.002 212.424 268.002C210.494 268.002 208.924 266.432 208.924 264.502C208.924 264.293 208.944 264.088 208.98 263.889H200.626C200.662 264.089 200.683 264.293 200.683 264.502C200.683 266.432 199.113 268.002 197.184 268.002C195.254 268.002 193.684 266.432 193.684 264.502C193.684 264.293 193.705 264.088 193.741 263.889H185.386C185.422 264.089 185.443 264.293 185.443 264.502C185.443 266.432 183.873 268.002 181.944 268.002C180.268 268.002 178.864 266.816 178.525 265.241L169.975 265.314L170.243 266.036C170.302 266.193 170.28 266.368 170.185 266.506C170.09 266.644 169.934 266.728 169.766 266.729L148.33 266.912C148.328 266.912 148.326 266.912 148.325 266.912C148.121 266.912 147.937 266.792 147.855 266.605C147.772 266.418 147.808 266.198 147.948 266.048C149.902 263.943 157.727 260.564 160.319 260.236C160.26 258.884 159.663 254.269 158.907 248.832C141.976 248.829 124.566 248.833 107.644 248.84V261.771C107.644 261.907 107.59 262.037 107.495 262.133C107.362 262.267 107.319 262.311 104.238 262.311C102.74 262.311 100.525 262.301 97.2332 262.285C96.9505 262.284 96.7217 262.055 96.7217 261.771V248.845C94.6152 248.846 92.5071 248.847 90.401 248.848L90.4745 261.773C90.475 261.911 90.4211 262.042 90.3239 262.139C90.1836 262.28 90.1573 262.306 85.9987 262.306C85.0529 262.306 83.8937 262.304 82.4713 262.303C77.9909 262.297 72.0228 262.285 66.0568 262.27C54.1247 262.24 42.2008 262.203 42.2008 262.203C41.9176 262.202 41.6883 261.972 41.6883 261.689V248.893C35.1856 248.902 28.6865 248.91 22.1967 248.92H22.1962C21.9124 248.92 21.6826 248.69 21.6821 248.407C21.6816 248.122 21.9114 247.892 22.1957 247.891C28.686 247.882 35.1862 247.873 41.6888 247.865V233.383C41.6888 233.383 41.7413 232.775 42.1654 232.787C42.738 232.803 42.7169 233.383 42.7169 233.383V261.178C46.8617 261.19 51.9025 261.205 57.1277 261.22V206.054H56.5592H56.4867H42.7164V228.424C42.7164 228.424 42.7041 229.001 42.1834 229.001C41.7125 229.001 41.6883 228.424 41.6883 228.424V206.054H40.2454C39.9617 206.054 39.7314 205.824 39.7314 205.54V200.985C39.7314 200.7 39.9617 200.471 40.2454 200.471H56.4862H56.679H62.7905V179.799C62.7905 179.789 62.7956 179.781 62.7961 179.771L60.7944 179.747C60.5148 179.744 60.2891 179.518 60.2866 179.238L60.2203 172.516C60.2192 172.378 60.2727 172.247 60.3693 172.149C60.466 172.052 60.5971 171.997 60.7343 171.997C60.7343 171.997 60.7348 171.997 60.7353 171.997L66.2721 172.007C66.4649 170.065 67.5382 166.958 70.5773 166.807C70.586 166.806 70.5942 166.806 70.603 166.806H73.1686L62.6795 123.975C62.3839 123.87 62.0955 123.741 61.8236 123.57C60.8587 122.962 60.1874 122.015 59.935 120.903C59.6826 119.79 59.8774 118.647 60.4855 117.681C61.0931 116.716 62.0405 116.046 63.1524 115.793C64.0201 115.595 64.9053 115.675 65.7113 116.006L98.2901 92.7043L97.7627 91.781C96.8323 89.8312 95.9018 85.6978 98.9085 83.7645C100.434 82.7837 102.062 82.4896 103.615 82.9163C105.218 83.3563 106.648 84.5576 107.448 86.1337L110.522 90.6275C118.94 91.5024 123.806 96.5051 124.624 97.4119C125.153 97.5533 125.563 97.9393 125.79 98.5197C126.434 100.167 125.553 102.95 123.649 105.288C122.497 106.701 117.99 111.525 108.366 114.252C106.918 114.662 105.643 114.867 104.549 114.867C103.281 114.867 102.256 114.592 101.481 114.043C100.367 113.252 100.176 112.162 100.146 111.898C97.7437 103.334 99.9577 97.9069 100.557 96.6696L100.316 96.2491L68.1906 118.749C68.2158 118.836 68.243 118.922 68.2636 119.011C68.5165 120.123 68.3211 121.267 67.713 122.232C67.4 122.73 66.9954 123.147 66.5256 123.471L77.4557 166.806H81.0479C81.1368 166.812 86.0409 167.248 87.3363 172.046L97.3879 172.064C97.3298 172.022 97.2707 171.986 97.2132 171.94C96.1188 171.058 95.4762 169.679 95.2906 167.845C95.2582 167.795 95.233 167.74 95.2192 167.679L87.0309 131.706C87.0222 131.669 87.0181 131.63 87.0181 131.592C87.0181 128.715 89.21 126.375 91.9036 126.375H138.235C140.918 126.375 144.072 127.981 144.656 131.508L151.826 163.004C155.035 163.159 157.58 163.284 157.899 163.307C158.164 163.304 158.941 162.899 159.891 162.323C159.809 161.645 159.795 161.226 159.794 161.205C159.79 161.028 159.877 160.863 160.023 160.765C162.928 158.828 174.145 148.159 176.01 144.698C178.93 139.28 182.815 138.243 183.734 138.069L185.284 132.832C185.3 132.773 185.697 131.449 187.719 130.711L187.631 128.734C183.644 128.257 181.65 126.758 181.532 126.666C175.776 122.701 175.807 112.489 176.34 106.737C176.339 106.737 176.338 106.737 176.337 106.736C176.241 106.693 173.997 105.633 173.387 103.264C172.952 101.578 173.459 99.7004 174.894 97.6823C174.678 97.3574 173.986 96.6825 173.51 96.2172C172.031 94.7743 171.273 93.9899 171.575 93.3103C172.631 90.9359 175.752 91.2582 178.03 91.4937C179.034 91.5975 180.172 91.7147 180.539 91.4998C190.738 85.521 200.08 88.0156 205.423 92.3434C211.668 97.4021 212.88 110.931 207.869 119.656C204.773 125.045 201.436 127.282 198.278 128.166L198.435 129.32C200.068 129.349 200.54 129.975 200.906 130.675L200.931 130.724C201.453 131.716 201.737 132.368 201.988 132.942C202.109 133.219 202.225 133.475 202.348 133.735C203.597 133.823 206.947 134.536 210.006 139.379C210.81 140.652 211.652 144.631 212.478 150.087H213.209H217.643C220.336 150.087 222.528 152.279 222.528 154.972V158.902C222.528 158.902 222.506 159.583 222.024 159.583C221.544 159.583 221.5 158.902 221.5 158.902V154.972C221.5 152.845 219.77 151.115 217.643 151.115H213.095H192.978C190.851 151.115 189.121 152.845 189.121 154.972V176.625C189.121 178.752 190.851 180.482 192.978 180.482H203.204V171.249C200.609 171.136 198.531 168.996 198.531 166.374V165.223C198.531 162.529 200.723 160.337 203.417 160.337H208.049C210.743 160.337 212.935 162.529 212.935 165.223V166.374C212.935 168.913 210.986 170.996 208.507 171.229V180.482H212.04H217.643C219.77 180.482 221.501 178.752 221.501 176.625V163.803C221.501 163.803 221.544 163.288 222.006 163.288C222.391 163.288 222.529 163.803 222.529 163.803V172.069H228.061C228.346 172.069 228.575 172.298 228.575 172.583V179.693C228.575 179.977 228.346 180.207 228.061 180.207H225.644V247.844C229.059 247.847 232.467 247.851 235.879 247.855L232.393 218.974C232.376 218.828 232.421 218.682 232.519 218.572C232.616 218.461 232.757 218.399 232.904 218.399H233.373C226.227 208.945 230.513 199.765 230.559 199.67C230.667 199.447 230.919 199.331 231.16 199.399C236.791 200.976 239.386 204.388 240.467 206.398C241.437 202.852 243.402 199.078 247.143 195.812C247.247 195.72 247.384 195.675 247.521 195.686C247.659 195.697 247.787 195.764 247.875 195.869C247.931 195.936 251.462 200.262 253.033 206.7C254.122 204.768 256.599 201.687 261.776 200.238C262.017 200.17 262.269 200.286 262.377 200.509C262.42 200.599 266.513 209.381 259.634 218.399H261.077C261.223 218.399 261.362 218.461 261.46 218.57C261.557 218.679 261.603 218.824 261.588 218.969L258.396 247.882C261.115 247.885 263.839 247.888 266.555 247.893C266.837 247.893 267.067 248.124 267.067 248.408ZM124.832 98.8934C124.661 98.457 124.392 98.404 124.289 98.3886C120.898 98.0288 117.891 98.4647 115.258 99.3673C116.458 101.139 116.719 103.028 115.944 104.625C115.173 106.212 113.466 107.279 111.696 107.279C109.175 107.279 107.66 105.386 107.038 104.393C103.484 107.676 101.553 111.182 101.184 111.891C101.235 112.144 101.422 112.751 102.096 113.22C102.908 113.784 104.606 114.248 108.085 113.264C117.42 110.618 121.747 105.993 122.851 104.638C124.706 102.361 125.256 99.9791 124.832 98.8934ZM107.822 103.696C108.268 104.447 109.562 106.25 111.696 106.25C113.081 106.25 114.417 105.416 115.019 104.176C115.665 102.844 115.389 101.278 114.266 99.7385C111.751 100.747 109.606 102.171 107.822 103.696ZM98.6725 91.3045L101.164 95.6626C102 94.4273 102.902 93.4902 103.802 92.7752C103.981 92.6328 104.361 92.5285 104.543 92.8199C104.765 93.1756 104.57 93.4764 104.413 93.6013C103.444 94.3785 102.467 95.4457 101.585 96.9138C101.52 97.031 98.8355 102.048 100.826 110.435C102.921 106.937 110.183 96.6609 123.003 97.2592C121.096 95.5187 116.377 91.9666 109.338 91.5636C108.959 91.5939 108.469 91.6618 107.896 91.8144C107.752 91.853 107.476 91.6736 107.391 91.3554C107.324 91.104 107.517 90.8537 107.658 90.8167C108.17 90.682 108.626 90.6064 109.01 90.5643C109.071 90.5391 109.137 90.5268 109.206 90.5278L106.578 86.6863C106.564 86.6673 106.552 86.6467 106.542 86.6262C105.875 85.2912 104.678 84.2754 103.341 83.9084C102.971 83.8066 102.594 83.7562 102.215 83.7562C101.298 83.7562 100.363 84.0508 99.4626 84.6301C96.459 86.5609 98.6499 91.2572 98.6725 91.3045ZM99.7361 95.3994L98.7687 93.6254L66.6937 116.566C67.1337 116.902 67.4981 117.315 67.7747 117.785L99.7361 95.3994ZM62.371 122.699C63.1035 123.161 63.9733 123.31 64.8169 123.117C65.6614 122.926 66.3806 122.416 66.8417 121.683C67.3028 120.951 67.4519 120.082 67.2596 119.237C67.0674 118.393 66.5585 117.674 65.8254 117.212C65.3016 116.882 64.7089 116.713 64.1044 116.713C63.8633 116.713 63.6207 116.74 63.3796 116.795C62.535 116.986 61.8159 117.496 61.3548 118.229C60.8937 118.961 60.7446 119.83 60.9368 120.675C61.1291 121.519 61.638 122.238 62.371 122.699ZM63.7944 124.207L74.1854 166.636L76.3701 166.711L65.5859 123.954C65.4101 124.019 65.2307 124.078 65.0446 124.12C64.7274 124.192 64.4072 124.227 64.09 124.227C63.9908 124.228 63.8931 124.214 63.7944 124.207ZM67.3223 171.936H86.2326C84.9912 168.201 81.1764 167.846 81.0063 167.833L70.6164 167.834C68.135 167.967 67.4863 170.746 67.3223 171.936ZM40.7595 205.026H55.9722V201.499H40.7595V205.026ZM222.527 173.096V176.624C222.527 177.561 222.257 178.434 221.798 179.178H227.545V173.096H222.527ZM217.641 181.51H216.002C217.319 195.923 218.238 208.726 218.322 209.893C218.337 210.099 218.227 210.294 218.043 210.388C217.275 210.781 216.51 211.128 215.748 211.442V215.88H217.642H217.873C217.87 215.883 217.867 215.887 217.864 215.891C218.168 215.905 218.464 215.945 218.751 216.012V181.378C218.393 181.461 218.023 181.51 217.641 181.51ZM221.498 222.038V220.764C221.498 218.637 219.768 216.907 217.641 216.907H217.146H209.153C208.877 216.907 208.854 216.907 208.505 216.907V225.895H214.735H217.642C219.768 225.895 221.498 224.165 221.498 222.038ZM215.786 262.861V262.227C215.786 261.362 215.082 260.657 214.217 260.657H180.2C179.334 260.657 178.63 261.362 178.63 262.227V262.861H215.786ZM183.272 259.629H194.771V248.847C191.852 248.846 188.934 248.844 186.014 248.842V254.323C186.014 254.547 185.785 254.728 185.5 254.728H185.5H183.369C183.152 256.863 182.982 258.295 182.932 258.712L183.272 259.629ZM168.596 261.598C171.219 260.381 173.993 259.38 175.345 259.21C175.289 257.944 174.763 253.819 174.076 248.837C172.372 248.836 170.668 248.835 168.964 248.835C168.507 254.669 168 258.963 167.906 259.74L168.596 261.598ZM173.934 247.809C173.37 243.755 172.717 239.246 172.13 235.285C171.455 235.148 170.896 234.996 170.478 234.841C170.223 234.945 169.962 235.044 169.689 235.133C169.583 239.599 169.329 243.99 169.043 247.806C170.674 247.807 172.303 247.808 173.934 247.809ZM185.588 233.998C185.625 233.036 185.661 231.729 185.694 230.284C185.125 229.701 184.772 228.906 184.772 228.029V226.924H177.035C174.341 226.924 172.149 224.732 172.149 222.039V220.765C172.149 219.837 172.414 218.972 172.865 218.232C172.268 218.185 171.775 218.145 171.437 218.116L172.144 233.654C172.152 233.836 172.064 234.008 171.911 234.108C171.881 234.128 171.846 234.146 171.814 234.166C174.289 234.726 179.748 235.39 185.588 233.998ZM208.505 215.879H208.901C210.54 214.997 211.523 213.886 212.566 212.546C211.195 212.935 209.84 213.209 208.505 213.381V215.879ZM214.719 215.879V211.842C214.573 211.897 214.425 211.957 214.279 212.008C214.138 212.19 213.999 212.372 213.863 212.548C212.894 213.813 212.034 214.932 210.799 215.879H214.719ZM207.477 166.032H204.23V225.895H207.477V166.032ZM198.619 259.629V231.26H195.799V259.629H198.619ZM206.414 230.232C207.629 230.232 208.618 229.243 208.618 228.029V227.046H185.8V228.029C185.8 229.243 186.788 230.232 188.003 230.232H206.414ZM186.014 247.814C188.934 247.815 191.852 247.817 194.771 247.819V231.26H188.003C187.542 231.26 187.103 231.16 186.706 230.986C186.672 232.363 186.636 233.574 186.599 234.428C186.589 234.654 186.431 234.848 186.211 234.904C186.146 234.92 186.08 234.933 186.014 234.949V247.814V247.814ZM199.647 247.823C204.673 247.826 209.698 247.829 214.719 247.833V226.924H209.646V228.028C209.646 229.81 208.196 231.26 206.414 231.26H199.647V247.823ZM203.201 216.907H191.541C189.414 216.907 187.683 218.638 187.683 220.765V222.039C187.683 224.166 189.414 225.896 191.541 225.896H203.201V216.907ZM188.554 216.907H177.036C174.908 216.907 173.178 218.638 173.178 220.765V222.039C173.178 224.166 174.908 225.896 177.036 225.896H188.554C187.402 225.002 186.656 223.607 186.656 222.039V220.765C186.655 219.196 187.402 217.802 188.554 216.907ZM184.685 235.239C184.476 242.388 183.907 249.239 183.471 253.701H184.986V235.181C184.885 235.201 184.785 235.219 184.685 235.239ZM214.719 259.68V248.862C209.698 248.857 204.673 248.854 199.647 248.851V259.63H214.217C214.389 259.629 214.556 259.648 214.719 259.68ZM208.505 181.51V212.339C211.491 211.939 214.418 211.046 217.271 209.625C217.113 207.439 216.21 195.18 214.962 181.511H212.206H208.505V181.51ZM203.201 170.22V165.518C203.201 165.234 203.431 165.004 203.716 165.004H207.991C208.275 165.004 208.505 165.234 208.505 165.518V170.201C210.417 169.974 211.904 168.345 211.904 166.373V165.222C211.904 163.095 210.174 161.365 208.047 161.365H203.414C201.287 161.365 199.557 163.095 199.557 165.222V166.373C199.557 168.429 201.174 170.108 203.201 170.22ZM189.989 151.114H186.625C184.497 151.114 182.767 152.845 182.767 154.972V176.625C182.767 178.752 184.497 180.482 186.625 180.482H189.989C188.837 179.587 188.091 178.193 188.091 176.625V154.972C188.091 153.403 188.837 152.009 189.989 151.114ZM177.111 102.326C177.347 102.176 182.926 98.7022 185.323 102.305C187.145 105.045 186.632 108.153 186.256 110.423C186.05 111.676 185.854 112.859 186.199 113.318C186.471 113.678 186.727 113.846 186.951 113.811C187.584 113.716 188.371 112.324 188.703 111.413C188.714 111.382 188.728 111.352 188.745 111.324C189.657 109.807 191.557 108.948 193.068 109.368C194.013 109.63 195.599 110.599 195.599 114.136C195.599 116.075 195.043 117.474 193.946 118.295C192.805 119.147 191.38 119.136 190.519 119.025C191.43 124.584 193.176 126.873 193.999 127.672C197.946 127.662 202.692 126.602 206.976 119.143C211.767 110.802 210.676 97.9229 204.773 93.1417C199.698 89.0304 190.803 86.6735 181.057 92.3866C180.399 92.7726 179.307 92.6595 177.922 92.5161C175.778 92.2946 173.353 92.0442 172.554 93.6398C172.712 94.0038 173.653 94.9213 174.226 95.4811C175.562 96.7842 176.298 97.5024 175.846 98.1177C174.507 99.941 174.014 101.586 174.381 103.007C174.748 104.432 175.894 105.287 176.453 105.629C176.642 103.96 176.846 102.841 176.88 102.665C176.907 102.525 176.991 102.402 177.111 102.326ZM188.734 130.427C188.827 130.408 188.915 130.386 189.014 130.37C191.745 129.905 195.146 129.496 197.4 129.356L197.271 128.406C196.124 128.632 195.006 128.7 193.94 128.7C193.843 128.7 193.757 128.666 193.679 128.619C193.229 128.682 192.787 128.736 192.362 128.775C192.138 128.796 191.775 128.654 191.744 128.3C191.72 128.028 191.986 127.777 192.201 127.759C192.447 127.737 192.698 127.712 192.954 127.681C191.832 126.575 190.192 124.053 189.391 118.452C189.366 118.279 189.431 118.105 189.563 117.991C189.696 117.876 189.876 117.836 190.045 117.886C190.063 117.892 192.03 118.446 193.333 117.467C194.154 116.85 194.57 115.729 194.57 114.135C194.57 112.018 193.938 110.676 192.792 110.357C191.734 110.064 190.334 110.715 189.65 111.813C189.437 112.382 188.515 114.617 187.102 114.827C186.669 114.892 186.019 114.788 185.377 113.935C184.767 113.124 184.977 111.858 185.241 110.255C185.608 108.037 186.064 105.277 184.466 102.874C182.832 100.418 178.778 102.547 177.85 103.081C177.498 105.165 175.091 120.981 182.139 125.837C182.187 125.873 184.508 127.601 189.18 127.822C189.38 127.831 189.82 127.906 189.775 128.395C189.741 128.756 189.24 128.865 189.019 128.854C188.896 128.848 188.782 128.837 188.663 128.828L188.734 130.427ZM184.776 138.164C190.04 139.1 199.171 135.191 201.392 134.189C201.394 134.173 201.394 134.157 201.398 134.141C201.272 133.874 201.159 133.618 201.044 133.353C200.8 132.794 200.523 132.16 200.02 131.202L199.993 131.15C199.739 130.666 199.551 130.282 198.011 130.352C195.83 130.45 192.119 130.884 189.187 131.383C186.71 131.805 186.285 133.068 186.268 133.122L184.776 138.164ZM160.836 161.451C160.949 163.067 161.869 171.413 168.794 173.82C169.967 173.102 175.905 169.384 177.202 167.049C177.237 166.987 178.561 164.698 178.561 164.698C178.699 164.45 179.012 164.36 179.26 164.498C179.508 164.636 179.597 164.949 179.46 165.197L178.162 167.533C178.109 170.911 177.612 191.803 173.494 194.727C173.927 195.546 175.564 197.61 178.102 200.052C178.29 200.233 178.644 200.607 178.266 200.988C178.051 201.204 177.636 201.022 177.437 200.829C175.602 199.058 174.179 197.43 173.313 196.243C171.513 196.407 157.555 197.763 153.236 200.752C148.984 203.695 148.207 208.532 150.858 215.539C153.307 222.009 154.914 232.668 155.228 234.858C157.285 235.066 166.884 235.882 171.104 233.399L170.399 217.878L160.825 216.227C160.546 216.179 160.358 215.913 160.407 215.633C160.455 215.354 160.72 215.168 161 215.215L171.628 217.047C171.691 217.057 171.749 217.083 171.801 217.114C172.255 217.151 172.883 217.202 173.639 217.26C174.519 216.407 175.716 215.878 177.036 215.878H191.542H203.203V213.541C196.833 213.152 191.088 210.704 186.476 207.871C186.311 207.77 185.921 207.523 186.051 207.119C186.201 206.65 186.72 206.803 186.866 206.894C188.441 207.873 190.113 208.792 191.872 209.585C195.719 211.32 199.499 212.275 203.203 212.508V181.51H192.977H186.626C183.932 181.51 181.74 179.318 181.74 176.625V154.972C181.74 152.278 183.932 150.086 186.626 150.086H192.977H211.456C210.671 144.877 209.88 141.106 209.136 139.928C206.507 135.766 203.746 134.942 202.547 134.787L202.335 134.888C201.905 135.094 192.95 139.333 186.56 139.333C185.661 139.333 184.815 139.248 184.048 139.057C183.949 139.07 179.885 139.673 176.915 145.184C174.994 148.748 164.191 159.06 160.836 161.451ZM173.285 172.068H176.993C177.044 170.959 177.082 169.878 177.108 168.85C176.109 169.922 174.669 171.068 173.285 172.068ZM157.824 164.332C156.923 164.268 137.133 163.331 136.933 163.321C136.896 163.319 136.858 163.313 136.822 163.304C136.769 163.29 131.468 161.887 129.176 164.851C127.759 166.682 127.938 167.269 127.963 167.33C127.998 167.413 128.098 167.43 128.118 167.433L137.052 167.831C137.099 167.833 137.145 167.842 137.19 167.856C137.358 167.911 153.957 173.36 159.855 173.36H159.916C161.983 173.347 163.541 173.012 164.703 172.595C161.648 169.878 160.49 165.889 160.054 163.423C159.158 163.94 158.329 164.334 157.875 164.334C157.857 164.334 157.841 164.333 157.824 164.332ZM147.148 171.916C142.131 170.548 137.621 169.08 136.935 168.855L133.247 168.691C133.916 169.511 134.241 170.594 134.216 171.916L147.148 171.916ZM137.036 162.297C137.716 162.329 142.561 162.559 147.413 162.792L140.936 133.666C140.47 130.85 137.398 129.81 135.57 129.81H95.1637C93.6061 129.81 91.7514 130.273 91.72 132.469L99.0283 164.068H128.501C131.153 160.907 136.393 162.131 137.036 162.297ZM96.129 167.05H126.923C126.963 166.521 127.239 165.871 127.742 165.095H98.6191C98.38 165.095 98.1719 164.93 98.1184 164.698L90.7043 132.642C90.6956 132.604 90.6909 132.566 90.6909 132.526C90.6909 130.182 92.3626 128.782 95.1631 128.782H135.57C137.735 128.782 141.38 130.055 141.945 133.471L148.478 162.842C149.252 162.879 150.016 162.916 150.758 162.952L143.646 131.706C143.152 128.724 140.573 127.402 138.233 127.402H91.9015C89.7919 127.402 88.0724 129.251 88.0446 131.535L96.129 167.05ZM97.8567 171.139C99.0684 172.114 100.556 171.923 100.57 171.92C100.594 171.917 100.617 171.915 100.641 171.915H133.189C133.215 170.695 132.894 169.747 132.231 169.099C132.028 168.9 131.802 168.744 131.571 168.615L128.045 168.458C127.84 168.443 127.508 168.346 127.255 168.089L96.349 168.089C96.5444 169.465 97.0502 170.489 97.8567 171.139ZM61.3095 178.725L99.2879 179.173V173.095L61.2535 173.026L61.3095 178.725ZM89.2069 219.592H58.4838C58.3574 219.592 58.2453 219.541 58.1553 219.465V232.835H89.0403C89.1298 232.835 89.2094 232.863 89.2824 232.903L89.2069 219.592ZM58.1553 247.106H89.3637L89.2881 233.791C89.2136 233.833 89.1323 233.863 89.0408 233.863H58.1558L58.1553 247.106ZM91.0528 205.026V201.499H57.0907C57.0512 202.556 57.0907 205.026 57.0907 205.026H91.0528ZM71.2543 200.47V179.87L68.6182 179.839V200.47H71.2543V200.47ZM63.8181 179.799V200.471H67.5896V179.828L63.815 179.783C63.8155 179.788 63.8181 179.793 63.8181 179.799ZM58.1553 206.054V218.691C58.2448 218.615 58.3568 218.564 58.4838 218.564H89.2012L89.1298 206.054H58.1553V206.054ZM89.4444 261.273L89.3693 248.134H58.1553V261.223C71.9102 261.26 86.614 261.292 89.4444 261.273ZM96.7222 247.817V180.17L72.2824 179.883V200.47H91.5669C91.8506 200.47 92.0809 200.7 92.0809 200.984V205.54C92.0809 205.824 91.8506 206.054 91.5669 206.054H90.1579L90.3954 247.82C92.504 247.82 94.6136 247.819 96.7222 247.817ZM97.7503 261.26C98.6905 261.264 99.7253 261.269 100.753 261.272V180.206H99.8014C99.7993 180.206 99.7973 180.206 99.7952 180.206L97.7498 180.182V261.26H97.7503ZM106.617 261.273V180.206H101.781V261.274C103.859 261.279 105.765 261.28 106.617 261.273ZM158.765 247.804C158.223 243.936 157.614 239.742 157.066 236.049C155.734 235.958 154.842 235.853 154.712 235.837C154.48 235.808 154.295 235.627 154.264 235.395C154.248 235.272 152.579 222.995 149.896 215.903C147.053 208.391 147.954 203.159 152.649 199.908C156.926 196.947 169.444 195.58 172.669 195.271C172.458 194.901 172.352 194.624 172.369 194.468C172.391 194.252 172.521 194.074 172.715 193.993C174.528 193.238 175.724 187.085 176.411 180.207H147.145C147.145 180.207 146.631 180.187 146.61 179.728C146.585 179.164 147.129 179.179 147.129 179.179H176.51C176.696 177.154 176.84 175.09 176.943 173.097H171.815C170.376 174.07 169.238 174.755 169.121 174.825C168.993 174.901 168.839 174.92 168.699 174.873C167.535 174.497 166.528 173.968 165.649 173.342C164.331 173.899 162.476 174.372 159.922 174.389H159.856C157.92 174.389 154.944 173.844 151.77 173.097H100.315V179.179H133.8C133.8 179.179 134.319 179.163 134.32 179.726C134.32 180.157 133.785 180.207 133.785 180.207H107.645V247.813C124.516 247.806 141.879 247.802 158.765 247.804ZM169.026 265.707L166.899 259.981C166.87 259.904 166.86 259.82 166.87 259.738C166.886 259.613 168.34 247.846 168.654 235.427C166.311 236.015 163.539 236.191 161.084 236.191C160.012 236.191 159.003 236.158 158.114 236.112C158.478 238.571 159.115 242.92 159.725 247.259C161.63 260.803 161.469 260.905 161.078 261.153C160.944 261.238 160.77 261.254 160.62 261.204H160.618C159.655 261.204 152.857 263.651 149.737 265.871L169.026 265.707ZM169.595 264.289L178.459 264.214C178.469 264.104 178.483 263.996 178.502 263.89H178.116C177.832 263.89 177.602 263.66 177.602 263.376V262.228C177.602 260.795 178.767 259.63 180.2 259.63H182.174L181.924 258.954C181.895 258.877 181.885 258.793 181.895 258.711C181.911 258.59 183.285 247.456 183.65 235.421C181.795 235.713 179.951 235.836 178.238 235.836C176.337 235.836 174.604 235.689 173.196 235.474C173.567 237.987 174.171 242.115 174.75 246.233C176.655 259.776 176.493 259.879 176.102 260.126C175.969 260.211 175.796 260.229 175.645 260.178H175.643C175.015 260.178 171.905 261.219 168.952 262.559L169.595 264.289ZM184.332 263.889H179.558C179.505 264.085 179.474 264.29 179.474 264.502C179.474 265.865 180.582 266.973 181.945 266.973C183.308 266.973 184.417 265.865 184.417 264.502C184.416 264.29 184.384 264.086 184.332 263.889ZM199.571 263.889H194.797C194.745 264.086 194.713 264.29 194.713 264.502C194.713 265.865 195.821 266.973 197.185 266.973C198.547 266.973 199.656 265.865 199.656 264.502C199.655 264.29 199.623 264.086 199.571 263.889ZM214.811 263.889H210.036C209.982 264.085 209.953 264.29 209.953 264.502C209.953 265.865 211.061 266.973 212.424 266.973C213.787 266.973 214.895 265.865 214.895 264.502C214.895 264.29 214.865 264.085 214.811 263.889ZM216.623 261.258H218.75V226.791C218.393 226.875 218.023 226.924 217.641 226.924H215.747V260.139C216.134 260.423 216.441 260.807 216.623 261.258ZM224.613 261.258V180.206H220.952C220.603 180.529 220.209 180.8 219.779 181.01V216.378C221.402 217.173 222.527 218.838 222.527 220.765V222.039C222.527 223.965 221.403 225.63 219.779 226.425V261.258L224.613 261.258ZM253.38 208.351C253.918 211.378 253.969 214.79 253.057 218.399H258.335C264.626 210.747 262.307 203.157 261.616 201.356C255.847 203.14 253.846 207.188 253.38 208.351ZM241.264 218.398H251.997C254.8 207.83 248.892 198.955 247.409 196.95C238.541 205.08 240.738 216.253 241.264 218.398ZM234.672 218.398H240.209C239.858 216.849 239.154 212.765 240.082 208.036C239.696 207.01 237.658 202.467 231.316 200.517C230.602 202.366 228.13 210.334 234.672 218.398ZM236.913 247.856C243.737 247.863 250.552 247.871 257.36 247.88L260.502 219.426H233.482L236.913 247.856ZM142.442 179.178H138.213C138.213 179.178 137.756 179.252 137.77 179.682C137.785 180.171 138.259 180.206 138.259 180.206H142.503C142.503 180.206 142.931 180.094 142.92 179.685C142.907 179.224 142.442 179.178 142.442 179.178ZM74.0024 213.759C74.866 213.759 75.5661 213.059 75.5661 212.196C75.5661 211.332 74.866 210.632 74.0024 210.632C73.1388 210.632 72.4386 211.332 72.4386 212.196C72.4386 213.059 73.1388 213.759 74.0024 213.759ZM74.0024 227.474C74.866 227.474 75.5661 226.774 75.5661 225.91C75.5661 225.047 74.866 224.347 74.0024 224.347C73.1388 224.347 72.4386 225.047 72.4386 225.91C72.4386 226.774 73.1388 227.474 74.0024 227.474ZM74.0024 238.903C73.1388 238.903 72.4386 239.603 72.4386 240.467C72.4386 241.33 73.1388 242.03 74.0024 242.03C74.866 242.03 75.5661 241.33 75.5661 240.467C75.5666 239.603 74.8665 238.903 74.0024 238.903ZM74.0024 252.978C73.1388 252.978 72.4386 253.678 72.4386 254.542C72.4386 255.405 73.1388 256.105 74.0024 256.105C74.866 256.105 75.5661 255.405 75.5661 254.542C75.5666 253.679 74.8665 252.978 74.0024 252.978ZM116.724 134.166C116.724 133.883 116.494 133.652 116.21 133.652H99.1707C98.8869 133.652 98.6566 133.883 98.6566 134.166C98.6566 134.45 98.8869 134.68 99.1707 134.68H116.21C116.495 134.68 116.724 134.45 116.724 134.166ZM126.71 137.006C126.71 136.723 126.48 136.492 126.196 136.492H99.9037C99.6199 136.492 99.3896 136.723 99.3896 137.006C99.3896 137.29 99.6199 137.52 99.9037 137.52H126.196C126.48 137.52 126.71 137.29 126.71 137.006ZM127.443 139.846C127.443 139.562 127.213 139.332 126.929 139.332H100.637C100.353 139.332 100.123 139.562 100.123 139.846C100.123 140.13 100.353 140.36 100.637 140.36H126.929C127.213 140.36 127.443 140.13 127.443 139.846ZM127.662 142.172H101.37C101.086 142.172 100.856 142.402 100.856 142.686C100.856 142.97 101.086 143.2 101.37 143.2H127.662C127.946 143.2 128.176 142.97 128.176 142.686C128.176 142.402 127.946 142.172 127.662 142.172ZM126.339 145.012H102.102C101.818 145.012 101.588 145.242 101.588 145.526C101.588 145.81 101.818 146.04 102.102 146.04H126.339C126.622 146.04 126.853 145.81 126.853 145.526C126.853 145.242 126.623 145.012 126.339 145.012ZM119.875 147.852H102.835C102.551 147.852 102.321 148.083 102.321 148.366C102.321 148.65 102.551 148.88 102.835 148.88H119.875C120.159 148.88 120.389 148.65 120.389 148.366C120.389 148.083 120.159 147.852 119.875 147.852Z" fill="#262626"/>
</svg>
