<svg width="306" height="307" viewBox="0 0 306 307" fill="none" xmlns="http://www.w3.org/2000/svg">
<path fill-rule="evenodd" clip-rule="evenodd" d="M35.7437 158.082L48.0744 170.845C45.0769 173.797 41.6406 175.71 38.5759 176.42C35.5042 177.133 32.8811 176.653 31.2618 174.976C29.6433 173.301 29.2279 170.629 30.0079 167.539C30.7843 164.458 32.7582 161.036 35.7437 158.082ZM54.2136 156.745L54.8876 157.593L48.718 162.599L47.9621 161.818L54.2136 156.745ZM48.5781 151.063L49.2528 151.909L43.1637 156.85L42.4078 156.068L48.5781 151.063ZM276.798 117.391H273.422C273.298 117.391 273.221 117.314 273.221 117.189V115.376C273.221 115.251 273.298 115.174 273.422 115.174H276.798C276.922 115.174 276.999 115.251 276.999 115.376V117.189C276.999 117.314 276.922 117.391 276.798 117.391ZM227.353 90.106H216.63V60.9197H227.353V90.106ZM149.826 90.106H139.104V60.9197H149.826V90.106ZM222.071 74.5828C219.743 74.5828 217.855 76.522 217.855 78.8774C217.855 81.2328 219.742 83.1735 222.071 83.1735C224.401 83.1735 226.288 81.2328 226.288 78.8774C226.288 76.5213 224.4 74.5828 222.071 74.5828ZM144.546 74.5828C142.217 74.5828 140.329 76.522 140.329 78.8774C140.329 81.2328 142.217 83.1735 144.546 83.1735C146.875 83.1735 148.763 81.2328 148.763 78.8774C148.763 76.5213 146.875 74.5828 144.546 74.5828ZM222.071 63.0737C219.743 63.0737 217.855 65.013 217.855 67.3683C217.855 69.7237 219.743 71.6622 222.071 71.6622C224.4 71.6622 226.288 69.7237 226.288 67.3683C226.288 65.013 224.4 63.0737 222.071 63.0737ZM144.546 63.0737C142.217 63.0737 140.329 65.0122 140.329 67.3683C140.329 69.7237 142.217 71.6622 144.546 71.6622C146.875 71.6622 148.763 69.7237 148.763 67.3683C148.763 65.013 146.875 63.0737 144.546 63.0737Z" fill="#FFD2BB"/>
<path fill-rule="evenodd" clip-rule="evenodd" d="M252.429 188.772C252.493 188.758 252.772 188.79 253.152 189.04C253.534 189.291 254.005 189.726 254.483 190.275C255.438 191.372 256.447 192.929 257.215 194.441C257.393 194.79 257.835 194.928 258.18 194.741C258.863 194.371 259.585 193.967 259.654 193.849C259.654 193.849 260.646 192.157 261.949 190.747C262.599 190.044 263.335 189.42 263.971 189.124C264.622 188.822 265.043 188.794 265.549 189.157C267.967 190.893 270.187 193.581 271.38 196.285C272.573 198.99 272.731 201.609 271.344 203.468C267.024 209.259 262.373 214.86 261.195 216.27L250.444 206.404C251.044 205.416 252.444 202.999 253.618 200.089L253.619 200.087C253.655 199.998 253.672 199.901 253.669 199.803C253.638 198.786 253.222 197.752 252.792 196.727C252.362 195.702 251.901 194.678 251.698 193.849C251.359 192.467 251.142 191.153 251.244 190.26C251.295 189.812 251.419 189.481 251.592 189.255C251.773 189.023 251.994 188.869 252.429 188.772ZM162.707 138.757C162.834 138.58 162.948 138.5 162.948 138.5C162.951 138.5 162.966 138.509 163.013 138.559C164.125 139.72 165.339 141.749 167.485 144.048C169.631 146.348 172.725 148.92 177.646 151.215C181.52 153.022 186.323 152.493 190.013 150.846C191.131 151.094 192.519 151.997 193.574 153.246C194.642 154.51 195.375 156.103 195.375 157.619C195.375 160.818 193.47 163.383 191.17 163.865H191.169V163.866C190.849 163.934 190.616 164.217 190.61 164.544L190.228 185.213C187.798 186.951 185.424 187.858 183.081 187.872C180.738 187.885 178.377 187.006 175.954 185.223V173.282C175.954 172.897 175.634 172.576 175.248 172.576H170.381C164.618 172.576 159.962 167.92 159.962 162.158V144.377C160.169 144.292 160.314 144.147 160.401 144.042C160.517 143.902 160.608 143.749 160.691 143.589C161.023 142.944 161.318 142.015 161.655 141.082C161.993 140.149 162.385 139.21 162.707 138.757Z" fill="#FFD2BB"/>
<path fill-rule="evenodd" clip-rule="evenodd" d="M213.792 184.62C213.73 184.582 212.864 184.483 212.745 184.601C210.325 182.125 206.954 180.583 203.224 180.583H191.723L192.012 164.993C194.801 164.084 196.786 161.134 196.786 157.619C196.786 155.661 195.889 153.797 194.653 152.334C193.797 151.321 192.772 150.494 191.701 149.967C192.225 149.652 192.713 149.313 193.155 148.955C193.316 148.825 193.415 148.629 193.423 148.444C193.432 148.258 193.364 148.091 193.258 147.961C193.154 147.832 193.003 147.732 192.82 147.702C192.637 147.672 192.427 147.728 192.267 147.858C190.683 149.144 188.279 150.198 185.722 150.654C183.164 151.109 180.456 150.969 178.242 149.936C168.716 145.493 166.649 140.314 164.033 137.583C163.658 137.191 163.129 136.97 162.612 137.108C162.133 137.236 161.809 137.583 161.557 137.938C161.046 138.655 160.676 139.645 160.328 140.602C160.108 141.211 159.917 141.725 159.741 142.167C159.723 142.04 159.71 141.978 159.692 141.85C159.573 141.002 159.476 140.104 159.476 139.81C159.476 130.359 169.279 122.515 181.551 122.515C193.821 122.515 203.624 130.359 203.624 139.81C203.624 139.891 203.623 139.977 203.622 140.066C203.503 147.449 205.745 154.676 210.023 160.694C211.31 162.507 212.436 164.542 213.343 166.76C215.42 171.833 214.739 179.67 213.792 184.62ZM167.462 180.583C166.769 180.583 166.083 180.634 165.406 180.728C165.881 179.921 166.726 178.384 167.138 176.905C167.556 175.408 167.801 174.289 167.921 173.725C168.716 173.894 169.537 173.987 170.382 173.987H174.543V180.584L167.462 180.583ZM119.723 168.903C122.056 168.903 124.244 169.454 126.251 170.349L123.391 176.784C122.267 176.28 121.042 175.943 119.723 175.943C118.311 175.943 117.008 176.325 115.824 176.897L112.96 170.456C115.028 169.495 117.297 168.903 119.723 168.903ZM119.723 158.011C123.632 158.011 127.317 158.9 130.676 160.396L128.867 164.468C126.065 163.22 122.987 162.464 119.723 162.464C116.366 162.464 113.21 163.264 110.348 164.578L108.537 160.503C111.957 158.941 115.722 158.011 119.723 158.011ZM119.723 145.185C125.488 145.185 130.951 146.438 135.9 148.641L132.992 155.184C128.933 153.378 124.449 152.345 119.723 152.345C114.904 152.345 110.342 153.419 106.221 155.293L103.31 148.748C108.322 146.477 113.865 145.185 119.723 145.185ZM244.852 117.37H240.723V116.454H244.852V117.37ZM253.339 117.37H249.209V116.454H253.339V117.37ZM58.132 84.1287C58.0974 84.0475 57.5548 83.3997 57.292 83.3919C56.7742 83.3749 56.4082 83.9479 56.6385 84.4113C56.6385 84.4113 56.6901 84.5025 56.7035 84.53C56.5651 84.7752 56.1066 85.4371 55.5223 86.2319C55.4997 86.1938 55.4997 86.1754 55.4729 86.1379C55.061 85.5685 54.6428 85.1015 54.1263 84.8218C53.571 84.5222 52.8455 84.542 52.3333 85.0012C51.6304 85.63 51.2538 86.3534 51.2503 87.0669C51.2468 87.7854 51.636 88.4135 52.2047 88.7702C53.0143 89.2775 54.1221 89.1376 55.1345 88.5067C55.6142 89.339 56.0924 90.1422 56.5354 91.1715C57.6608 93.7897 58.4358 96.0999 58.7799 97.1504C57.2567 97.3206 55.7343 98.0342 54.2641 99.3192C47.7709 97.3115 42.8779 91.6088 42.8779 83.6702C42.8779 78.5158 44.6208 73.2152 47.6438 69.2455C50.6675 65.2745 54.9211 62.6379 60.0487 62.6379C65.1762 62.6379 69.4292 65.2738 72.4522 69.2455C75.4751 73.2159 77.2194 78.5158 77.2194 83.6702C77.2194 92.0914 72.1208 97.452 65.0024 99.1603C64.9438 99.1744 64.895 99.209 64.8421 99.2366C63.7159 98.3415 62.5446 97.6901 61.3337 97.3553C61.6227 96.4658 62.457 93.943 63.6488 91.1715C64.0911 90.1422 64.5687 89.3382 65.0476 88.5067C66.0614 89.1376 67.1692 89.2775 67.9795 88.7702C68.5482 88.4135 68.9382 87.7854 68.9339 87.0669V87.0655C68.9297 86.3513 68.5539 85.6293 67.8509 85.0012H67.8495L67.7499 84.9115H67.6383C67.148 84.5992 66.5461 84.5583 66.0579 84.8218C65.5408 85.1015 65.1239 85.5685 64.7114 86.1379C64.6845 86.1754 64.6845 86.1938 64.6612 86.2319C64.0317 85.375 63.5068 84.6197 63.4199 84.436C63.3952 84.3838 63.321 84.2397 63.3147 84.2178C63.3217 84.104 63.3083 83.9917 63.2638 83.8956C63.184 83.7239 63.0448 83.606 62.8894 83.5403C62.7333 83.4753 62.551 83.459 62.3722 83.5226C62.1977 83.5848 62.0409 83.7345 61.9632 83.9239C61.9533 83.9458 61.2525 85.452 60.0254 85.4279C59.15 85.4117 58.4648 84.6028 58.132 84.1287ZM62.5008 85.6589C62.7778 86.0991 63.1925 86.689 63.882 87.582C63.9046 87.6116 63.906 87.6032 63.9258 87.6251C63.3938 88.5357 62.8491 89.464 62.3539 90.617C61.2264 93.2394 60.462 95.5029 60.0925 96.6255C59.723 95.5022 58.9593 93.2394 57.8325 90.617C57.3372 89.464 56.7926 88.5364 56.2599 87.6251C56.2804 87.6032 57.3436 86.1909 57.6219 85.76C58.1737 86.3075 58.9543 86.8204 60.0006 86.8402C61.1557 86.8621 61.9731 86.2609 62.5008 85.6589ZM66.729 86.0645C66.794 86.0291 66.8809 86.0284 66.9085 86.0532C67.4037 86.4961 67.5217 86.8543 67.5231 87.074V87.0754C67.5245 87.305 67.4419 87.4421 67.2299 87.5756C66.9834 87.7303 66.3885 87.6371 65.7365 87.1913L65.7379 87.1885C65.7873 87.0832 65.8382 86.9878 65.8537 86.9666C66.2006 86.4855 66.556 86.1577 66.729 86.0645ZM53.2772 86.0532C53.3047 86.0284 53.3909 86.0291 53.4566 86.0645C53.629 86.1577 53.9829 86.4848 54.3312 86.9666C54.3347 86.9709 54.5523 87.2584 54.4619 87.3057C53.3966 87.8603 53.1479 87.6957 52.9564 87.5756C52.7438 87.4421 52.6618 87.3029 52.6632 87.074C52.6639 86.8536 52.7819 86.4954 53.2772 86.0532ZM222.072 75.9937C223.62 75.9937 224.876 77.2689 224.876 78.8769C224.876 80.4848 223.62 81.7614 222.072 81.7614C220.524 81.7614 219.266 80.4848 219.266 78.8769C219.266 77.2689 220.524 75.9937 222.072 75.9937ZM144.546 75.9937C146.095 75.9937 147.352 77.2689 147.352 78.8769C147.352 80.4848 146.095 81.7614 144.546 81.7614C142.999 81.7614 141.741 80.4848 141.741 78.8769C141.741 77.2689 142.998 75.9937 144.546 75.9937ZM222.072 64.4854C223.62 64.4854 224.876 65.7598 224.876 67.3685C224.876 68.9771 223.62 70.2509 222.072 70.2509C220.524 70.2509 219.266 68.9771 219.266 67.3685C219.266 65.7598 220.524 64.4854 222.072 64.4854ZM144.546 64.4854C146.095 64.4854 147.352 65.7598 147.352 67.3685C147.352 68.9771 146.095 70.2509 144.546 70.2509C142.999 70.2509 141.741 68.9771 141.741 67.3685C141.74 65.7605 142.998 64.4854 144.546 64.4854Z" fill="#0081E2"/>
<path fill-rule="evenodd" clip-rule="evenodd" d="M155.86 186.057C153.653 188.737 152.43 192.114 152.43 195.616V261.934L137.276 261.853C137.432 260.855 143.43 222.487 147.009 199.667C147.917 193.865 151.264 189.03 155.86 186.057ZM214.485 186.815C218.038 189.531 220.557 193.411 221.574 197.808C223.627 206.679 226.207 217.823 228.515 227.792C228.458 227.913 228.424 228.041 228.439 228.162C228.462 228.347 228.556 228.499 228.682 228.609C228.808 228.719 228.972 228.791 229.158 228.79C229.345 228.788 229.543 228.696 229.678 228.542L248.715 206.763L256.095 213.215L260.742 217.804C260.759 217.82 260.769 217.841 260.787 217.855C260.793 217.861 260.802 217.862 260.809 217.868L261.622 218.671C261.122 219.298 242.085 243.19 231.474 256.505C229.83 258.567 227.415 259.869 224.788 260.105C222.396 260.321 218.788 258.252 216.752 256.472C216.692 256.42 216.619 256.388 216.546 256.357V193.908C216.547 191.299 215.785 188.871 214.485 186.815ZM138.628 244.087H87.2985C83.68 244.087 80.7637 241.169 80.7637 237.551V122.388C80.7637 117.076 85.054 112.785 90.366 112.785H156.135C158.013 112.785 159.813 113.531 161.141 114.857C162.469 116.186 163.213 117.986 163.213 119.863V128.115C163.213 128.116 163.214 128.118 163.214 128.119C160 131.31 158.063 135.365 158.063 139.809C158.063 140.338 158.173 141.18 158.295 142.047C158.388 142.712 158.475 143.229 158.55 143.686V162.158C158.55 165.994 160.393 169.399 163.231 171.561C163.227 171.592 163.214 171.619 163.214 171.651V181.199C162.011 181.553 159.49 182.69 159.411 182.72C158.732 182.966 158.073 183.255 157.425 183.566V122.231C157.425 121.846 157.106 121.526 156.72 121.525H87.2589C86.8732 121.526 86.5532 121.845 86.5532 122.231V231.758C86.5532 232.143 86.8725 232.463 87.2589 232.463H140.447L139.465 238.738L138.628 244.087ZM123.254 234.12C120.775 234.12 118.753 236.143 118.753 238.622C118.753 241.101 120.776 243.125 123.254 243.125C125.734 243.125 127.757 241.101 127.757 238.622C127.757 236.143 125.734 234.12 123.254 234.12ZM215.136 236.825H153.842V214.229H215.136V236.825ZM108.465 194.294H106.084V176.924H108.465V194.294ZM141.684 178.689H136.83C136.444 178.69 136.124 179.009 136.124 179.395V194.293H133.743V179.395C133.743 179.01 133.422 178.689 133.037 178.689H128.17V176.924H141.683V178.689H141.684ZM119.849 180.876C121.757 180.876 123.219 181.463 124.407 182.67C125.598 183.879 126.176 185.35 126.176 187.241C126.176 189.15 125.59 190.638 124.386 191.866C123.182 193.094 121.735 193.684 119.875 193.684C118.734 193.684 117.661 193.431 116.622 192.913C115.608 192.409 114.871 191.697 114.346 190.729C113.825 189.764 113.547 188.563 113.547 187.088C113.547 186.008 113.81 184.972 114.351 183.944H114.349C114.88 182.937 115.606 182.199 116.57 181.673C117.543 181.142 118.621 180.876 119.849 180.876ZM30.8043 176.465C30.8304 176.487 30.8573 176.508 30.8841 176.53C30.7456 176.647 30.6008 176.768 30.4327 176.89C29.9876 177.216 29.4775 177.553 29.084 177.837C26.0617 180.029 25.2733 183.757 24.6333 187.882C24.6099 188.028 24.5859 188.173 24.5612 188.32C24.4263 189.092 24.2369 189.913 23.9176 190.552C23.5969 191.196 23.2005 191.63 22.5449 191.838C22.5435 191.838 22.4693 191.82 22.4248 191.718C22.4036 191.668 22.4043 191.647 22.4149 191.615C22.4284 191.575 22.4453 191.528 22.6029 191.439L22.6057 191.438L22.6071 191.437L22.6113 191.435L22.6177 191.431C23.3503 191.009 23.8081 190.338 24.0801 189.6C24.3514 188.867 24.4665 188.055 24.5577 187.201C24.7406 185.492 24.8261 183.588 25.5057 181.846C26.4411 179.456 28.4666 177.469 30.8043 176.465ZM119.862 183.809C120.628 183.809 121.172 184.055 121.697 184.648C122.19 185.203 122.475 186.033 122.475 187.254C122.475 188.512 122.186 189.362 121.697 189.912C121.172 190.505 120.628 190.751 119.862 190.751C119.096 190.751 118.549 190.505 118.019 189.911C117.525 189.357 117.236 188.517 117.236 187.28C117.236 186.042 117.524 185.204 118.019 184.649C118.549 184.055 119.096 183.809 119.862 183.809ZM259.662 127.343C269.421 127.343 277.316 135.238 277.316 144.997C277.316 154.755 269.421 162.651 259.662 162.651C249.903 162.651 242.008 154.756 242.008 144.997C242.008 135.238 249.904 127.343 259.662 127.343ZM259.662 130.342C267.763 130.342 274.316 136.896 274.316 144.997C274.316 153.097 267.763 159.652 259.662 159.652C251.562 159.652 245.007 153.097 245.007 144.997C245.007 136.896 251.562 130.342 259.662 130.342ZM131.558 116.025H117.277C116.558 116.025 115.966 116.616 115.966 117.334V118.544C115.966 119.264 116.558 119.855 117.277 119.855H131.558C132.277 119.855 132.869 119.264 132.869 118.544V117.334C132.869 116.616 132.277 116.025 131.558 116.025ZM64.346 105.79H55.015L54.986 103.338H64.3503L64.346 105.79ZM210.539 86.629H155.447V45.9116H210.539V86.629ZM207.027 47.6439H158.959C158.573 47.6446 158.253 47.9639 158.253 48.3496V84.1895C158.253 84.5753 158.573 84.8953 158.959 84.8953H207.027C207.412 84.8953 207.732 84.576 207.732 84.1895V48.3496C207.732 47.9639 207.412 47.6446 207.027 47.6439Z" fill="white"/>
<path fill-rule="evenodd" clip-rule="evenodd" d="M215.136 261.893H153.842V238.237H215.136V261.893ZM123.254 235.532C124.971 235.532 126.346 236.906 126.346 238.623C126.346 240.339 124.971 241.715 123.254 241.715C121.538 241.715 120.163 240.339 120.163 238.623C120.164 236.906 121.538 235.532 123.254 235.532ZM140.667 231.052H87.9647V122.936H156.015V184.31C150.619 187.426 146.645 192.859 145.615 199.447C143.796 211.045 142.684 218.168 140.667 231.052ZM215.136 212.818H153.842V195.615C153.842 192.003 155.276 188.539 157.83 185.984C159.462 184.352 161.467 183.183 163.642 182.547C163.676 182.561 164.445 182.359 164.458 182.343C165.437 182.121 166.442 181.995 167.462 181.995H174.543V185.627C174.543 185.846 174.646 186.053 174.82 186.187C177.525 188.256 180.302 189.3 183.092 189.284C185.882 189.268 188.644 188.195 191.345 186.194L191.347 186.192C191.521 186.062 191.626 185.858 191.631 185.64V185.639L191.698 181.995H203.226C209.814 181.995 215.138 187.32 215.138 193.909V212.818H215.136ZM109.171 175.513H105.378C104.993 175.513 104.673 175.833 104.673 176.219V195C104.673 195.386 104.992 195.706 105.378 195.706H109.171C109.556 195.706 109.876 195.386 109.877 195V176.219C109.875 175.833 109.557 175.513 109.171 175.513ZM142.389 175.513H127.465C127.079 175.513 126.759 175.833 126.759 176.219V179.396C126.759 179.781 127.078 180.101 127.465 180.101H132.332V195C132.332 195.386 132.651 195.706 133.037 195.706H136.83C137.215 195.706 137.536 195.386 137.536 195V180.101H142.39C142.775 180.101 143.095 179.781 143.095 179.396V176.219C143.095 175.833 142.775 175.513 142.389 175.513ZM113.101 183.287C112.463 184.498 112.137 185.776 112.137 187.088C112.137 188.739 112.449 190.188 113.105 191.401C113.761 192.613 114.743 193.552 115.993 194.175C117.218 194.785 118.522 195.094 119.875 195.094C122.051 195.094 123.941 194.334 125.396 192.852C126.85 191.369 127.588 189.451 127.588 187.24C127.588 185.046 126.854 183.144 125.412 181.678C123.966 180.209 122.062 179.464 119.85 179.464C118.413 179.464 117.08 179.784 115.892 180.433C114.694 181.086 113.752 182.055 113.103 183.287H113.101ZM119.862 183.81C120.628 183.81 121.172 184.055 121.697 184.648C122.19 185.203 122.475 186.034 122.475 187.254C122.475 188.512 122.186 189.362 121.697 189.912C121.172 190.505 120.628 190.751 119.862 190.751C119.096 190.751 118.549 190.505 118.019 189.911C117.525 189.357 117.236 188.517 117.236 187.28C117.236 186.042 117.524 185.204 118.019 184.65C118.549 184.055 119.096 183.81 119.862 183.81ZM55.6904 178.151C56.163 178.151 56.548 178.534 56.548 179.008C56.548 179.481 56.1637 179.865 55.6904 179.865C55.217 179.865 54.8327 179.482 54.8327 179.008C54.8327 178.535 55.2163 178.151 55.6904 178.151ZM164.625 172.485C165.238 172.828 165.886 173.111 166.559 173.343C166.457 173.829 166.206 174.993 165.777 176.525C165.53 177.41 165.046 178.425 164.625 179.218V172.485ZM123.429 178.297C123.786 178.491 124.244 178.336 124.409 177.966V177.965L127.849 170.231V170.229C128.002 169.887 127.854 169.476 127.519 169.31C125.168 168.146 122.518 167.492 119.723 167.492C116.832 167.492 114.098 168.19 111.688 169.43C111.358 169.6 111.215 170.006 111.366 170.345L114.81 178.093C114.978 178.474 115.455 178.627 115.813 178.415C116.962 177.741 118.293 177.355 119.723 177.355C121.066 177.355 122.326 177.696 123.427 178.297H123.429ZM283.898 171.126H234.768V110.939H283.898V171.126ZM38.266 154.013C38.3861 154.014 38.5041 154.059 38.6023 154.161L51.9659 167.994C52.1602 168.194 52.1559 168.505 51.9581 168.701L50.2569 170.38C50.0563 170.578 49.7758 170.574 49.5787 170.37L36.2151 156.538C36.0209 156.336 36.0244 156.028 36.2236 155.832L37.9255 154.153C38.0258 154.054 38.1452 154.011 38.266 154.013ZM119.723 156.6C115.262 156.6 111.037 157.628 107.273 159.46C106.934 159.625 106.783 160.038 106.937 160.383L109.321 165.745C109.483 166.108 109.925 166.267 110.281 166.09C113.124 164.673 116.329 163.875 119.723 163.875C123.026 163.875 126.152 164.631 128.939 165.978C129.294 166.151 129.733 165.991 129.893 165.631L132.276 160.269C132.429 159.922 132.276 159.508 131.934 159.345C128.232 157.586 124.089 156.6 119.723 156.6ZM259.662 125.931C249.141 125.931 240.597 134.475 240.597 144.996C240.597 155.518 249.141 164.062 259.662 164.062C270.183 164.062 278.727 155.518 278.727 144.996C278.728 134.476 270.183 125.931 259.662 125.931ZM270.485 141.238C269.514 141.24 268.716 142.039 268.716 143.01V146.355C268.716 147.326 269.514 148.125 270.485 148.125H272.608C272.661 148.126 272.709 148.105 272.76 148.095C271.361 154.042 266.042 158.465 259.663 158.465C252.216 158.465 246.194 152.443 246.194 144.996C246.194 137.549 252.216 131.527 259.663 131.527C265.804 131.527 270.966 135.625 272.591 141.238H270.485V141.238ZM119.723 143.775C113.41 143.775 107.421 145.194 102.065 147.731C101.723 147.894 101.569 148.31 101.724 148.657L105.208 156.49C105.367 156.85 105.804 157.011 106.158 156.84C110.263 154.864 114.862 153.756 119.723 153.756C124.492 153.756 129.011 154.824 133.057 156.731C133.412 156.9 133.847 156.738 134.005 156.379L137.488 148.545C137.642 148.197 137.485 147.78 137.141 147.619C131.846 145.152 125.942 143.775 119.723 143.775ZM272.608 146.714H270.485C270.275 146.714 270.127 146.564 270.127 146.355V143.01C270.127 142.798 270.274 142.65 270.485 142.65H272.608C272.711 142.651 272.813 142.629 272.905 142.591C273.046 143.373 273.132 144.174 273.132 144.997C273.132 145.622 273.075 146.232 272.992 146.834C272.878 146.763 272.749 146.711 272.608 146.714ZM228.445 140.776C228.898 140.776 229.266 141.142 229.266 141.596C229.266 142.048 228.898 142.416 228.445 142.416C227.993 142.416 227.625 142.049 227.625 141.596C227.625 141.142 227.993 140.776 228.445 140.776ZM276.798 113.763H273.422C272.537 113.765 271.81 114.491 271.81 115.376V117.189C271.81 118.074 272.538 118.802 273.422 118.802H276.798C277.683 118.802 278.411 118.074 278.411 117.189V115.376C278.411 114.491 277.684 113.765 276.798 113.763ZM245.558 115.043H240.017C239.632 115.043 239.312 115.363 239.312 115.748V118.076C239.312 118.461 239.632 118.782 240.017 118.782H245.558C245.943 118.782 246.263 118.462 246.263 118.076V115.748C246.263 115.363 245.943 115.043 245.558 115.043ZM254.045 115.043H248.504C248.118 115.043 247.798 115.363 247.798 115.748V118.076C247.798 118.461 248.118 118.782 248.504 118.782H254.045C254.43 118.782 254.751 118.462 254.751 118.076V115.748C254.751 115.363 254.431 115.043 254.045 115.043ZM131.457 118.443H117.376V117.437H131.457V118.443ZM64.3418 109.482H55.056L55.0298 107.201H64.3446L64.3418 109.482ZM64.3517 101.927H54.9705L54.9557 100.643C56.5318 99.1823 58.0154 98.5338 59.4587 98.5203C59.4608 98.521 59.4622 98.5239 59.4643 98.5246C59.6374 98.6044 59.8204 98.6044 59.9829 98.5535C59.9885 98.5514 59.9935 98.5472 59.9991 98.5451C61.4227 98.6892 62.8808 99.4423 64.3524 100.706L64.3517 101.927ZM178.176 91.6633C178.699 91.6633 179.122 92.0872 179.122 92.6093C179.122 93.1321 178.699 93.5553 178.176 93.5553C177.654 93.5553 177.23 93.1321 177.23 92.6093C177.229 92.0872 177.654 91.6633 178.176 91.6633ZM84.5483 83.9656C84.9333 83.9656 85.247 84.2786 85.247 84.6643C85.247 85.0494 84.934 85.3623 84.5483 85.3623C84.1632 85.3623 83.8503 85.0501 83.8503 84.6643C83.8503 84.2793 84.1632 83.9656 84.5483 83.9656ZM205.701 83.8689H160.283C159.919 83.8689 159.616 83.5665 159.616 83.202V49.338C159.616 48.9735 159.919 48.6711 160.283 48.6711H205.701C206.065 48.6711 206.368 48.9728 206.368 49.338V83.202C206.368 83.5658 206.067 83.8682 205.701 83.8689Z" fill="#30F58B"/>
<path d="M154.742 44.5C154.355 44.5 154.036 44.8186 154.036 45.2058V87.3339C154.036 87.7211 154.354 88.0397 154.742 88.0397H211.244C211.631 88.0397 211.95 87.7218 211.95 87.3339V45.2058C211.95 44.8193 211.632 44.5 211.244 44.5H154.742ZM155.447 45.9115H210.539V86.6289H155.447V45.9115ZM158.959 47.6438C158.572 47.6438 158.253 47.9624 158.253 48.3495V84.1894C158.253 84.5766 158.572 84.8952 158.959 84.8952H207.027C207.414 84.8952 207.733 84.5773 207.733 84.1894V48.3495C207.733 47.9631 207.415 47.6438 207.027 47.6438H158.959ZM159.664 49.0553H206.322V83.4844H159.664V49.0553ZM138.399 59.5089C138.013 59.5089 137.693 59.8269 137.693 60.2147V90.8119C137.693 91.199 138.012 91.5177 138.399 91.5177H150.533C150.919 91.5177 151.238 91.1997 151.238 90.8119V60.2147C151.238 59.8276 150.92 59.5089 150.533 59.5089H138.399ZM215.925 59.5089C215.538 59.5089 215.219 59.8269 215.219 60.2147V90.8119C215.219 91.199 215.537 91.5177 215.925 91.5177H228.059C228.446 91.5177 228.765 91.1997 228.765 90.8119V60.2147C228.765 59.8276 228.446 59.5089 228.059 59.5089H215.925ZM139.105 60.9198H149.828V90.1061H139.105V60.9198ZM216.63 60.9198H227.353V90.1061H216.63V60.9198ZM60.0487 61.2285C54.4351 61.2285 49.7512 64.149 46.5205 68.3914C43.2912 72.6337 41.4671 78.2014 41.4671 83.6723C41.4671 92.0708 46.6646 98.3047 53.5414 100.567L53.653 110.196C53.6573 110.58 53.9745 110.893 54.3588 110.893H65.0477C65.4348 110.893 65.7534 110.575 65.7534 110.188L65.7647 100.414C73.1756 98.4594 78.631 92.5004 78.631 83.6723C78.631 78.2014 76.8061 72.6337 73.5762 68.3914C70.3455 64.149 65.6623 61.2285 60.0487 61.2285ZM60.0487 62.6393C65.1763 62.6393 69.4306 65.2751 72.4536 69.2469C75.4773 73.2173 77.2194 78.5172 77.2194 83.6716C77.2194 92.0913 72.1194 97.4541 65.0025 99.1617C64.9424 99.1765 64.8852 99.1984 64.8315 99.2281C63.7096 98.3386 62.5418 97.6922 61.3352 97.3573C61.6255 96.4622 62.4592 93.9416 63.6489 91.1743C64.0848 90.1591 64.544 89.4279 65.0025 88.5915C66.0311 89.2379 67.165 89.281 67.9795 88.7709C68.5433 88.417 68.9382 87.7818 68.934 87.0676C68.9297 86.3527 68.5518 85.6292 67.8495 85.0019C67.3614 84.5653 66.5814 84.5399 66.0579 84.8225C65.5337 85.1057 65.1247 85.5664 64.71 86.1386C64.693 86.1619 64.6789 86.2071 64.6612 86.2311C64.0438 85.3897 63.5259 84.6487 63.432 84.453C63.4489 84.2657 63.3903 84.0807 63.2695 83.9365C63.1628 83.6681 62.9021 83.4922 62.6139 83.4922C62.3285 83.4922 62.0699 83.6652 61.9611 83.9281C61.9611 83.9281 61.2723 85.4526 60.0247 85.4286C59.1331 85.4116 58.4492 84.5943 58.1229 84.1237C58.0861 84.0425 58.0367 83.9669 57.971 83.8998C57.9526 83.868 57.906 83.7938 57.906 83.7938C57.7936 83.5536 57.5563 83.3968 57.2913 83.3876C57.2836 83.3869 57.2751 83.3869 57.2673 83.3869C56.8802 83.3869 56.5608 83.7055 56.5608 84.0927C56.5608 84.2029 56.587 84.3117 56.6364 84.4099C56.6364 84.4099 56.688 84.5017 56.7014 84.53C56.5672 84.773 56.1024 85.4392 55.5216 86.2304C55.5047 86.2064 55.4905 86.1612 55.4736 86.1379C55.0596 85.5657 54.6491 85.105 54.1257 84.8217C53.6015 84.5384 52.8215 84.5639 52.334 85.0012C52.3333 85.0012 52.3326 85.0012 52.3326 85.0012C51.6304 85.6292 51.2532 86.3527 51.2496 87.0669C51.2454 87.7811 51.6403 88.4163 52.2041 88.7702C53.0179 89.2803 54.1504 89.2372 55.1797 88.5908C55.6375 89.4272 56.096 90.1577 56.5333 91.1736C57.6559 93.7861 58.4309 96.0906 58.7777 97.1496C57.2553 97.3213 55.7329 98.0363 54.2634 99.3199C47.771 97.3121 42.8773 91.6088 42.8773 83.6709C42.8773 78.5165 44.6201 73.2166 47.6431 69.2462C50.6668 65.2759 54.9218 62.6393 60.0487 62.6393ZM144.546 63.0738C142.218 63.0738 140.329 65.0137 140.329 67.3684C140.329 69.7231 142.218 71.6623 144.546 71.6623C146.874 71.6623 148.764 69.7231 148.764 67.3684C148.763 65.0137 146.874 63.0738 144.546 63.0738ZM222.072 63.0738C219.743 63.0738 217.855 65.0137 217.855 67.3684C217.855 69.7231 219.743 71.6623 222.072 71.6623C224.4 71.6623 226.288 69.7231 226.288 67.3684C226.288 65.0137 224.4 63.0738 222.072 63.0738ZM144.546 64.4853C146.094 64.4853 147.352 65.7612 147.352 67.3684C147.352 68.9756 146.094 70.2508 144.546 70.2508C143 70.2508 141.741 68.9756 141.741 67.3684C141.74 65.7612 142.999 64.4853 144.546 64.4853ZM222.072 64.4853C223.619 64.4853 224.876 65.7612 224.876 67.3684C224.876 68.9756 223.619 70.2508 222.072 70.2508C220.524 70.2508 219.266 68.9756 219.266 67.3684C219.266 65.7612 220.524 64.4853 222.072 64.4853ZM144.546 74.5829C142.218 74.5829 140.329 76.5228 140.329 78.8775C140.329 81.2322 142.218 83.1736 144.546 83.1736C146.874 83.1736 148.764 81.2315 148.764 78.8775C148.763 76.5228 146.874 74.5829 144.546 74.5829ZM222.072 74.5829C219.743 74.5829 217.855 76.5235 217.855 78.8775C217.855 81.2315 219.743 83.1736 222.072 83.1736C224.4 83.1736 226.288 81.2315 226.288 78.8775C226.288 76.5228 224.4 74.5829 222.072 74.5829ZM144.546 75.9937C146.094 75.9937 147.352 77.2696 147.352 78.8768C147.352 80.484 146.094 81.7613 144.546 81.7613C143 81.7613 141.741 80.4833 141.741 78.8768C141.741 77.2703 142.999 75.9937 144.546 75.9937ZM222.072 75.9937C223.619 75.9937 224.876 77.2696 224.876 78.8768C224.876 80.484 223.619 81.7613 222.072 81.7613C220.524 81.7613 219.266 80.484 219.266 78.8768C219.266 77.2696 220.524 75.9937 222.072 75.9937ZM84.5483 81.3332C82.7207 81.3332 81.223 82.8302 81.223 84.6578C81.223 86.4862 82.7207 87.9832 84.5483 87.9832C86.2418 87.9832 87.6363 86.6918 87.8334 85.0492H120.626V109.825C120.626 109.829 120.626 109.832 120.626 109.836C120.626 110.222 120.944 110.541 121.331 110.541C121.719 110.541 122.037 110.223 122.037 109.836C122.037 109.832 122.037 109.829 122.037 109.825V84.3435C122.037 83.957 121.719 83.6377 121.331 83.6377H87.6964C87.2605 82.3081 86.0178 81.3332 84.5483 81.3332ZM84.5483 84.0545C84.8889 84.0545 85.1531 84.3173 85.1531 84.6578C85.1531 84.9984 84.8882 85.2619 84.5483 85.2619C84.2071 85.2619 83.945 84.9984 83.945 84.6578C83.945 84.3173 84.2057 84.0545 84.5483 84.0545ZM62.5023 85.6631C62.7799 86.1026 63.1939 86.6911 63.882 87.5819C63.8961 87.6003 63.9131 87.6081 63.9272 87.6264C63.3903 88.5759 62.8399 89.4823 62.3525 90.6169C61.2278 93.2323 60.4641 95.4916 60.0925 96.6233C59.7202 95.4908 58.9565 93.233 57.8325 90.6169C57.3443 89.4816 56.7947 88.5759 56.2571 87.625C56.2712 87.6073 57.3422 86.1916 57.6206 85.7613C58.1716 86.3082 58.9515 86.8203 60.0006 86.8401C61.1557 86.862 61.9738 86.2636 62.5023 85.6631ZM53.2758 86.0531C53.3309 86.0037 53.3641 86.0143 53.4566 86.0644C53.6403 86.1633 53.9808 86.4819 54.3312 86.9666C54.3772 87.0302 54.4287 87.175 54.4761 87.2442C53.8417 87.6625 53.2532 87.7628 52.9564 87.5756C52.7516 87.447 52.6618 87.2944 52.6633 87.074C52.664 86.8535 52.7812 86.4954 53.2758 86.0531ZM66.8456 85.9853C66.8548 85.9832 66.8548 86.0051 66.9078 86.0531C67.4023 86.4954 67.521 86.8543 67.5224 87.074C67.5238 87.2951 67.4334 87.447 67.2292 87.5756C66.9318 87.7628 66.3419 87.6639 65.7082 87.2449C65.7555 87.1757 65.8078 87.0309 65.8545 86.9666C66.2049 86.4819 66.544 86.1626 66.7284 86.0644C66.8188 86.015 66.8364 85.9881 66.8456 85.9853ZM178.246 89.2181C176.418 89.2181 174.921 90.7172 174.921 92.5449C174.921 94.1874 176.134 95.553 177.704 95.8151V116.126H165.465C165.462 116.126 165.458 116.126 165.455 116.126C165.068 116.126 164.75 116.444 164.75 116.832C164.75 117.22 165.067 117.538 165.455 117.538C165.458 117.538 165.462 117.538 165.465 117.538H178.41C178.797 117.538 179.116 117.22 179.116 116.832V95.7395C180.524 95.3524 181.572 94.0694 181.572 92.5442C181.571 90.7179 180.073 89.2181 178.246 89.2181ZM178.246 91.9408C178.586 91.9408 178.851 92.2043 178.851 92.5456C178.851 92.8861 178.586 93.1496 178.246 93.1496C177.905 93.1496 177.643 92.8861 177.643 92.5456C177.643 92.2036 177.904 91.9408 178.246 91.9408ZM59.4934 98.5181C59.6474 98.5823 59.8191 98.5901 59.9787 98.54C61.4115 98.6784 62.8753 99.4379 64.3525 100.705L64.3511 101.926H54.9692L54.9543 100.639C56.5397 99.1708 58.0367 98.5223 59.4934 98.5181ZM54.9861 103.338H64.3504L64.3476 105.79H55.0137L54.9861 103.338ZM55.0299 107.201H64.3447L64.3419 109.481H55.0561L55.0299 107.201ZM234.063 109.527C233.676 109.527 233.357 109.845 233.357 110.233V171.831C233.357 172.218 233.675 172.537 234.063 172.537H284.604C284.99 172.537 285.309 172.219 285.309 171.831V110.233C285.309 109.846 284.991 109.527 284.604 109.527H234.063ZM234.768 110.938H283.897V171.125H234.768V110.938ZM90.3668 111.374C84.2919 111.374 79.353 116.313 79.353 122.388V178.729C79.2187 178.54 79.0004 178.428 78.7687 178.432H58.9946C58.7389 176.853 57.3712 175.631 55.723 175.631C53.8953 175.631 52.3983 177.129 52.3983 178.957C52.3983 180.784 53.8953 182.282 55.723 182.282C57.2419 182.282 58.5192 181.241 58.9127 179.843H78.7694C79.0011 179.845 79.2187 179.734 79.3537 179.547V237.551C79.3537 241.931 82.9192 245.498 87.2993 245.498H138.408C137.678 250.166 135.755 262.443 135.755 262.443C135.75 262.479 135.747 262.516 135.747 262.552C135.747 262.938 136.063 263.256 136.449 263.258L153.652 263.352C153.743 263.354 153.832 263.337 153.917 263.305H215.842C216.229 263.305 216.548 262.987 216.548 262.599V258.134C218.785 259.922 222.008 261.774 224.917 261.512C227.927 261.241 230.696 259.749 232.579 257.385C243.329 243.895 263.124 219.057 263.124 219.057C263.349 218.776 263.324 218.366 263.067 218.114L262.205 217.262C263.247 216.018 268.033 210.269 272.478 204.312C274.271 201.907 273.984 198.689 272.672 195.715C271.36 192.741 269.015 189.907 266.374 188.009C265.442 187.34 264.303 187.414 263.378 187.844C262.454 188.274 261.634 189.008 260.913 189.788C259.558 191.253 258.697 192.745 258.584 192.938C258.533 192.963 258.268 193.104 258.079 193.202C257.322 191.815 256.469 190.406 255.547 189.347C255.014 188.736 254.48 188.224 253.929 187.862C253.379 187.5 252.774 187.25 252.124 187.395C252.124 187.395 252.123 187.395 252.122 187.395C251.431 187.549 250.856 187.902 250.477 188.394C250.097 188.885 249.914 189.48 249.843 190.101C249.702 191.342 249.978 192.748 250.329 194.185C250.583 195.22 251.074 196.276 251.493 197.273C251.893 198.228 252.185 199.105 252.229 199.736C251.182 202.288 249.975 204.423 249.362 205.456L249.114 205.239C248.988 205.13 248.829 205.068 248.663 205.065C248.455 205.061 248.256 205.15 248.119 205.307L229.649 226.435C227.405 216.737 224.932 206.055 222.951 197.492C221.833 192.661 219.024 188.416 215.068 185.494C216.105 180.447 217.047 172.078 214.652 166.225C213.704 163.91 212.527 161.782 211.176 159.879C207.072 154.106 204.921 147.171 205.035 140.089C205.037 140 205.038 139.907 205.038 139.811C205.038 129.392 194.427 121.105 181.553 121.105C174.933 121.105 168.916 123.299 164.627 126.845V119.864C164.627 117.613 163.734 115.453 162.141 113.86C160.55 112.269 158.389 111.374 156.138 111.374L90.3668 111.374ZM90.3668 112.785H156.136C158.014 112.785 159.814 113.531 161.142 114.857C162.47 116.185 163.214 117.986 163.214 119.863V128.121C160 131.312 158.064 135.365 158.064 139.809C158.064 140.343 158.173 141.179 158.296 142.046C158.389 142.711 158.475 143.223 158.551 143.681V162.158C158.551 165.989 160.389 169.39 163.22 171.553C163.217 171.583 163.214 171.614 163.214 171.645V181.199C162.02 181.551 159.498 182.687 159.417 182.717C158.735 182.964 158.076 183.254 157.426 183.566V122.231C157.426 121.844 157.108 121.526 156.721 121.525H87.2598C86.8726 121.526 86.554 121.844 86.554 122.231V231.757C86.554 232.145 86.8719 232.463 87.2598 232.463H140.448C139.722 237.1 139.16 240.686 138.629 244.087H87.2986C83.6808 244.087 80.7638 241.169 80.7638 237.551V122.388C80.7638 117.076 85.0549 112.785 90.3668 112.785ZM273.422 113.763C272.54 113.763 271.81 114.493 271.81 115.376V117.189C271.81 118.072 272.54 118.802 273.422 118.802H276.798C277.681 118.802 278.411 118.072 278.411 117.189V115.376C278.411 114.493 277.681 113.763 276.798 113.763H273.422ZM240.017 115.042C239.63 115.042 239.311 115.36 239.311 115.748V118.076C239.311 118.462 239.629 118.782 240.017 118.782H245.557C245.943 118.782 246.263 118.463 246.263 118.076V115.748C246.263 115.361 245.944 115.042 245.557 115.042H240.017ZM248.504 115.042C248.117 115.042 247.798 115.36 247.798 115.748V118.076C247.798 118.462 248.116 118.782 248.504 118.782H254.045C254.432 118.782 254.751 118.463 254.751 118.076V115.748C254.751 115.361 254.432 115.042 254.045 115.042H248.504ZM273.422 115.174H276.798C276.917 115.174 277 115.258 277 115.377V117.19C277 117.309 276.917 117.391 276.798 117.391H273.422C273.304 117.391 273.221 117.309 273.221 117.19V115.377C273.221 115.258 273.304 115.174 273.422 115.174ZM117.277 116.025C116.561 116.025 115.966 116.619 115.966 117.334V118.544C115.966 119.26 116.561 119.855 117.277 119.855H131.558C132.274 119.855 132.869 119.26 132.869 118.544V117.334C132.869 116.619 132.274 116.025 131.558 116.025H117.277ZM240.723 116.454H244.852V117.37H240.723V116.454ZM249.209 116.454H253.339V117.37H249.209V116.454ZM117.377 117.437H131.457V118.443H117.377V117.437ZM181.551 122.515C193.822 122.515 203.624 130.358 203.624 139.809C203.624 139.89 203.623 139.977 203.622 140.066C203.503 147.448 205.745 154.677 210.023 160.694C211.31 162.508 212.437 164.541 213.344 166.759C215.422 171.836 214.739 179.67 213.792 184.622C213.729 184.582 212.861 184.469 212.735 184.591C210.315 182.121 206.95 180.583 203.224 180.583H191.723L192.012 165.005C194.805 164.094 196.786 161.134 196.786 157.619C196.786 155.659 195.889 153.797 194.653 152.334C193.795 151.32 192.775 150.492 191.704 149.966C192.226 149.651 192.714 149.313 193.155 148.955C193.329 148.821 193.432 148.615 193.432 148.395C193.432 148.008 193.113 147.689 192.726 147.689C192.557 147.689 192.394 147.75 192.267 147.859C189.095 150.434 182.675 152.003 178.242 149.936C168.718 145.494 166.654 140.318 164.033 137.583C163.671 137.206 163.106 136.974 162.611 137.107C162.117 137.239 161.814 137.577 161.558 137.938C161.045 138.659 160.676 139.642 160.328 140.602C160.107 141.212 159.917 141.723 159.741 142.164C159.723 142.038 159.476 140.111 159.476 139.809C159.476 130.358 169.279 122.515 181.551 122.515ZM87.9648 122.936H156.015V184.309C150.618 187.425 146.645 192.86 145.616 199.448C143.796 211.047 142.684 218.169 140.667 231.052H87.9648V122.936ZM259.662 125.931C249.141 125.931 240.597 134.475 240.597 144.996C240.597 155.517 249.141 164.061 259.662 164.061C270.183 164.061 278.727 155.517 278.727 144.996C278.728 134.476 270.183 125.931 259.662 125.931ZM259.662 127.343C269.42 127.343 277.316 135.238 277.316 144.997C277.316 154.755 269.421 162.651 259.662 162.651C249.904 162.651 242.008 154.756 242.008 144.997C242.008 135.238 249.904 127.343 259.662 127.343ZM259.662 130.116C251.452 130.116 244.783 136.787 244.783 144.996C244.783 153.205 251.453 159.876 259.662 159.876C267.871 159.876 274.542 153.206 274.542 144.996C274.542 136.786 267.872 130.116 259.662 130.116ZM259.662 131.528C265.802 131.528 270.966 135.627 272.591 141.238H270.485C269.517 141.24 268.716 142.041 268.716 143.009V146.355C268.716 147.324 269.516 148.125 270.485 148.125H272.613C272.661 148.126 272.709 148.121 272.756 148.112C271.351 154.051 266.035 158.465 259.663 158.465C252.216 158.465 246.194 152.443 246.194 144.996C246.194 137.549 252.215 131.528 259.662 131.528ZM228.328 138.087C226.596 138.087 225.177 139.436 225.031 141.131H206.474C206.471 141.131 206.467 141.131 206.464 141.131C206.077 141.131 205.759 141.449 205.759 141.837C205.759 142.223 206.077 142.542 206.464 142.542C206.467 142.542 206.471 142.542 206.474 142.542H225.215C225.681 143.817 226.897 144.739 228.328 144.739C230.156 144.739 231.652 143.241 231.652 141.413C231.652 139.586 230.155 138.087 228.328 138.087ZM162.707 138.756C162.841 138.568 162.962 138.505 163.012 138.559C165.241 140.884 167.803 146.624 177.645 151.214C181.522 153.023 186.325 152.493 190.015 150.843C191.135 151.093 192.519 151.995 193.575 153.245C194.643 154.509 195.374 156.1 195.374 157.618C195.374 160.818 193.473 163.383 191.169 163.865C190.849 163.932 190.616 164.214 190.609 164.542L190.226 185.214C187.799 186.948 185.427 187.857 183.082 187.871C180.736 187.884 178.375 187.005 175.953 185.224V173.281C175.953 172.894 175.636 172.575 175.248 172.575H170.38C164.617 172.575 159.961 167.92 159.961 162.158V144.402C159.966 144.392 159.97 144.382 159.975 144.371C160.182 144.288 160.305 144.156 160.401 144.042C160.519 143.897 160.605 143.751 160.689 143.589C161.023 142.941 161.317 142.017 161.655 141.082C161.994 140.148 162.381 139.213 162.707 138.756ZM228.328 140.81C228.668 140.81 228.931 141.072 228.931 141.413C228.931 141.753 228.667 142.018 228.328 142.018C227.986 142.018 227.722 141.753 227.722 141.413C227.722 141.072 227.986 140.81 228.328 140.81ZM272.905 142.589C273.046 143.372 273.132 144.173 273.132 144.997C273.132 145.617 273.076 146.222 272.995 146.82C272.88 146.749 272.748 146.712 272.613 146.714H270.486C270.28 146.714 270.128 146.561 270.128 146.356V143.01C270.128 142.804 270.28 142.651 270.486 142.651H272.613C272.714 142.65 272.813 142.629 272.905 142.589ZM119.723 143.774C113.41 143.774 107.422 145.195 102.067 147.731C101.723 147.894 101.569 148.307 101.724 148.655L105.208 156.49C105.321 156.745 105.574 156.91 105.853 156.91C105.959 156.91 106.064 156.886 106.159 156.84C110.263 154.864 114.862 153.755 119.723 153.755C124.493 153.755 129.012 154.823 133.059 156.731C133.153 156.776 133.256 156.798 133.359 156.798C133.637 156.798 133.89 156.634 134.004 156.38L137.488 148.545C137.643 148.196 137.488 147.78 137.141 147.619C131.846 145.151 125.942 143.774 119.723 143.774ZM119.723 145.185C125.488 145.185 130.953 146.436 135.902 148.639L132.992 155.184C128.932 153.378 124.448 152.345 119.723 152.345C114.905 152.345 110.341 153.417 106.218 155.29L103.309 148.745C108.32 146.476 113.865 145.185 119.723 145.185ZM48.6851 149.361C48.5233 149.361 48.3672 149.416 48.2415 149.518L41.4255 155.05L39.6183 153.18C39.2566 152.805 38.7705 152.615 38.2831 152.609C37.7949 152.603 37.3046 152.783 36.9337 153.148L35.2325 154.826C34.6476 155.404 34.5225 156.276 34.8482 156.988C34.8242 157.007 34.8009 157.027 34.7797 157.049C31.6126 160.174 29.4967 163.796 28.6405 167.193C27.8549 170.306 28.1382 173.288 29.7729 175.401C27.3003 176.604 25.2148 178.718 24.1933 181.334C23.4027 183.358 23.3299 185.417 23.1554 187.054C23.0678 187.872 22.9541 188.582 22.7591 189.112C22.5627 189.642 22.319 189.976 21.9135 190.209L21.9248 190.204C21.5186 190.429 21.2141 190.77 21.0813 191.158C20.9484 191.546 20.988 191.949 21.1307 192.279C21.4154 192.938 22.1685 193.436 22.9704 193.182C24.0435 192.843 24.7528 192.043 25.1823 191.181C25.6118 190.32 25.8097 189.376 25.9531 188.558C25.9538 188.557 26.0046 188.251 26.0287 188.1C26.0287 188.099 26.0287 188.098 26.0287 188.097C26.6609 184.024 27.419 180.789 29.9135 178.979C30.2604 178.728 30.7811 178.385 31.2657 178.03C31.5843 177.797 31.8825 177.577 32.1382 177.32C34.0428 178.252 36.4215 178.368 38.8963 177.795C42.2803 177.009 45.9165 174.958 49.0829 171.833C49.1076 171.809 49.1309 171.784 49.1521 171.756C49.8416 172.06 50.683 171.939 51.2482 171.382L52.9487 169.705C53.6905 168.973 53.7053 167.762 52.9819 167.013L49.7017 163.618L56.32 158.247C56.6181 158.004 56.6661 157.561 56.4273 157.26L54.8745 155.308C54.7403 155.14 54.5375 155.042 54.3221 155.042C54.1603 155.042 54.0041 155.098 53.8784 155.2L46.9797 160.798L44.1489 157.867L50.6844 152.564C50.9833 152.321 51.0313 151.877 50.7918 151.576L49.239 149.626C49.1034 149.459 48.8999 149.361 48.6851 149.361ZM48.577 151.063L49.2517 151.909L43.1641 156.85L42.4082 156.068L48.577 151.063ZM38.2661 154.01C38.3869 154.011 38.5063 154.061 38.6024 154.161L51.966 167.994C52.1588 168.194 52.1553 168.506 51.9582 168.701L50.257 170.378C50.0599 170.573 49.7724 170.571 49.5788 170.371L36.2152 156.538C36.0224 156.338 36.0252 156.027 36.2237 155.832L37.9256 154.153C38.0245 154.055 38.146 154.008 38.2661 154.01ZM119.723 156.6C115.262 156.6 111.037 157.628 107.273 159.46C106.934 159.625 106.783 160.036 106.937 160.381L109.321 165.745C109.435 165.999 109.688 166.164 109.966 166.164C110.076 166.164 110.183 166.138 110.281 166.09C113.124 164.673 116.329 163.875 119.723 163.875C123.027 163.875 126.153 164.632 128.941 165.979C129.037 166.025 129.142 166.049 129.248 166.049C129.526 166.049 129.779 165.885 129.893 165.631L132.276 160.268C132.43 159.921 132.277 159.508 131.934 159.345C128.232 157.586 124.089 156.6 119.723 156.6ZM54.214 156.745L54.8879 157.593L48.7183 162.599L47.9624 161.818L54.214 156.745ZM119.723 158.011C123.633 158.011 127.319 158.901 130.676 160.394L128.867 164.467C126.061 163.221 122.985 162.464 119.723 162.464C116.368 162.464 113.211 163.262 110.346 164.575L108.534 160.5C111.954 158.941 115.72 158.011 119.723 158.011ZM35.744 158.082L48.0762 170.845C45.0786 173.797 41.6416 175.709 38.5763 176.419C35.5045 177.132 32.8814 176.654 31.2622 174.977C29.643 173.301 29.229 170.628 30.0082 167.538C30.7846 164.459 32.7585 161.036 35.744 158.082ZM164.882 163.879C164.88 163.879 164.879 163.879 164.877 163.879C164.49 163.879 164.172 164.196 164.172 164.584C164.172 164.629 164.176 164.675 164.184 164.719C164.184 164.719 164.3 165.302 164.754 165.854C165.207 166.405 166.029 166.969 167.301 167.137C168.602 167.308 169.595 166.887 170.206 166.409C170.817 165.931 171.104 165.364 171.104 165.364C171.154 165.266 171.18 165.157 171.18 165.048C171.18 164.661 170.861 164.342 170.474 164.342C170.207 164.342 169.963 164.493 169.843 164.73C169.843 164.73 169.708 165.007 169.336 165.297C168.964 165.587 168.418 165.86 167.485 165.738C166.524 165.611 166.088 165.254 165.844 164.956C165.599 164.659 165.573 164.468 165.573 164.468C165.518 164.131 165.224 163.881 164.882 163.879ZM119.723 167.492C116.832 167.492 114.098 168.191 111.688 169.431C111.357 169.602 111.215 170.005 111.366 170.345L114.81 178.093C114.923 178.347 115.176 178.511 115.454 178.511C115.58 178.511 115.704 178.478 115.812 178.414C116.96 177.739 118.294 177.354 119.723 177.354C121.067 177.354 122.327 177.696 123.427 178.297C123.531 178.353 123.647 178.383 123.765 178.383C124.044 178.383 124.296 178.218 124.409 177.965L127.849 170.229C128.003 169.886 127.854 169.476 127.517 169.31C125.167 168.146 122.518 167.492 119.723 167.492ZM119.723 168.903C122.058 168.903 124.248 169.453 126.253 170.343L123.394 176.777C122.262 176.276 121.037 175.943 119.723 175.943C118.316 175.943 117.013 176.322 115.82 176.89L112.958 170.45C115.023 169.493 117.295 168.903 119.723 168.903ZM164.625 172.485C165.238 172.827 165.887 173.113 166.561 173.344C166.457 173.833 166.206 174.995 165.777 176.525C165.532 177.406 165.047 178.424 164.625 179.219V172.485ZM167.92 173.725C168.715 173.894 169.537 173.987 170.381 173.987H174.543V180.584H167.462C166.769 180.584 166.083 180.635 165.406 180.728C165.885 179.915 166.726 178.382 167.138 176.906V176.904C167.556 175.409 167.801 174.291 167.92 173.725ZM105.378 175.513C104.991 175.513 104.672 175.831 104.672 176.218V195C104.672 195.387 104.99 195.706 105.378 195.706H109.17C109.557 195.706 109.875 195.388 109.876 195V176.218C109.875 175.832 109.557 175.513 109.17 175.513H105.378ZM127.465 175.513C127.078 175.513 126.759 175.831 126.759 176.218V179.395C126.759 179.783 127.078 180.101 127.465 180.101H132.332V195C132.332 195.387 132.65 195.706 133.038 195.706H136.83C137.216 195.706 137.536 195.388 137.536 195V180.101H142.39C142.776 180.101 143.096 179.783 143.096 179.395V176.218C143.096 175.832 142.777 175.513 142.39 175.513H127.465ZM30.8044 176.465C30.8291 176.485 30.8553 176.505 30.88 176.526C30.7436 176.644 30.6016 176.767 30.4328 176.89C29.987 177.216 29.4776 177.552 29.0841 177.837C26.0604 180.03 25.2734 183.756 24.6334 187.881C24.6101 188.027 24.586 188.173 24.5613 188.317C24.4257 189.091 24.2378 189.911 23.9177 190.552C23.5991 191.192 23.1964 191.631 22.5436 191.838C22.526 191.843 22.4059 191.643 22.4151 191.614C22.425 191.586 22.4454 191.526 22.6072 191.436C22.6108 191.434 22.6143 191.432 22.6178 191.431C23.3476 191.01 23.8089 190.335 24.0802 189.6C24.3515 188.866 24.4652 188.056 24.5564 187.201C24.7394 185.492 24.8255 183.59 25.5059 181.847C26.4412 179.456 28.466 177.469 30.8044 176.465ZM106.084 176.923H108.465V194.293H106.084V176.923ZM128.171 176.923H141.684V178.689H136.83C136.443 178.689 136.124 179.008 136.124 179.395V194.293H133.743V179.395C133.743 179.008 133.424 178.689 133.037 178.689H128.17L128.171 176.923ZM55.723 178.353C56.0635 178.353 56.327 178.615 56.327 178.957C56.327 179.296 56.0635 179.561 55.723 179.561C55.3825 179.561 55.1182 179.296 55.1182 178.957C55.1182 178.615 55.3811 178.353 55.723 178.353ZM119.849 179.464C118.413 179.464 117.081 179.786 115.893 180.434C114.695 181.087 113.751 182.055 113.102 183.287C112.465 184.497 112.137 185.776 112.137 187.087C112.137 188.738 112.449 190.187 113.105 191.401C113.76 192.611 114.742 193.552 115.993 194.175C117.217 194.785 118.523 195.094 119.875 195.094C122.049 195.094 123.94 194.333 125.394 192.852C126.847 191.371 127.588 189.45 127.588 187.24C127.588 185.048 126.855 183.144 125.413 181.679C123.969 180.212 122.06 179.464 119.849 179.464ZM119.849 180.875C121.755 180.875 123.22 181.464 124.407 182.67C125.596 183.879 126.176 185.351 126.176 187.241C126.176 189.147 125.591 190.638 124.388 191.865C123.184 193.091 121.733 193.684 119.875 193.684C118.735 193.684 117.661 193.429 116.622 192.912C115.61 192.407 114.871 191.696 114.347 190.729C113.825 189.764 113.547 188.563 113.547 187.088C113.547 186.008 113.81 184.972 114.351 183.944C114.881 182.938 115.605 182.198 116.568 181.673C117.541 181.142 118.621 180.875 119.849 180.875ZM167.462 181.994H174.543V185.627C174.543 185.847 174.646 186.053 174.82 186.187C177.525 188.255 180.301 189.3 183.09 189.284C185.88 189.267 188.644 188.195 191.345 186.194C191.521 186.063 191.626 185.859 191.63 185.64L191.698 181.994H203.225C209.813 181.994 215.137 187.321 215.137 193.909V212.818H153.843V195.615C153.843 192.002 155.277 188.538 157.831 185.984C159.461 184.354 161.462 183.186 163.635 182.55C163.676 182.568 164.457 182.365 164.478 182.337C165.45 182.118 166.449 181.994 167.462 181.994ZM119.862 182.398C118.743 182.398 117.721 182.863 116.966 183.708C116.179 184.59 115.825 185.818 115.825 187.28C115.825 188.741 116.179 189.968 116.966 190.851C117.721 191.696 118.743 192.161 119.862 192.161C120.981 192.161 122.004 191.694 122.754 190.848C123.538 189.964 123.886 188.73 123.886 187.253C123.886 185.809 123.535 184.591 122.754 183.711C122.004 182.865 120.981 182.398 119.862 182.398ZM119.862 183.809C120.622 183.809 121.176 184.059 121.697 184.648C122.19 185.203 122.475 186.034 122.475 187.254C122.475 188.511 122.186 189.361 121.697 189.912C121.176 190.5 120.622 190.75 119.862 190.75C119.102 190.75 118.546 190.5 118.019 189.911C117.525 189.357 117.236 188.517 117.236 187.28C117.236 186.043 117.524 185.203 118.019 184.649C118.546 184.059 119.102 183.809 119.862 183.809ZM155.86 186.059C153.653 188.738 152.43 192.115 152.43 195.616V261.934L137.276 261.852C137.433 260.848 143.43 222.487 147.009 199.667C147.917 193.865 151.264 189.031 155.86 186.059ZM214.484 186.815C218.038 189.531 220.557 193.411 221.574 197.808C223.626 206.674 226.203 217.81 228.509 227.774C228.463 227.87 228.439 227.975 228.439 228.08C228.439 228.467 228.758 228.786 229.145 228.786C229.35 228.786 229.544 228.697 229.678 228.542L248.716 206.763L260.649 217.71C260.702 217.791 260.771 217.859 260.853 217.911L261.623 218.672C261.122 219.302 242.085 243.19 231.474 256.505C229.83 258.567 227.416 259.869 224.788 260.105C222.385 260.321 218.793 258.256 216.753 256.473C216.693 256.42 216.623 256.377 216.546 256.347V193.908C216.547 191.299 215.784 188.872 214.484 186.815ZM252.429 188.77C252.511 188.752 252.769 188.787 253.152 189.039C253.535 189.292 254.004 189.725 254.482 190.274C255.438 191.373 256.446 192.929 257.215 194.44C257.336 194.677 257.579 194.826 257.844 194.826C257.961 194.826 258.077 194.796 258.179 194.741C258.863 194.37 259.358 194.123 259.358 194.123C259.481 194.062 259.585 193.966 259.654 193.848C259.654 193.848 260.646 192.156 261.948 190.747C262.6 190.042 263.332 189.421 263.971 189.123C264.612 188.826 265.052 188.8 265.549 189.157C267.967 190.894 270.187 193.581 271.38 196.286C272.573 198.99 272.731 201.609 271.344 203.468C267.024 209.258 262.374 214.857 261.195 216.268L250.444 206.404C251.046 205.413 252.446 202.994 253.618 200.089C253.654 199.998 253.672 199.901 253.669 199.803C253.638 198.78 253.222 197.752 252.792 196.726C252.361 195.7 251.901 194.68 251.698 193.85C251.359 192.466 251.142 191.156 251.244 190.259C251.295 189.812 251.418 189.483 251.592 189.256C251.769 189.029 251.999 188.866 252.429 188.77ZM153.842 214.229H215.136V236.825H153.842V214.229ZM123.254 234.12C120.776 234.12 118.753 236.144 118.753 238.622C118.753 241.101 120.777 243.125 123.254 243.125C125.733 243.125 127.757 241.1 127.757 238.622C127.757 236.143 125.733 234.12 123.254 234.12ZM123.254 235.531C124.97 235.531 126.346 236.907 126.346 238.623C126.346 240.338 124.97 241.715 123.254 241.715C121.539 241.715 120.164 240.338 120.164 238.623C120.164 236.906 121.539 235.531 123.254 235.531ZM153.842 238.237H215.136V261.893H153.842V238.237Z" fill="#262626"/>
</svg>
