<?xml version="1.0" encoding="utf-8"?>
<!-- Generator: Adobe Illustrator 24.1.0, SVG Export Plug-In . SVG Version: 6.00 Build 0)  -->
<svg version="1.1" id="Capa_1" xmlns="http://www.w3.org/2000/svg" xmlns:xlink="http://www.w3.org/1999/xlink" x="0px" y="0px"
	 viewBox="0 0 619 762" style="enable-background:new 0 0 619 762;" xml:space="preserve">
<style type="text/css">
	.st0{fill:#798084;}
</style>
<g>
	<g>
		<g>
			<g>
				<g>
					<path class="st0" d="M61.5,653.8v-0.2c0-21.5,16.2-39.1,39.4-39.1c14.2,0,22.8,4.7,29.8,11.7l-10.6,12.2
						c-5.8-5.3-11.8-8.5-19.3-8.5c-12.7,0-21.9,10.6-21.9,23.5v0.2c0,12.9,9,23.7,21.9,23.7c8.6,0,13.9-3.5,19.9-8.8l10.6,10.7
						c-7.8,8.3-16.4,13.5-31,13.5C78,692.6,61.5,675.5,61.5,653.8z"/>
					<path class="st0" d="M143.5,633.5h16.4v57.8h-16.4V633.5z"/>
					<path class="st0" d="M174.9,670.9v-37.4h16.4v32.3c0,7.8,3.7,11.8,9.9,11.8s10.2-4,10.2-11.8v-32.3h16.4v57.8h-16.4v-8.2
						c-3.8,4.9-8.6,9.3-16.9,9.3C182.1,692.4,174.9,684.2,174.9,670.9z"/>
					<path class="st0" d="M240,662.5v-0.2c0-19.3,12.6-29.9,26.3-29.9c8.7,0,14.1,4,18,8.6v-28.5h16.4v78.8h-16.4V683
						c-4,5.4-9.5,9.4-18,9.4C252.8,692.4,240,681.8,240,662.5z M284.5,662.5v-0.2c0-9.6-6.4-16-14-16s-14.1,6.3-14.1,16v0.2
						c0,9.6,6.5,16,14.1,16S284.5,672.1,284.5,662.5z"/>
					<path class="st0" d="M311.9,674.7v-0.2c0-12.6,9.6-18.4,23.3-18.4c5.8,0,14.1,0.2,14.1,0.2c0-6.7-5.5-9.4-12.4-9.4
						c-6.3,0-10.7,1.2-16,3.1l-4.1-12.5c6.4-2.8,12.6-4.6,22.4-4.6c9,0,15.4,2.4,19.5,6.5c4.3,4.3,6.3,10.7,6.3,18.4v33.6h-15.9
						v-6.3c-4,4.4-9.5,7.3-17.5,7.3C320.9,692.4,311.9,686.2,311.9,674.7z M349.6,670.9V667c0,0-6.5,0-10.5,0
						c-7,0-11.3,1.6-11.3,6.8v0.2c0,4.4,3.7,7,9,7C344.4,681.1,349.6,676.9,349.6,670.9z"/>
					<path class="st0" d="M375.5,662.5v-0.2c0-19.3,12.6-29.9,26.3-29.9c8.7,0,14.1,4,18,8.6v-28.5h16.4v78.8h-16.4V683
						c-4,5.4-9.5,9.4-18,9.4C388.3,692.4,375.5,681.8,375.5,662.5z M420,662.5v-0.2c0-9.6-6.4-16-14-16c-7.7,0-14.1,6.3-14.1,16v0.2
						c0,9.6,6.5,16,14.1,16C413.7,678.5,420,672.1,420,662.5z"/>
					<path class="st0" d="M446.9,662.7v-0.2c0-16.5,11.8-30.1,28.6-30.1c19.3,0,28.2,15,28.2,31.4c0,1.3-0.1,2.8-0.2,4.3h-40.2
						c1.6,7.4,6.8,11.3,14.1,11.3c5.5,0,9.5-1.7,14-5.9l9.4,8.3c-5.4,6.7-13.2,10.8-23.6,10.8C459.7,692.6,446.9,680.4,446.9,662.7z
						 M487.7,657.9c-1-7.3-5.3-12.3-12.2-12.3c-6.8,0-11.2,4.9-12.5,12.3H487.7z"/>
					<path class="st0" d="M511.3,683.8l7-10.8c6.3,4.5,12.8,6.9,18.2,6.9c4.7,0,6.9-1.7,6.9-4.3v-0.2c0-3.6-5.6-4.7-12-6.7
						c-8.1-2.4-17.3-6.1-17.3-17.4v-0.2c0-11.8,9.5-18.3,21.1-18.3c7.3,0,15.3,2.5,21.6,6.7l-6.3,11.3c-5.7-3.3-11.4-5.4-15.6-5.4
						c-4,0-6,1.7-6,4v0.2c0,3.2,5.5,4.7,11.8,6.9c8.1,2.7,17.5,6.6,17.5,17.2v0.2c0,12.8-9.6,18.7-22.1,18.7
						C528,692.5,519,689.8,511.3,683.8z"/>
				</g>
				<circle class="st0" cx="151.7" cy="618.5" r="8.6"/>
			</g>
		</g>
	</g>
	<g>
		<circle class="st0" cx="72.8" cy="82.1" r="5.7"/>
		<circle class="st0" cx="124.8" cy="82.1" r="5.7"/>
		<circle class="st0" cx="176.8" cy="82.1" r="10.4"/>
		<path class="st0" d="M228.8,97.7c8.6,0,15.6-7,15.6-15.6s-7-15.6-15.6-15.6c-8.6,0-15.6,7-15.6,15.6S220.2,97.7,228.8,97.7z"/>
		<path class="st0" d="M280.9,97.7c8.6,0,15.6-7,15.6-15.6s-7-15.6-15.6-15.6c-8.6,0-15.6,7-15.6,15.6S272.3,97.7,280.9,97.7z"/>
		<path class="st0" d="M332.9,97.7c8.6,0,15.6-7,15.6-15.6s-7-15.6-15.6-15.6c-8.6,0-15.6,7-15.6,15.6S324.3,97.7,332.9,97.7z"/>
		<circle class="st0" cx="384.9" cy="82.1" r="10.4"/>
		<circle class="st0" cx="436.9" cy="82.1" r="5.7"/>
		<circle class="st0" cx="488.9" cy="82.1" r="5.7"/>
		<circle class="st0" cx="72.8" cy="134.1" r="5.7"/>
		<circle class="st0" cx="124.8" cy="134.1" r="10.4"/>
		<path class="st0" d="M176.8,149.8c8.6,0,15.6-7,15.6-15.6c0-8.6-7-15.6-15.6-15.6c-8.6,0-15.6,7-15.6,15.6
			C161.2,142.8,168.2,149.8,176.8,149.8z"/>
		<path class="st0" d="M228.8,113.3c-11.5,0-20.8,9.3-20.8,20.8s9.3,20.8,20.8,20.8s20.8-9.3,20.8-20.8S240.3,113.3,228.8,113.3z"/>
		<path class="st0" d="M280.9,113.3c-11.5,0-20.8,9.3-20.8,20.8s9.3,20.8,20.8,20.8c11.5,0,20.8-9.3,20.8-20.8
			S292.3,113.3,280.9,113.3z"/>
		<path class="st0" d="M332.9,113.3c-11.5,0-20.8,9.3-20.8,20.8s9.3,20.8,20.8,20.8c11.5,0,20.8-9.3,20.8-20.8
			S344.4,113.3,332.9,113.3z"/>
		<path class="st0" d="M384.9,113.3c-11.5,0-20.8,9.3-20.8,20.8s9.3,20.8,20.8,20.8c11.5,0,20.8-9.3,20.8-20.8
			S396.4,113.3,384.9,113.3z"/>
		<path class="st0" d="M436.9,149.8c8.6,0,15.6-7,15.6-15.6c0-8.6-7-15.6-15.6-15.6s-15.6,7-15.6,15.6
			C421.3,142.8,428.3,149.8,436.9,149.8z"/>
		<circle class="st0" cx="488.9" cy="134.1" r="10.4"/>
		<circle class="st0" cx="72.8" cy="186.2" r="10.4"/>
		<path class="st0" d="M124.8,201.8c8.6,0,15.6-7,15.6-15.6s-7-15.6-15.6-15.6s-15.6,7-15.6,15.6S116.2,201.8,124.8,201.8z"/>
		<path class="st0" d="M176.8,165.4c-11.5,0-20.8,9.3-20.8,20.8s9.3,20.8,20.8,20.8s20.8-9.3,20.8-20.8S188.3,165.4,176.8,165.4z"/>
		<path class="st0" d="M244.5,186.2c0-8.6-7-15.6-15.6-15.6c-8.6,0-15.6,7-15.6,15.6s7,15.6,15.6,15.6
			C237.5,201.8,244.5,194.8,244.5,186.2z"/>
		<path class="st0" d="M296.5,186.2c0-8.6-7-15.6-15.6-15.6c-8.6,0-15.6,7-15.6,15.6s7,15.6,15.6,15.6
			C289.5,201.8,296.5,194.8,296.5,186.2z"/>
		<path class="st0" d="M348.5,186.2c0-8.6-7-15.6-15.6-15.6c-8.6,0-15.6,7-15.6,15.6s7,15.6,15.6,15.6
			C341.5,201.8,348.5,194.8,348.5,186.2z"/>
		<path class="st0" d="M400.5,186.2c0-8.6-7-15.6-15.6-15.6c-8.6,0-15.6,7-15.6,15.6s7,15.6,15.6,15.6
			C393.5,201.8,400.5,194.8,400.5,186.2z"/>
		<path class="st0" d="M436.9,165.4c-11.5,0-20.8,9.3-20.8,20.8s9.3,20.8,20.8,20.8c11.5,0,20.8-9.3,20.8-20.8
			S448.4,165.4,436.9,165.4z"/>
		<path class="st0" d="M488.9,165.4c-11.5,0-20.8,9.3-20.8,20.8s9.3,20.8,20.8,20.8s20.8-9.3,20.8-20.8S500.4,165.4,488.9,165.4z"/>
		<path class="st0" d="M72.8,253.8c8.6,0,15.6-7,15.6-15.6c0-8.6-7-15.6-15.6-15.6s-15.6,7-15.6,15.6
			C57.2,246.8,64.2,253.8,72.8,253.8z"/>
		<path class="st0" d="M124.8,217.4c-11.5,0-20.8,9.3-20.8,20.8s9.3,20.8,20.8,20.8s20.8-9.3,20.8-20.8S136.3,217.4,124.8,217.4z"/>
		<path class="st0" d="M192.4,238.2c0-8.6-7-15.6-15.6-15.6c-8.6,0-15.6,7-15.6,15.6c0,8.6,7,15.6,15.6,15.6
			C185.4,253.8,192.4,246.8,192.4,238.2z"/>
		<circle class="st0" cx="228.8" cy="238.2" r="10.4"/>
		<circle class="st0" cx="280.9" cy="238.2" r="10.4"/>
		<circle class="st0" cx="332.9" cy="238.2" r="10.4"/>
		<circle class="st0" cx="384.9" cy="238.2" r="10.4"/>
		<path class="st0" d="M452.5,238.2c0-8.6-7-15.6-15.6-15.6s-15.6,7-15.6,15.6c0,8.6,7,15.6,15.6,15.6S452.5,246.8,452.5,238.2z"/>
		<circle class="st0" cx="488.9" cy="238.2" r="10.4"/>
		<path class="st0" d="M72.8,269.4c-11.5,0-20.8,9.3-20.8,20.8S61.3,311,72.8,311s20.8-9.3,20.8-20.8S84.3,269.4,72.8,269.4z"/>
		<path class="st0" d="M124.8,269.4c-11.5,0-20.8,9.3-20.8,20.8s9.3,20.8,20.8,20.8s20.8-9.3,20.8-20.8S136.3,269.4,124.8,269.4z"/>
		<path class="st0" d="M176.8,279.8c-5.7,0-10.4,4.7-10.4,10.4c0,5.7,4.7,10.4,10.4,10.4c5.7,0,10.4-4.7,10.4-10.4
			C187.2,284.5,182.6,279.8,176.8,279.8z"/>
		<path class="st0" d="M72.8,321.4c-11.5,0-20.8,9.3-20.8,20.8S61.3,363,72.8,363s20.8-9.3,20.8-20.8S84.3,321.4,72.8,321.4z"/>
		<path class="st0" d="M124.8,321.4c-11.5,0-20.8,9.3-20.8,20.8s9.3,20.8,20.8,20.8s20.8-9.3,20.8-20.8S136.3,321.4,124.8,321.4z"/>
		<path class="st0" d="M176.8,331.8c-5.7,0-10.4,4.7-10.4,10.4c0,5.7,4.7,10.4,10.4,10.4c5.7,0,10.4-4.7,10.4-10.4
			C187.2,336.5,182.6,331.8,176.8,331.8z"/>
		<path class="st0" d="M228.8,295.9c3.2,0,5.7-2.6,5.7-5.7c0-3.2-2.6-5.7-5.7-5.7s-5.7,2.6-5.7,5.7
			C223.1,293.4,225.7,295.9,228.8,295.9z"/>
		<path class="st0" d="M228.8,348c3.2,0,5.7-2.6,5.7-5.7c0-3.2-2.6-5.7-5.7-5.7s-5.7,2.6-5.7,5.7C223.1,345.4,225.7,348,228.8,348z"
			/>
		<path class="st0" d="M72.8,378.6c-8.6,0-15.6,7-15.6,15.6c0,8.6,7,15.6,15.6,15.6s15.6-7,15.6-15.6
			C88.4,385.6,81.4,378.6,72.8,378.6z"/>
		<path class="st0" d="M124.8,373.4c-11.5,0-20.8,9.3-20.8,20.8s9.3,20.8,20.8,20.8s20.8-9.3,20.8-20.8S136.3,373.4,124.8,373.4z"/>
		<path class="st0" d="M176.8,409.9c8.6,0,15.6-7,15.6-15.6c0-8.6-7-15.6-15.6-15.6c-8.6,0-15.6,7-15.6,15.6
			C161.2,402.9,168.2,409.9,176.8,409.9z"/>
		<path class="st0" d="M218.4,394.3c0,5.7,4.7,10.4,10.4,10.4c5.7,0,10.4-4.7,10.4-10.4c0-5.7-4.7-10.4-10.4-10.4
			C223.1,383.8,218.4,388.5,218.4,394.3z"/>
		<path class="st0" d="M270.5,394.3c0,5.7,4.7,10.4,10.4,10.4c5.7,0,10.4-4.7,10.4-10.4c0-5.7-4.7-10.4-10.4-10.4
			C275.1,383.8,270.5,388.5,270.5,394.3z"/>
		<path class="st0" d="M322.5,394.3c0,5.7,4.7,10.4,10.4,10.4c5.7,0,10.4-4.7,10.4-10.4c0-5.7-4.7-10.4-10.4-10.4
			C327.2,383.8,322.5,388.5,322.5,394.3z"/>
		<path class="st0" d="M374.5,394.3c0,5.7,4.7,10.4,10.4,10.4s10.4-4.7,10.4-10.4c0-5.7-4.7-10.4-10.4-10.4S374.5,388.5,374.5,394.3
			z"/>
		<path class="st0" d="M436.9,409.9c8.6,0,15.6-7,15.6-15.6c0-8.6-7-15.6-15.6-15.6s-15.6,7-15.6,15.6
			C421.3,402.9,428.3,409.9,436.9,409.9z"/>
		<path class="st0" d="M488.9,404.7c5.7,0,10.4-4.7,10.4-10.4c0-5.7-4.7-10.4-10.4-10.4s-10.4,4.7-10.4,10.4
			C478.5,400,483.2,404.7,488.9,404.7z"/>
		<path class="st0" d="M72.8,435.9c-5.7,0-10.4,4.7-10.4,10.4c0,5.7,4.7,10.4,10.4,10.4c5.7,0,10.4-4.7,10.4-10.4
			C83.2,440.5,78.5,435.9,72.8,435.9z"/>
		<path class="st0" d="M124.8,430.7c-8.6,0-15.6,7-15.6,15.6c0,8.6,7,15.6,15.6,15.6s15.6-7,15.6-15.6
			C140.4,437.7,133.4,430.7,124.8,430.7z"/>
		<path class="st0" d="M176.8,425.5c-11.5,0-20.8,9.3-20.8,20.8s9.3,20.8,20.8,20.8s20.8-9.3,20.8-20.8S188.3,425.5,176.8,425.5z"/>
		<path class="st0" d="M228.8,461.9c8.6,0,15.6-7,15.6-15.6c0-8.6-7-15.6-15.6-15.6c-8.6,0-15.6,7-15.6,15.6
			C213.2,454.9,220.2,461.9,228.8,461.9z"/>
		<path class="st0" d="M280.9,461.9c8.6,0,15.6-7,15.6-15.6c0-8.6-7-15.6-15.6-15.6c-8.6,0-15.6,7-15.6,15.6
			C265.3,454.9,272.3,461.9,280.9,461.9z"/>
		<path class="st0" d="M332.9,461.9c8.6,0,15.6-7,15.6-15.6c0-8.6-7-15.6-15.6-15.6c-8.6,0-15.6,7-15.6,15.6
			C317.3,454.9,324.3,461.9,332.9,461.9z"/>
		<path class="st0" d="M384.9,461.9c8.6,0,15.6-7,15.6-15.6c0-8.6-7-15.6-15.6-15.6c-8.6,0-15.6,7-15.6,15.6
			C369.3,454.9,376.3,461.9,384.9,461.9z"/>
		<path class="st0" d="M436.9,425.5c-11.5,0-20.8,9.3-20.8,20.8s9.3,20.8,20.8,20.8c11.5,0,20.8-9.3,20.8-20.8
			S448.4,425.5,436.9,425.5z"/>
		<path class="st0" d="M488.9,425.5c-11.5,0-20.8,9.3-20.8,20.8s9.3,20.8,20.8,20.8s20.8-9.3,20.8-20.8S500.4,425.5,488.9,425.5z"/>
		<circle class="st0" cx="72.8" cy="498.3" r="5.7"/>
		<circle class="st0" cx="124.8" cy="498.3" r="10.4"/>
		<path class="st0" d="M176.8,482.7c-8.6,0-15.6,7-15.6,15.6s7,15.6,15.6,15.6c8.6,0,15.6-7,15.6-15.6S185.4,482.7,176.8,482.7z"/>
		<path class="st0" d="M228.8,477.5c-11.5,0-20.8,9.3-20.8,20.8s9.3,20.8,20.8,20.8s20.8-9.3,20.8-20.8S240.3,477.5,228.8,477.5z"/>
		<path class="st0" d="M280.9,477.5c-11.5,0-20.8,9.3-20.8,20.8s9.3,20.8,20.8,20.8c11.5,0,20.8-9.3,20.8-20.8
			S292.3,477.5,280.9,477.5z"/>
		<path class="st0" d="M332.9,477.5c-11.5,0-20.8,9.3-20.8,20.8s9.3,20.8,20.8,20.8c11.5,0,20.8-9.3,20.8-20.8
			S344.4,477.5,332.9,477.5z"/>
		<path class="st0" d="M384.9,477.5c-11.5,0-20.8,9.3-20.8,20.8s9.3,20.8,20.8,20.8c11.5,0,20.8-9.3,20.8-20.8
			S396.4,477.5,384.9,477.5z"/>
		<path class="st0" d="M436.9,482.7c-8.6,0-15.6,7-15.6,15.6s7,15.6,15.6,15.6s15.6-7,15.6-15.6S445.5,482.7,436.9,482.7z"/>
		<circle class="st0" cx="488.9" cy="498.3" r="10.4"/>
		<circle class="st0" cx="72.8" cy="550.3" r="5.7"/>
		<circle class="st0" cx="124.8" cy="550.3" r="5.7"/>
		<circle class="st0" cx="176.8" cy="550.3" r="10.4"/>
		<path class="st0" d="M228.8,534.7c-8.6,0-15.6,7-15.6,15.6s7,15.6,15.6,15.6c8.6,0,15.6-7,15.6-15.6S237.5,534.7,228.8,534.7z"/>
		<path class="st0" d="M280.9,534.7c-8.6,0-15.6,7-15.6,15.6s7,15.6,15.6,15.6c8.6,0,15.6-7,15.6-15.6S289.5,534.7,280.9,534.7z"/>
		<path class="st0" d="M332.9,534.7c-8.6,0-15.6,7-15.6,15.6s7,15.6,15.6,15.6c8.6,0,15.6-7,15.6-15.6S341.5,534.7,332.9,534.7z"/>
		<circle class="st0" cx="384.9" cy="550.3" r="10.4"/>
		<circle class="st0" cx="436.9" cy="550.3" r="5.7"/>
		<circle class="st0" cx="488.9" cy="550.3" r="5.7"/>
		<circle class="st0" cx="541" cy="82.1" r="5.7"/>
		<circle class="st0" cx="541" cy="134.1" r="5.7"/>
		<circle class="st0" cx="541" cy="186.2" r="5.7"/>
		<circle class="st0" cx="541" cy="238.2" r="10.4"/>
		<path class="st0" d="M280.9,295.9c3.2,0,5.7-2.6,5.7-5.7c0-3.2-2.6-5.7-5.7-5.7s-5.7,2.6-5.7,5.7
			C275.1,293.4,277.7,295.9,280.9,295.9z"/>
		<path class="st0" d="M332.9,295.9c3.2,0,5.7-2.6,5.7-5.7c0-3.2-2.6-5.7-5.7-5.7s-5.7,2.6-5.7,5.7
			C327.2,293.4,329.7,295.9,332.9,295.9z"/>
		<path class="st0" d="M384.9,295.9c3.2,0,5.7-2.6,5.7-5.7c0-3.2-2.6-5.7-5.7-5.7s-5.7,2.6-5.7,5.7
			C379.2,293.4,381.8,295.9,384.9,295.9z"/>
		<path class="st0" d="M436.9,284.5c-3.2,0-5.7,2.6-5.7,5.7c0,3.2,2.6,5.7,5.7,5.7s5.7-2.6,5.7-5.7
			C442.6,287.1,440.1,284.5,436.9,284.5z"/>
		<path class="st0" d="M488.9,284.5c-3.2,0-5.7,2.6-5.7,5.7c0,3.2,2.6,5.7,5.7,5.7s5.7-2.6,5.7-5.7
			C494.7,287.1,492.1,284.5,488.9,284.5z"/>
		<path class="st0" d="M280.9,348c3.2,0,5.7-2.6,5.7-5.7c0-3.2-2.6-5.7-5.7-5.7s-5.7,2.6-5.7,5.7C275.1,345.4,277.7,348,280.9,348z"
			/>
		<path class="st0" d="M332.9,348c3.2,0,5.7-2.6,5.7-5.7c0-3.2-2.6-5.7-5.7-5.7s-5.7,2.6-5.7,5.7C327.2,345.4,329.7,348,332.9,348z"
			/>
		<path class="st0" d="M384.9,348c3.2,0,5.7-2.6,5.7-5.7c0-3.2-2.6-5.7-5.7-5.7s-5.7,2.6-5.7,5.7C379.2,345.4,381.8,348,384.9,348z"
			/>
		<path class="st0" d="M436.9,336.5c-3.2,0-5.7,2.6-5.7,5.7c0,3.2,2.6,5.7,5.7,5.7s5.7-2.6,5.7-5.7
			C442.6,339.1,440.1,336.5,436.9,336.5z"/>
		<path class="st0" d="M488.9,336.5c-3.2,0-5.7,2.6-5.7,5.7c0,3.2,2.6,5.7,5.7,5.7s5.7-2.6,5.7-5.7
			C494.7,339.1,492.1,336.5,488.9,336.5z"/>
		<path class="st0" d="M541,284.5c-3.2,0-5.7,2.6-5.7,5.7c0,3.2,2.6,5.7,5.7,5.7c3.2,0,5.7-2.6,5.7-5.7
			C546.7,287.1,544.1,284.5,541,284.5z"/>
		<path class="st0" d="M541,336.5c-3.2,0-5.7,2.6-5.7,5.7c0,3.2,2.6,5.7,5.7,5.7c3.2,0,5.7-2.6,5.7-5.7
			C546.7,339.1,544.1,336.5,541,336.5z"/>
		<path class="st0" d="M541,383.8c-5.7,0-10.4,4.7-10.4,10.4c0,5.7,4.7,10.4,10.4,10.4c5.7,0,10.4-4.7,10.4-10.4
			C551.4,388.5,546.7,383.8,541,383.8z"/>
		<path class="st0" d="M541,440.6c-3.2,0-5.7,2.6-5.7,5.7c0,3.2,2.6,5.7,5.7,5.7c3.2,0,5.7-2.6,5.7-5.7
			C546.7,443.1,544.1,440.6,541,440.6z"/>
		<circle class="st0" cx="541" cy="498.3" r="5.7"/>
		<circle class="st0" cx="541" cy="550.3" r="5.7"/>
	</g>
</g>
</svg>
