<?xml version="1.0" encoding="utf-8"?>
<!-- Generator: Adobe Illustrator 24.1.0, SVG Export Plug-In . SVG Version: 6.00 Build 0)  -->
<svg version="1.1" id="Capa_1" xmlns="http://www.w3.org/2000/svg" xmlns:xlink="http://www.w3.org/1999/xlink" x="0px" y="0px"
	 viewBox="0 0 500 492" style="enable-background:new 0 0 500 492;" xml:space="preserve">
<style type="text/css">
	.st0{fill:#697984;}
</style>
<g>
	<g>
		<path class="st0" d="M447,256.3c2.7,0,5.4-1.2,7.3-3c1.8-1.8,3.1-4.7,3-7.3c-0.3-5.6-4.5-10.3-10.3-10.3c-2.7,0-5.4,1.2-7.3,3
			c-1.8,1.8-3.1,4.7-3,7.3C436.9,251.6,441.2,256.3,447,256.3L447,256.3z"/>
	</g>
	<g>
		<path class="st0" d="M447,453.4c2.7,0,5.4-1.2,7.3-3c1.8-1.8,3.1-4.7,3-7.3c-0.3-5.6-4.5-10.3-10.3-10.3c-2.7,0-5.4,1.2-7.3,3
			c-1.8,1.8-3.1,4.7-3,7.3C436.9,448.6,441.2,453.4,447,453.4L447,453.4z"/>
	</g>
	<g>
		<path class="st0" d="M53,453.4c2.7,0,5.4-1.2,7.3-3c1.8-1.8,3.1-4.7,3-7.3c-0.3-5.6-4.5-10.3-10.3-10.3c-2.7,0-5.4,1.2-7.3,3
			c-1.8,1.8-3.1,4.7-3,7.3C42.9,448.6,47.2,453.4,53,453.4L53,453.4z"/>
	</g>
	<g>
		<path class="st0" d="M53,59.3c2.7,0,5.4-1.2,7.3-3c1.8-1.8,3.1-4.7,3-7.3c-0.3-5.6-4.5-10.3-10.3-10.3c-2.7,0-5.4,1.2-7.3,3
			c-1.8,1.8-3.1,4.7-3,7.3C42.9,54.6,47.2,59.3,53,59.3L53,59.3z"/>
	</g>
	<g>
		<path class="st0" d="M447,59.3c2.7,0,5.4-1.2,7.3-3c1.8-1.8,3.1-4.7,3-7.3c-0.3-5.6-4.5-10.3-10.3-10.3c-2.7,0-5.4,1.2-7.3,3
			c-1.8,1.8-3.1,4.7-3,7.3C436.9,54.6,441.2,59.3,447,59.3L447,59.3z"/>
	</g>
	<g>
		<g>
			<path class="st0" d="M151.5,68.2c4.9,0,10.1-2.1,13.6-5.6c1.9-1.7,3.2-3.8,4-6.2c1.2-2.3,1.8-4.8,1.7-7.4
				c-0.2-5-1.9-10.1-5.6-13.6c-3.8-3.5-8.4-5.6-13.6-5.6c-4.9,0-10.1,2.1-13.6,5.6c-1.9,1.7-3.2,3.8-4,6.2c-1.2,2.3-1.8,4.8-1.7,7.4
				c0.2,5,1.9,10.1,5.6,13.6C141.7,66,146.3,68.2,151.5,68.2L151.5,68.2z"/>
		</g>
		<g>
			<path class="st0" d="M250,68.2c4.9,0,10.1-2.1,13.6-5.6c1.9-1.7,3.2-3.8,4-6.2c1.2-2.3,1.8-4.8,1.7-7.4c-0.2-5-1.9-10.1-5.6-13.6
				c-3.8-3.5-8.4-5.6-13.6-5.6c-4.9,0-10.1,2.1-13.6,5.6c-1.9,1.7-3.2,3.8-4,6.2c-1.2,2.3-1.8,4.8-1.7,7.4c0.2,5,1.9,10.1,5.6,13.6
				C240.2,66,244.8,68.2,250,68.2L250,68.2z"/>
		</g>
		<g>
			<path class="st0" d="M348.5,68.2c4.9,0,10.1-2.1,13.6-5.6c1.9-1.7,3.2-3.8,4-6.2c1.2-2.3,1.8-4.8,1.7-7.4
				c-0.2-5-1.9-10.1-5.6-13.6c-3.8-3.5-8.4-5.6-13.6-5.6c-4.9,0-10.1,2.1-13.6,5.6c-1.9,1.7-3.2,3.8-4,6.2c-1.2,2.3-1.8,4.8-1.7,7.4
				c0.2,5,1.9,10.1,5.6,13.6C338.7,66,343.3,68.2,348.5,68.2L348.5,68.2z"/>
		</g>
		<g>
			<path class="st0" d="M53,166.7c4.9,0,10.1-2.1,13.6-5.6c1.9-1.7,3.2-3.8,4-6.2c1.2-2.3,1.8-4.8,1.7-7.4c-0.2-5-1.9-10.1-5.6-13.6
				c-3.8-3.5-8.4-5.6-13.6-5.6c-4.9,0-10.1,2.1-13.6,5.6c-1.9,1.7-3.2,3.8-4,6.2c-1.2,2.3-1.8,4.8-1.7,7.4c0.2,5,1.9,10.1,5.6,13.6
				C43.1,164.5,47.8,166.7,53,166.7L53,166.7z"/>
		</g>
		<g>
			<path class="st0" d="M151.5,177c4.1,0.2,7.9-0.7,11.4-2.5c3.7-1.2,6.8-3.2,9.5-6.1c2.9-2.7,4.9-5.8,6.1-9.5
				c1.9-3.5,2.7-7.3,2.5-11.4c-0.4-2.6-0.7-5.2-1.1-7.9c-1.4-5-3.9-9.4-7.6-13c-2-1.5-4-3.1-6-4.6c-4.6-2.7-9.6-4-14.9-4
				c-4.1-0.2-7.9,0.7-11.4,2.5c-3.7,1.2-6.8,3.2-9.5,6.1c-2.9,2.7-4.9,5.8-6.1,9.5c-1.9,3.5-2.7,7.3-2.5,11.4
				c0.4,2.6,0.7,5.2,1.1,7.9c1.4,5,3.9,9.4,7.6,13c2,1.5,4,3.1,6,4.6C141.2,175.7,146.1,177,151.5,177L151.5,177z"/>
		</g>
		<g>
			<path class="st0" d="M250,177c4.1,0.2,7.9-0.7,11.4-2.5c3.7-1.2,6.8-3.2,9.5-6.1c2.9-2.7,4.9-5.8,6.1-9.5
				c1.9-3.5,2.7-7.3,2.5-11.4c-0.4-2.6-0.7-5.2-1.1-7.9c-1.4-5-3.9-9.4-7.6-13c-2-1.5-4-3.1-6-4.6c-4.6-2.7-9.6-4-14.9-4
				c-4.1-0.2-7.9,0.7-11.4,2.5c-3.7,1.2-6.8,3.2-9.5,6.1c-2.9,2.7-4.9,5.8-6.1,9.5c-1.9,3.5-2.7,7.3-2.5,11.4
				c0.4,2.6,0.7,5.2,1.1,7.9c1.4,5,3.9,9.4,7.6,13c2,1.5,4,3.1,6,4.6C239.7,175.7,244.7,177,250,177L250,177z"/>
		</g>
		<g>
			<path class="st0" d="M348.5,177c4.1,0.2,7.9-0.7,11.4-2.5c3.7-1.2,6.8-3.2,9.5-6.1c2.9-2.7,4.9-5.8,6.1-9.5
				c1.9-3.5,2.7-7.3,2.5-11.4c-0.4-2.6-0.7-5.2-1.1-7.9c-1.4-5-3.9-9.4-7.6-13c-2-1.5-4-3.1-6-4.6c-4.6-2.7-9.6-4-14.9-4
				c-4.1-0.2-7.9,0.7-11.4,2.5c-3.7,1.2-6.8,3.2-9.5,6.1c-2.9,2.7-4.9,5.8-6.1,9.5c-1.9,3.5-2.7,7.3-2.5,11.4
				c0.4,2.6,0.7,5.2,1.1,7.9c1.4,5,3.9,9.4,7.6,13c2,1.5,4,3.1,6,4.6C338.2,175.7,343.2,177,348.5,177L348.5,177z"/>
		</g>
		<g>
			<path class="st0" d="M447,166.7c4.9,0,10.1-2.1,13.6-5.6c1.9-1.7,3.2-3.8,4-6.2c1.2-2.3,1.8-4.8,1.7-7.4
				c-0.2-5-1.9-10.1-5.6-13.6c-3.8-3.5-8.4-5.6-13.6-5.6c-4.9,0-10.1,2.1-13.6,5.6c-1.9,1.7-3.2,3.8-4,6.2c-1.2,2.3-1.8,4.8-1.7,7.4
				c0.2,5,1.9,10.1,5.6,13.6C437.2,164.5,441.8,166.7,447,166.7L447,166.7z"/>
		</g>
		<g>
			<path class="st0" d="M53,265.2c4.9,0,10.1-2.1,13.6-5.6c1.9-1.7,3.2-3.8,4-6.2c1.2-2.3,1.8-4.8,1.7-7.4c-0.2-5-1.9-10.1-5.6-13.6
				c-3.8-3.5-8.4-5.6-13.6-5.6c-4.9,0-10.1,2.1-13.6,5.6c-1.9,1.7-3.2,3.8-4,6.2c-1.2,2.3-1.8,4.8-1.7,7.4c0.2,5,1.9,10.1,5.6,13.6
				C43.1,263,47.8,265.2,53,265.2L53,265.2z"/>
		</g>
		<g>
			<path class="st0" d="M151.5,275.6c4.1,0.2,7.9-0.7,11.4-2.5c3.7-1.2,6.8-3.2,9.5-6.1c2.9-2.7,4.9-5.8,6.1-9.5
				c1.9-3.5,2.7-7.3,2.5-11.4c-0.4-2.6-0.7-5.2-1.1-7.9c-1.4-5-3.9-9.4-7.6-13c-2-1.5-4-3.1-6-4.6c-4.6-2.7-9.6-4-14.9-4
				c-4.1-0.2-7.9,0.7-11.4,2.5c-3.7,1.2-6.8,3.2-9.5,6.1c-2.9,2.7-4.9,5.8-6.1,9.5c-1.9,3.5-2.7,7.3-2.5,11.4
				c0.4,2.6,0.7,5.2,1.1,7.9c1.4,5,3.9,9.4,7.6,13c2,1.5,4,3.1,6,4.6C141.2,274.2,146.1,275.5,151.5,275.6L151.5,275.6z"/>
		</g>
		<g>
			<path class="st0" d="M250,265.2c4.9,0,10.1-2.1,13.6-5.6c1.9-1.7,3.2-3.8,4-6.2c1.2-2.3,1.8-4.8,1.7-7.4
				c-0.2-5-1.9-10.1-5.6-13.6c-3.8-3.5-8.4-5.6-13.6-5.6c-4.9,0-10.1,2.1-13.6,5.6c-1.9,1.7-3.2,3.8-4,6.2c-1.2,2.3-1.8,4.8-1.7,7.4
				c0.2,5,1.9,10.1,5.6,13.6C240.2,263,244.8,265.2,250,265.2L250,265.2z"/>
		</g>
		<g>
			<path class="st0" d="M348.5,265.2c4.9,0,10.1-2.1,13.6-5.6c1.9-1.7,3.2-3.8,4-6.2c1.2-2.3,1.8-4.8,1.7-7.4
				c-0.2-5-1.9-10.1-5.6-13.6c-3.8-3.5-8.4-5.6-13.6-5.6c-4.9,0-10.1,2.1-13.6,5.6c-1.9,1.7-3.2,3.8-4,6.2c-1.2,2.3-1.8,4.8-1.7,7.4
				c0.2,5,1.9,10.1,5.6,13.6C338.7,263,343.3,265.2,348.5,265.2L348.5,265.2z"/>
		</g>
		<g>
			<path class="st0" d="M53,363.7c4.9,0,10.1-2.1,13.6-5.6c1.9-1.7,3.2-3.8,4-6.2c1.2-2.3,1.8-4.8,1.7-7.4c-0.2-5-1.9-10.1-5.6-13.6
				c-3.8-3.5-8.4-5.6-13.6-5.6c-4.9,0-10.1,2.1-13.6,5.6c-1.9,1.7-3.2,3.8-4,6.2c-1.2,2.3-1.8,4.8-1.7,7.4c0.2,5,1.9,10.1,5.6,13.6
				C43.1,361.6,47.8,363.7,53,363.7L53,363.7z"/>
		</g>
		<g>
			<path class="st0" d="M151.5,374.1c4.1,0.2,7.9-0.7,11.4-2.5c3.7-1.2,6.8-3.2,9.5-6.1c2.9-2.7,4.9-5.8,6.1-9.5
				c1.9-3.5,2.7-7.3,2.5-11.4c-0.4-2.6-0.7-5.2-1.1-7.9c-1.4-5-3.9-9.4-7.6-13c-2-1.5-4-3.1-6-4.6c-4.6-2.7-9.6-4-14.9-4
				c-4.1-0.2-7.9,0.7-11.4,2.5c-3.7,1.2-6.8,3.2-9.5,6.1c-2.9,2.7-4.9,5.8-6.1,9.5c-1.9,3.5-2.7,7.3-2.5,11.4
				c0.4,2.6,0.7,5.2,1.1,7.9c1.4,5,3.9,9.4,7.6,13c2,1.5,4,3.1,6,4.6C141.2,372.7,146.1,374.1,151.5,374.1L151.5,374.1z"/>
		</g>
		<g>
			<path class="st0" d="M250,374.1c4.1,0.2,7.9-0.7,11.4-2.5c3.7-1.2,6.8-3.2,9.5-6.1c2.9-2.7,4.9-5.8,6.1-9.5
				c1.9-3.5,2.7-7.3,2.5-11.4c-0.4-2.6-0.7-5.2-1.1-7.9c-1.4-5-3.9-9.4-7.6-13c-2-1.5-4-3.1-6-4.6c-4.6-2.7-9.6-4-14.9-4
				c-4.1-0.2-7.9,0.7-11.4,2.5c-3.7,1.2-6.8,3.2-9.5,6.1c-2.9,2.7-4.9,5.8-6.1,9.5c-1.9,3.5-2.7,7.3-2.5,11.4
				c0.4,2.6,0.7,5.2,1.1,7.9c1.4,5,3.9,9.4,7.6,13c2,1.5,4,3.1,6,4.6C239.7,372.7,244.7,374.1,250,374.1L250,374.1z"/>
		</g>
		<g>
			<path class="st0" d="M348.5,374.1c4.1,0.2,7.9-0.7,11.4-2.5c3.7-1.2,6.8-3.2,9.5-6.1c2.9-2.7,4.9-5.8,6.1-9.5
				c1.9-3.5,2.7-7.3,2.5-11.4c-0.4-2.6-0.7-5.2-1.1-7.9c-1.4-5-3.9-9.4-7.6-13c-2-1.5-4-3.1-6-4.6c-4.6-2.7-9.6-4-14.9-4
				c-4.1-0.2-7.9,0.7-11.4,2.5c-3.7,1.2-6.8,3.2-9.5,6.1c-2.9,2.7-4.9,5.8-6.1,9.5c-1.9,3.5-2.7,7.3-2.5,11.4
				c0.4,2.6,0.7,5.2,1.1,7.9c1.4,5,3.9,9.4,7.6,13c2,1.5,4,3.1,6,4.6C338.2,372.7,343.2,374.1,348.5,374.1L348.5,374.1z"/>
		</g>
		<g>
			<path class="st0" d="M447,363.7c4.9,0,10.1-2.1,13.6-5.6c1.9-1.7,3.2-3.8,4-6.2c1.2-2.3,1.8-4.8,1.7-7.4
				c-0.2-5-1.9-10.1-5.6-13.6c-3.8-3.5-8.4-5.6-13.6-5.6c-4.9,0-10.1,2.1-13.6,5.6c-1.9,1.7-3.2,3.8-4,6.2c-1.2,2.3-1.8,4.8-1.7,7.4
				c0.2,5,1.9,10.1,5.6,13.6C437.2,361.6,441.8,363.7,447,363.7L447,363.7z"/>
		</g>
		<g>
			<path class="st0" d="M151.5,462.2c4.9,0,10.1-2.1,13.6-5.6c1.9-1.7,3.2-3.8,4-6.2c1.2-2.3,1.8-4.8,1.7-7.4
				c-0.2-5-1.9-10.1-5.6-13.6c-3.8-3.5-8.4-5.6-13.6-5.6c-4.9,0-10.1,2.1-13.6,5.6c-1.9,1.7-3.2,3.8-4,6.2c-1.2,2.3-1.8,4.8-1.7,7.4
				c0.2,5,1.9,10.1,5.6,13.6C141.7,460.1,146.3,462.2,151.5,462.2L151.5,462.2z"/>
		</g>
		<g>
			<path class="st0" d="M250,462.2c4.9,0,10.1-2.1,13.6-5.6c1.9-1.7,3.2-3.8,4-6.2c1.2-2.3,1.8-4.8,1.7-7.4
				c-0.2-5-1.9-10.1-5.6-13.6c-3.8-3.5-8.4-5.6-13.6-5.6c-4.9,0-10.1,2.1-13.6,5.6c-1.9,1.7-3.2,3.8-4,6.2c-1.2,2.3-1.8,4.8-1.7,7.4
				c0.2,5,1.9,10.1,5.6,13.6C240.2,460.1,244.8,462.2,250,462.2L250,462.2z"/>
		</g>
		<g>
			<path class="st0" d="M348.5,462.2c4.9,0,10.1-2.1,13.6-5.6c1.9-1.7,3.2-3.8,4-6.2c1.2-2.3,1.8-4.8,1.7-7.4
				c-0.2-5-1.9-10.1-5.6-13.6c-3.8-3.5-8.4-5.6-13.6-5.6c-4.9,0-10.1,2.1-13.6,5.6c-1.9,1.7-3.2,3.8-4,6.2c-1.2,2.3-1.8,4.8-1.7,7.4
				c0.2,5,1.9,10.1,5.6,13.6C338.7,460.1,343.3,462.2,348.5,462.2L348.5,462.2z"/>
		</g>
	</g>
</g>
</svg>
