<svg width="1204" height="400" viewBox="0 0 1204 400" fill="none" xmlns="http://www.w3.org/2000/svg">
<circle cx="74" cy="8" r="6" fill="#002642" fill-opacity="0.3"/>
<circle cx="1086" cy="8" r="6" fill="#002642" fill-opacity="0.3"/>
<circle cx="74" cy="40" r="6" fill="#002642" fill-opacity="0.3"/>
<circle cx="1086" cy="40" r="6" fill="#002642" fill-opacity="0.3"/>
<circle cx="52" cy="72" r="8" fill="#002642" fill-opacity="0.3"/>
<circle cx="74" cy="72" r="8" fill="#002642" fill-opacity="0.3"/>
<circle cx="96" cy="72" r="8" fill="#002642" fill-opacity="0.3"/>
<circle cx="1064" cy="72" r="8" fill="#002642" fill-opacity="0.3"/>
<circle cx="1086" cy="72" r="8" fill="#002642" fill-opacity="0.3"/>
<circle cx="1108" cy="72" r="8" fill="#002642" fill-opacity="0.3"/>
<circle cx="52" cy="104" r="8" fill="#002642" fill-opacity="0.3"/>
<circle cx="74" cy="104" r="8" fill="#002642" fill-opacity="0.3"/>
<circle cx="96" cy="104" r="8" fill="#002642" fill-opacity="0.3"/>
<circle cx="1064" cy="104" r="8" fill="#002642" fill-opacity="0.3"/>
<circle cx="1086" cy="104" r="8" fill="#002642" fill-opacity="0.3"/>
<circle cx="1108" cy="104" r="8" fill="#002642" fill-opacity="0.3"/>
<circle cx="30" cy="136" r="8" fill="#002642" fill-opacity="0.3"/>
<circle cx="52" cy="136" r="8" fill="#002642" fill-opacity="0.3"/>
<circle cx="74" cy="136" r="8" fill="#002642" fill-opacity="0.3"/>
<circle cx="96" cy="136" r="8" fill="#002642" fill-opacity="0.3"/>
<circle cx="118" cy="136" r="8" fill="#002642" fill-opacity="0.3"/>
<circle cx="1042" cy="136" r="8" fill="#002642" fill-opacity="0.3"/>
<circle cx="1064" cy="136" r="8" fill="#002642" fill-opacity="0.3"/>
<circle cx="1086" cy="136" r="8" fill="#002642" fill-opacity="0.3"/>
<circle cx="1108" cy="136" r="8" fill="#002642" fill-opacity="0.3"/>
<circle cx="1130" cy="136" r="8" fill="#002642" fill-opacity="0.3"/>
<circle cx="30" cy="168" r="8" fill="#002642" fill-opacity="0.3"/>
<circle cx="52" cy="168" r="8" fill="#002642" fill-opacity="0.3"/>
<circle cx="74" cy="168" r="8" fill="#002642" fill-opacity="0.3"/>
<circle cx="96" cy="168" r="8" fill="#002642" fill-opacity="0.3"/>
<circle cx="118" cy="168" r="8" fill="#002642" fill-opacity="0.3"/>
<circle cx="800" cy="168" r="6" fill="#002642" fill-opacity="0.3"/>
<circle cx="1042" cy="168" r="8" fill="#002642" fill-opacity="0.3"/>
<circle cx="1064" cy="168" r="8" fill="#002642" fill-opacity="0.3"/>
<circle cx="1086" cy="168" r="8" fill="#002642" fill-opacity="0.3"/>
<circle cx="1108" cy="168" r="8" fill="#002642" fill-opacity="0.3"/>
<circle cx="1130" cy="168" r="8" fill="#002642" fill-opacity="0.3"/>
<circle cx="30" cy="200" r="8" fill="#002642" fill-opacity="0.3"/>
<circle cx="52" cy="200" r="8" fill="#002642" fill-opacity="0.3"/>
<circle cx="74" cy="200" r="8" fill="#002642" fill-opacity="0.3"/>
<circle cx="96" cy="200" r="8" fill="#002642" fill-opacity="0.3"/>
<circle cx="118" cy="200" r="8" fill="#002642" fill-opacity="0.3"/>
<circle cx="514" cy="200" r="8" fill="#002642" fill-opacity="0.3"/>
<circle cx="536" cy="200" r="8" fill="#002642" fill-opacity="0.3"/>
<circle cx="558" cy="200" r="8" fill="#002642" fill-opacity="0.3"/>
<circle cx="580" cy="200" r="8" fill="#002642" fill-opacity="0.3"/>
<circle cx="778" cy="200" r="8" fill="#002642" fill-opacity="0.3"/>
<circle cx="800" cy="200" r="8" fill="#002642" fill-opacity="0.3"/>
<circle cx="822" cy="200" r="8" fill="#002642" fill-opacity="0.3"/>
<circle cx="1042" cy="200" r="8" fill="#002642" fill-opacity="0.3"/>
<circle cx="1064" cy="200" r="8" fill="#002642" fill-opacity="0.3"/>
<circle cx="1086" cy="200" r="8" fill="#002642" fill-opacity="0.3"/>
<circle cx="1108" cy="200" r="8" fill="#002642" fill-opacity="0.3"/>
<circle cx="1130" cy="200" r="8" fill="#002642" fill-opacity="0.3"/>
<circle cx="30" cy="232" r="8" fill="#002642" fill-opacity="0.3"/>
<circle cx="52" cy="232" r="8" fill="#002642" fill-opacity="0.3"/>
<circle cx="74" cy="232" r="8" fill="#002642" fill-opacity="0.3"/>
<circle cx="96" cy="232" r="8" fill="#002642" fill-opacity="0.3"/>
<circle cx="118" cy="232" r="8" fill="#002642" fill-opacity="0.3"/>
<circle cx="514" cy="232" r="8" fill="#002642" fill-opacity="0.3"/>
<circle cx="536" cy="232" r="8" fill="#002642" fill-opacity="0.3"/>
<circle cx="558" cy="232" r="8" fill="#002642" fill-opacity="0.3"/>
<circle cx="580" cy="232" r="8" fill="#002642" fill-opacity="0.3"/>
<circle cx="778" cy="232" r="8" fill="#002642" fill-opacity="0.3"/>
<circle cx="800" cy="232" r="8" fill="#002642" fill-opacity="0.3"/>
<circle cx="822" cy="232" r="8" fill="#002642" fill-opacity="0.3"/>
<circle cx="1042" cy="232" r="8" fill="#002642" fill-opacity="0.3"/>
<circle cx="1064" cy="232" r="8" fill="#002642" fill-opacity="0.3"/>
<circle cx="1086" cy="232" r="8" fill="#002642" fill-opacity="0.3"/>
<circle cx="1108" cy="232" r="8" fill="#002642" fill-opacity="0.3"/>
<circle cx="1130" cy="232" r="8" fill="#002642" fill-opacity="0.3"/>
<circle cx="30" cy="264" r="8" fill="#002642" fill-opacity="0.3"/>
<circle cx="52" cy="264" r="8" fill="#002642" fill-opacity="0.3"/>
<circle cx="74" cy="264" r="8" fill="#002642" fill-opacity="0.3"/>
<circle cx="96" cy="264" r="8" fill="#002642" fill-opacity="0.3"/>
<circle cx="118" cy="264" r="8" fill="#002642" fill-opacity="0.3"/>
<circle cx="140" cy="264" r="8" fill="#002642" fill-opacity="0.3"/>
<circle cx="162" cy="264" r="8" fill="#002642" fill-opacity="0.3"/>
<circle cx="184" cy="264" r="8" fill="#002642" fill-opacity="0.3"/>
<circle cx="206" cy="264" r="8" fill="#002642" fill-opacity="0.3"/>
<circle cx="360" cy="264" r="8" fill="#002642" fill-opacity="0.3"/>
<circle cx="514" cy="264" r="8" fill="#002642" fill-opacity="0.3"/>
<circle cx="536" cy="264" r="8" fill="#002642" fill-opacity="0.3"/>
<circle cx="558" cy="264" r="8" fill="#002642" fill-opacity="0.3"/>
<circle cx="580" cy="264" r="8" fill="#002642" fill-opacity="0.3"/>
<circle cx="756" cy="264" r="8" fill="#002642" fill-opacity="0.3"/>
<circle cx="778" cy="264" r="8" fill="#002642" fill-opacity="0.3"/>
<circle cx="800" cy="264" r="8" fill="#002642" fill-opacity="0.3"/>
<circle cx="822" cy="264" r="8" fill="#002642" fill-opacity="0.3"/>
<circle cx="844" cy="264" r="8" fill="#002642" fill-opacity="0.3"/>
<circle cx="998" cy="264" r="8" fill="#002642" fill-opacity="0.3"/>
<circle cx="1020" cy="264" r="8" fill="#002642" fill-opacity="0.3"/>
<circle cx="1042" cy="264" r="8" fill="#002642" fill-opacity="0.3"/>
<circle cx="1064" cy="264" r="8" fill="#002642" fill-opacity="0.3"/>
<circle cx="1086" cy="264" r="8" fill="#002642" fill-opacity="0.3"/>
<circle cx="1108" cy="264" r="8" fill="#002642" fill-opacity="0.3"/>
<circle cx="1130" cy="264" r="8" fill="#002642" fill-opacity="0.3"/>
<circle cx="30" cy="296" r="8" fill="#002642" fill-opacity="0.3"/>
<circle cx="52" cy="296" r="8" fill="#002642" fill-opacity="0.3"/>
<circle cx="74" cy="296" r="8" fill="#002642" fill-opacity="0.3"/>
<circle cx="96" cy="296" r="8" fill="#002642" fill-opacity="0.3"/>
<circle cx="118" cy="296" r="8" fill="#002642" fill-opacity="0.3"/>
<circle cx="140" cy="296" r="8" fill="#002642" fill-opacity="0.3"/>
<circle cx="162" cy="296" r="8" fill="#002642" fill-opacity="0.3"/>
<circle cx="184" cy="296" r="8" fill="#002642" fill-opacity="0.3"/>
<circle cx="206" cy="296" r="8" fill="#002642" fill-opacity="0.3"/>
<circle cx="338" cy="296" r="8" fill="#002642" fill-opacity="0.3"/>
<circle cx="360" cy="296" r="6" fill="#002642" fill-opacity="0.3"/>
<circle cx="382" cy="296" r="8" fill="#002642" fill-opacity="0.3"/>
<circle cx="514" cy="296" r="8" fill="#002642" fill-opacity="0.3"/>
<circle cx="536" cy="296" r="8" fill="#002642" fill-opacity="0.3"/>
<circle cx="558" cy="296" r="8" fill="#002642" fill-opacity="0.3"/>
<circle cx="580" cy="296" r="8" fill="#002642" fill-opacity="0.3"/>
<circle cx="756" cy="296" r="8" fill="#002642" fill-opacity="0.3"/>
<circle cx="778" cy="296" r="8" fill="#002642" fill-opacity="0.3"/>
<circle cx="800" cy="296" r="8" fill="#002642" fill-opacity="0.3"/>
<circle cx="822" cy="296" r="8" fill="#002642" fill-opacity="0.3"/>
<circle cx="844" cy="296" r="8" fill="#002642" fill-opacity="0.3"/>
<circle cx="954" cy="296" r="6" fill="#002642" fill-opacity="0.3"/>
<circle cx="976" cy="296" r="8" fill="#002642" fill-opacity="0.3"/>
<circle cx="998" cy="296" r="8" fill="#002642" fill-opacity="0.3"/>
<circle cx="1020" cy="296" r="8" fill="#002642" fill-opacity="0.3"/>
<circle cx="1042" cy="296" r="8" fill="#002642" fill-opacity="0.3"/>
<circle cx="1064" cy="296" r="8" fill="#002642" fill-opacity="0.3"/>
<circle cx="1086" cy="296" r="8" fill="#002642" fill-opacity="0.3"/>
<circle cx="1108" cy="296" r="8" fill="#002642" fill-opacity="0.3"/>
<circle cx="1130" cy="296" r="8" fill="#002642" fill-opacity="0.3"/>
<circle cx="30" cy="328" r="8" fill="#002642" fill-opacity="0.3"/>
<circle cx="52" cy="328" r="8" fill="#002642" fill-opacity="0.3"/>
<circle cx="74" cy="328" r="8" fill="#002642" fill-opacity="0.3"/>
<circle cx="96" cy="328" r="8" fill="#002642" fill-opacity="0.3"/>
<circle cx="118" cy="328" r="8" fill="#002642" fill-opacity="0.3"/>
<circle cx="140" cy="328" r="8" fill="#002642" fill-opacity="0.3"/>
<circle cx="162" cy="328" r="8" fill="#002642" fill-opacity="0.3"/>
<circle cx="184" cy="328" r="8" fill="#002642" fill-opacity="0.3"/>
<circle cx="206" cy="328" r="8" fill="#002642" fill-opacity="0.3"/>
<circle cx="316" cy="328" r="8" fill="#002642" fill-opacity="0.3"/>
<circle cx="338" cy="328" r="6" fill="#002642" fill-opacity="0.3"/>
<circle cx="360" cy="328" r="6" fill="#002642" fill-opacity="0.3"/>
<circle cx="382" cy="328" r="6" fill="#002642" fill-opacity="0.3"/>
<circle cx="404" cy="328" r="8" fill="#002642" fill-opacity="0.3"/>
<circle cx="514" cy="328" r="8" fill="#002642" fill-opacity="0.3"/>
<circle cx="536" cy="328" r="8" fill="#002642" fill-opacity="0.3"/>
<circle cx="558" cy="328" r="8" fill="#002642" fill-opacity="0.3"/>
<circle cx="580" cy="328" r="8" fill="#002642" fill-opacity="0.3"/>
<circle cx="602" cy="328" r="6" fill="#002642" fill-opacity="0.3"/>
<circle cx="756" cy="328" r="8" fill="#002642" fill-opacity="0.3"/>
<circle cx="778" cy="328" r="8" fill="#002642" fill-opacity="0.3"/>
<circle cx="800" cy="328" r="8" fill="#002642" fill-opacity="0.3"/>
<circle cx="822" cy="328" r="8" fill="#002642" fill-opacity="0.3"/>
<circle cx="844" cy="328" r="8" fill="#002642" fill-opacity="0.3"/>
<circle cx="954" cy="328" r="8" fill="#002642" fill-opacity="0.3"/>
<circle cx="976" cy="328" r="8" fill="#002642" fill-opacity="0.3"/>
<circle cx="998" cy="328" r="8" fill="#002642" fill-opacity="0.3"/>
<circle cx="1020" cy="328" r="8" fill="#002642" fill-opacity="0.3"/>
<circle cx="1042" cy="328" r="8" fill="#002642" fill-opacity="0.3"/>
<circle cx="1064" cy="328" r="8" fill="#002642" fill-opacity="0.3"/>
<circle cx="1086" cy="328" r="8" fill="#002642" fill-opacity="0.3"/>
<circle cx="1108" cy="328" r="8" fill="#002642" fill-opacity="0.3"/>
<circle cx="1130" cy="328" r="8" fill="#002642" fill-opacity="0.3"/>
<circle cx="8" cy="360" r="8" fill="#002642" fill-opacity="0.3"/>
<circle cx="30" cy="360" r="8" fill="#002642" fill-opacity="0.3"/>
<circle cx="52" cy="360" r="8" fill="#002642" fill-opacity="0.3"/>
<circle cx="74" cy="360" r="8" fill="#002642" fill-opacity="0.3"/>
<circle cx="96" cy="360" r="8" fill="#002642" fill-opacity="0.3"/>
<circle cx="118" cy="360" r="8" fill="#002642" fill-opacity="0.3"/>
<circle cx="140" cy="360" r="8" fill="#002642" fill-opacity="0.3"/>
<circle cx="162" cy="360" r="8" fill="#002642" fill-opacity="0.3"/>
<circle cx="184" cy="360" r="8" fill="#002642" fill-opacity="0.3"/>
<circle cx="206" cy="360" r="8" fill="#002642" fill-opacity="0.3"/>
<circle cx="228" cy="360" r="6" fill="#002642" fill-opacity="0.3"/>
<circle cx="250" cy="360" r="6" fill="#002642" fill-opacity="0.3"/>
<circle cx="272" cy="360" r="6" fill="#002642" fill-opacity="0.3"/>
<circle cx="294" cy="360" r="8" fill="#002642" fill-opacity="0.3"/>
<circle cx="316" cy="360" r="8" fill="#002642" fill-opacity="0.3"/>
<circle cx="338" cy="360" r="8" fill="#002642" fill-opacity="0.3"/>
<circle cx="360" cy="360" r="8" fill="#002642" fill-opacity="0.3"/>
<circle cx="382" cy="360" r="8" fill="#002642" fill-opacity="0.3"/>
<circle cx="404" cy="360" r="8" fill="#002642" fill-opacity="0.3"/>
<circle cx="426" cy="360" r="8" fill="#002642" fill-opacity="0.3"/>
<circle cx="448" cy="360" r="8" fill="#002642" fill-opacity="0.3"/>
<circle cx="470" cy="360" r="8" fill="#002642" fill-opacity="0.3"/>
<circle cx="492" cy="360" r="8" fill="#002642" fill-opacity="0.3"/>
<circle cx="514" cy="360" r="8" fill="#002642" fill-opacity="0.3"/>
<circle cx="536" cy="360" r="8" fill="#002642" fill-opacity="0.3"/>
<circle cx="558" cy="360" r="8" fill="#002642" fill-opacity="0.3"/>
<circle cx="580" cy="360" r="8" fill="#002642" fill-opacity="0.3"/>
<circle cx="602" cy="360" r="8" fill="#002642" fill-opacity="0.3"/>
<circle cx="624" cy="360" r="8" fill="#002642" fill-opacity="0.3"/>
<circle cx="646" cy="360" r="8" fill="#002642" fill-opacity="0.3"/>
<circle cx="668" cy="360" r="8" fill="#002642" fill-opacity="0.3"/>
<circle cx="690" cy="360" r="8" fill="#002642" fill-opacity="0.3"/>
<circle cx="712" cy="360" r="8" fill="#002642" fill-opacity="0.3"/>
<circle cx="734" cy="360" r="8" fill="#002642" fill-opacity="0.3"/>
<circle cx="756" cy="360" r="8" fill="#002642" fill-opacity="0.3"/>
<circle cx="778" cy="360" r="8" fill="#002642" fill-opacity="0.3"/>
<circle cx="800" cy="360" r="8" fill="#002642" fill-opacity="0.3"/>
<circle cx="822" cy="360" r="8" fill="#002642" fill-opacity="0.3"/>
<circle cx="844" cy="360" r="8" fill="#002642" fill-opacity="0.3"/>
<circle cx="866" cy="360" r="6" fill="#002642" fill-opacity="0.3"/>
<circle cx="888" cy="360" r="6" fill="#002642" fill-opacity="0.3"/>
<circle cx="910" cy="360" r="6" fill="#002642" fill-opacity="0.3"/>
<circle cx="932" cy="360" r="6" fill="#002642" fill-opacity="0.3"/>
<circle cx="954" cy="360" r="8" fill="#002642" fill-opacity="0.3"/>
<circle cx="976" cy="360" r="8" fill="#002642" fill-opacity="0.3"/>
<circle cx="998" cy="360" r="8" fill="#002642" fill-opacity="0.3"/>
<circle cx="1020" cy="360" r="8" fill="#002642" fill-opacity="0.3"/>
<circle cx="1042" cy="360" r="8" fill="#002642" fill-opacity="0.3"/>
<circle cx="1064" cy="360" r="8" fill="#002642" fill-opacity="0.3"/>
<circle cx="1086" cy="360" r="8" fill="#002642" fill-opacity="0.3"/>
<circle cx="1108" cy="360" r="8" fill="#002642" fill-opacity="0.3"/>
<circle cx="1130" cy="360" r="8" fill="#002642" fill-opacity="0.3"/>
<circle cx="1152" cy="360" r="8" fill="#002642" fill-opacity="0.3"/>
<circle cx="1174" cy="360" r="8" fill="#002642" fill-opacity="0.3"/>
<circle cx="1196" cy="360" r="6" fill="#002642" fill-opacity="0.3"/>
<circle cx="8" cy="392" r="8" fill="#002642" fill-opacity="0.3"/>
<circle cx="30" cy="392" r="8" fill="#002642" fill-opacity="0.3"/>
<circle cx="52" cy="392" r="8" fill="#002642" fill-opacity="0.3"/>
<circle cx="74" cy="392" r="8" fill="#002642" fill-opacity="0.3"/>
<circle cx="96" cy="392" r="8" fill="#002642" fill-opacity="0.3"/>
<circle cx="118" cy="392" r="8" fill="#002642" fill-opacity="0.3"/>
<circle cx="140" cy="392" r="8" fill="#002642" fill-opacity="0.3"/>
<circle cx="162" cy="392" r="8" fill="#002642" fill-opacity="0.3"/>
<circle cx="184" cy="392" r="8" fill="#002642" fill-opacity="0.3"/>
<circle cx="206" cy="392" r="8" fill="#002642" fill-opacity="0.3"/>
<circle cx="228" cy="392" r="8" fill="#002642" fill-opacity="0.3"/>
<circle cx="250" cy="392" r="8" fill="#002642" fill-opacity="0.3"/>
<circle cx="272" cy="392" r="8" fill="#002642" fill-opacity="0.3"/>
<circle cx="294" cy="392" r="8" fill="#002642" fill-opacity="0.3"/>
<circle cx="316" cy="392" r="8" fill="#002642" fill-opacity="0.3"/>
<circle cx="338" cy="392" r="8" fill="#002642" fill-opacity="0.3"/>
<circle cx="360" cy="392" r="8" fill="#002642" fill-opacity="0.3"/>
<circle cx="382" cy="392" r="8" fill="#002642" fill-opacity="0.3"/>
<circle cx="404" cy="392" r="8" fill="#002642" fill-opacity="0.3"/>
<circle cx="426" cy="392" r="8" fill="#002642" fill-opacity="0.3"/>
<circle cx="448" cy="392" r="8" fill="#002642" fill-opacity="0.3"/>
<circle cx="470" cy="392" r="8" fill="#002642" fill-opacity="0.3"/>
<circle cx="492" cy="392" r="8" fill="#002642" fill-opacity="0.3"/>
<circle cx="514" cy="392" r="8" fill="#002642" fill-opacity="0.3"/>
<circle cx="536" cy="392" r="8" fill="#002642" fill-opacity="0.3"/>
<circle cx="558" cy="392" r="8" fill="#002642" fill-opacity="0.3"/>
<circle cx="580" cy="392" r="8" fill="#002642" fill-opacity="0.3"/>
<circle cx="602" cy="392" r="8" fill="#002642" fill-opacity="0.3"/>
<circle cx="624" cy="392" r="8" fill="#002642" fill-opacity="0.3"/>
<circle cx="646" cy="392" r="8" fill="#002642" fill-opacity="0.3"/>
<circle cx="668" cy="392" r="8" fill="#002642" fill-opacity="0.3"/>
<circle cx="690" cy="392" r="8" fill="#002642" fill-opacity="0.3"/>
<circle cx="712" cy="392" r="8" fill="#002642" fill-opacity="0.3"/>
<circle cx="734" cy="392" r="8" fill="#002642" fill-opacity="0.3"/>
<circle cx="756" cy="392" r="8" fill="#002642" fill-opacity="0.3"/>
<circle cx="778" cy="392" r="8" fill="#002642" fill-opacity="0.3"/>
<circle cx="800" cy="392" r="8" fill="#002642" fill-opacity="0.3"/>
<circle cx="822" cy="392" r="8" fill="#002642" fill-opacity="0.3"/>
<circle cx="844" cy="392" r="8" fill="#002642" fill-opacity="0.3"/>
<circle cx="866" cy="392" r="8" fill="#002642" fill-opacity="0.3"/>
<circle cx="888" cy="392" r="8" fill="#002642" fill-opacity="0.3"/>
<circle cx="910" cy="392" r="8" fill="#002642" fill-opacity="0.3"/>
<circle cx="932" cy="392" r="8" fill="#002642" fill-opacity="0.3"/>
<circle cx="954" cy="392" r="8" fill="#002642" fill-opacity="0.3"/>
<circle cx="976" cy="392" r="8" fill="#002642" fill-opacity="0.3"/>
<circle cx="998" cy="392" r="8" fill="#002642" fill-opacity="0.3"/>
<circle cx="1020" cy="392" r="8" fill="#002642" fill-opacity="0.3"/>
<circle cx="1042" cy="392" r="8" fill="#002642" fill-opacity="0.3"/>
<circle cx="1064" cy="392" r="8" fill="#002642" fill-opacity="0.3"/>
<circle cx="1086" cy="392" r="8" fill="#002642" fill-opacity="0.3"/>
<circle cx="1108" cy="392" r="8" fill="#002642" fill-opacity="0.3"/>
<circle cx="1130" cy="392" r="8" fill="#002642" fill-opacity="0.3"/>
<circle cx="1152" cy="392" r="8" fill="#002642" fill-opacity="0.3"/>
<circle cx="1174" cy="392" r="8" fill="#002642" fill-opacity="0.3"/>
<circle cx="1196" cy="392" r="8" fill="#002642" fill-opacity="0.3"/>
</svg>
