<?xml version="1.0" encoding="utf-8"?>
<!-- Generator: Adobe Illustrator 24.1.0, SVG Export Plug-In . SVG Version: 6.00 Build 0)  -->
<svg version="1.1" id="Capa_1" xmlns="http://www.w3.org/2000/svg" xmlns:xlink="http://www.w3.org/1999/xlink" x="0px" y="0px"
	 viewBox="0 0 619 501" style="enable-background:new 0 0 619 501;" xml:space="preserve">
<style type="text/css">
	.st0{fill:#798084;}
	.st1{opacity:0.3;}
</style>
<g>
	<g>
		<g>
			<g>
				<path class="st0" d="M222.9,247.7v-0.1c0-14.8,11.2-27,27.2-27c9.8,0,15.7,3.3,20.6,8.1l-7.3,8.4c-4-3.7-8.1-5.9-13.4-5.9
					c-8.8,0-15.1,7.3-15.1,16.3v0.1c0,9,6.2,16.4,15.1,16.4c6,0,9.6-2.4,13.7-6.1l7.3,7.4c-5.4,5.7-11.3,9.3-21.4,9.3
					C234.3,274.6,222.9,262.7,222.9,247.7z"/>
				<path class="st0" d="M279.6,233.7H291v40h-11.3V233.7z"/>
				<path class="st0" d="M301.3,259.6v-25.9h11.3V256c0,5.4,2.5,8.1,6.9,8.1c4.3,0,7.1-2.8,7.1-8.1v-22.3H338v40h-11.3V268
					c-2.6,3.4-6,6.4-11.7,6.4C306.3,274.4,301.3,268.8,301.3,259.6z"/>
				<path class="st0" d="M346.3,253.8v-0.1c0-13.4,8.7-20.7,18.2-20.7c6,0,9.8,2.8,12.5,6v-19.7h11.3v54.5H377v-5.7
					c-2.8,3.7-6.6,6.5-12.5,6.5C355.2,274.4,346.3,267.1,346.3,253.8z M377.1,253.8v-0.1c0-6.6-4.4-11-9.7-11c-5.3,0-9.8,4.3-9.8,11
					v0.1c0,6.6,4.5,11,9.8,11C372.7,264.8,377.1,260.4,377.1,253.8z"/>
				<path class="st0" d="M396.1,262.2V262c0-8.7,6.6-12.8,16.1-12.8c4,0,9.8,0.2,9.8,0.2c0-4.6-3.8-6.5-8.6-6.5
					c-4.3,0-7.4,0.8-11,2.2l-2.8-8.7c4.4-1.9,8.7-3.2,15.5-3.2c6.2,0,10.7,1.6,13.5,4.5c3,3,4.3,7.4,4.3,12.8v23.2h-11v-4.3
					c-2.8,3.1-6.6,5.1-12.1,5.1C402.3,274.4,396.1,270.1,396.1,262.2z M422.1,259.6v-2.7c0,0-4.5,0-7.2,0c-4.8,0-7.8,1.1-7.8,4.7
					v0.1c0,3.1,2.5,4.8,6.2,4.8C418.5,266.6,422.1,263.7,422.1,259.6z"/>
				<path class="st0" d="M440,253.8v-0.1c0-13.4,8.7-20.7,18.2-20.7c6,0,9.8,2.8,12.5,6v-19.7H482v54.5h-11.3v-5.7
					c-2.8,3.7-6.6,6.5-12.5,6.5C448.9,274.4,440,267.1,440,253.8z M470.8,253.8v-0.1c0-6.6-4.4-11-9.7-11c-5.3,0-9.8,4.3-9.8,11v0.1
					c0,6.6,4.5,11,9.8,11C466.4,264.8,470.8,260.4,470.8,253.8z"/>
				<path class="st0" d="M489.4,253.9v-0.1c0-11.4,8.1-20.8,19.8-20.8c13.4,0,19.5,10.4,19.5,21.7c0,0.9-0.1,1.9-0.1,3h-27.8
					c1.1,5.1,4.7,7.8,9.8,7.8c3.8,0,6.6-1.2,9.7-4.1l6.5,5.7c-3.7,4.6-9.1,7.5-16.3,7.5C498.3,274.6,489.4,266.1,489.4,253.9z
					 M517.6,250.6c-0.7-5.1-3.7-8.5-8.4-8.5c-4.7,0-7.8,3.4-8.7,8.5H517.6z"/>
				<path class="st0" d="M534,268.4l4.8-7.5c4.3,3.1,8.9,4.8,12.6,4.8c3.3,0,4.8-1.2,4.8-3v-0.1c0-2.5-3.9-3.3-8.3-4.6
					c-5.6-1.6-11.9-4.3-11.9-12v-0.1c0-8.1,6.6-12.7,14.6-12.7c5.1,0,10.6,1.7,14.9,4.6l-4.3,7.8c-4-2.3-7.9-3.7-10.8-3.7
					c-2.8,0-4.2,1.2-4.2,2.8v0.1c0,2.2,3.8,3.3,8.1,4.8c5.6,1.9,12.1,4.6,12.1,11.9v0.1c0,8.9-6.6,12.9-15.3,12.9
					C545.5,274.4,539.3,272.6,534,268.4z"/>
			</g>
			<circle class="st0" cx="285.3" cy="223.3" r="6"/>
		</g>
	</g>
	<g class="st1">
		<circle class="st0" cx="67.8" cy="65.1" r="4.4"/>
		<circle class="st0" cx="108.2" cy="65.1" r="4.4"/>
		<circle class="st0" cx="148.7" cy="65.1" r="8.1"/>
		<path class="st0" d="M189.1,77.3c6.7,0,12.1-5.4,12.1-12.1S195.8,53,189.1,53S177,58.4,177,65.1S182.4,77.3,189.1,77.3z"/>
		<path class="st0" d="M229.6,77.3c6.7,0,12.1-5.4,12.1-12.1S236.3,53,229.6,53s-12.1,5.4-12.1,12.1S222.9,77.3,229.6,77.3z"/>
		<path class="st0" d="M270,77.3c6.7,0,12.1-5.4,12.1-12.1S276.7,53,270,53c-6.7,0-12.1,5.4-12.1,12.1S263.3,77.3,270,77.3z"/>
		<circle class="st0" cx="310.5" cy="65.1" r="8.1"/>
		<circle class="st0" cx="350.9" cy="65.1" r="4.4"/>
		<circle class="st0" cx="391.3" cy="65.1" r="4.4"/>
		<circle class="st0" cx="67.8" cy="105.6" r="4.4"/>
		<circle class="st0" cx="108.2" cy="105.6" r="8.1"/>
		<path class="st0" d="M148.7,117.7c6.7,0,12.1-5.4,12.1-12.1s-5.4-12.1-12.1-12.1s-12.1,5.4-12.1,12.1S142,117.7,148.7,117.7z"/>
		<path class="st0" d="M189.1,89.4c-8.9,0-16.2,7.3-16.2,16.2s7.3,16.2,16.2,16.2s16.2-7.3,16.2-16.2S198,89.4,189.1,89.4z"/>
		<path class="st0" d="M229.6,89.4c-8.9,0-16.2,7.3-16.2,16.2s7.3,16.2,16.2,16.2c8.9,0,16.2-7.3,16.2-16.2S238.5,89.4,229.6,89.4z"
			/>
		<path class="st0" d="M270,89.4c-8.9,0-16.2,7.3-16.2,16.2s7.3,16.2,16.2,16.2s16.2-7.3,16.2-16.2S278.9,89.4,270,89.4z"/>
		<path class="st0" d="M310.5,89.4c-8.9,0-16.2,7.3-16.2,16.2s7.3,16.2,16.2,16.2s16.2-7.3,16.2-16.2S319.4,89.4,310.5,89.4z"/>
		<path class="st0" d="M350.9,117.7c6.7,0,12.1-5.4,12.1-12.1s-5.4-12.1-12.1-12.1c-6.7,0-12.1,5.4-12.1,12.1
			S344.2,117.7,350.9,117.7z"/>
		<circle class="st0" cx="391.3" cy="105.6" r="8.1"/>
		<circle class="st0" cx="67.8" cy="146" r="8.1"/>
		<path class="st0" d="M108.2,158.1c6.7,0,12.1-5.4,12.1-12.1s-5.4-12.1-12.1-12.1s-12.1,5.4-12.1,12.1S101.5,158.1,108.2,158.1z"/>
		<path class="st0" d="M148.7,129.8c-8.9,0-16.2,7.3-16.2,16.2s7.3,16.2,16.2,16.2s16.2-7.3,16.2-16.2S157.6,129.8,148.7,129.8z"/>
		<path class="st0" d="M201.3,146c0-6.7-5.4-12.1-12.1-12.1S177,139.3,177,146s5.4,12.1,12.1,12.1S201.3,152.7,201.3,146z"/>
		<path class="st0" d="M241.7,146c0-6.7-5.4-12.1-12.1-12.1s-12.1,5.4-12.1,12.1s5.4,12.1,12.1,12.1S241.7,152.7,241.7,146z"/>
		<path class="st0" d="M282.1,146c0-6.7-5.4-12.1-12.1-12.1c-6.7,0-12.1,5.4-12.1,12.1s5.4,12.1,12.1,12.1
			C276.7,158.1,282.1,152.7,282.1,146z"/>
		<path class="st0" d="M322.6,146c0-6.7-5.4-12.1-12.1-12.1c-6.7,0-12.1,5.4-12.1,12.1s5.4,12.1,12.1,12.1
			C317.1,158.1,322.6,152.7,322.6,146z"/>
		<path class="st0" d="M350.9,129.8c-8.9,0-16.2,7.3-16.2,16.2s7.3,16.2,16.2,16.2s16.2-7.3,16.2-16.2S359.8,129.8,350.9,129.8z"/>
		<path class="st0" d="M391.3,129.8c-8.9,0-16.2,7.3-16.2,16.2s7.3,16.2,16.2,16.2s16.2-7.3,16.2-16.2S400.3,129.8,391.3,129.8z"/>
		<path class="st0" d="M67.8,198.6c6.7,0,12.1-5.4,12.1-12.1s-5.4-12.1-12.1-12.1s-12.1,5.4-12.1,12.1S61.1,198.6,67.8,198.6z"/>
		<path class="st0" d="M108.2,170.3c-8.9,0-16.2,7.3-16.2,16.2s7.3,16.2,16.2,16.2s16.2-7.3,16.2-16.2S117.2,170.3,108.2,170.3z"/>
		<path class="st0" d="M160.8,186.5c0-6.7-5.4-12.1-12.1-12.1s-12.1,5.4-12.1,12.1s5.4,12.1,12.1,12.1S160.8,193.1,160.8,186.5z"/>
		<circle class="st0" cx="189.1" cy="186.5" r="8.1"/>
		<circle class="st0" cx="229.6" cy="186.5" r="8.1"/>
		<circle class="st0" cx="270" cy="186.5" r="8.1"/>
		<circle class="st0" cx="310.5" cy="186.5" r="8.1"/>
		<path class="st0" d="M363,186.5c0-6.7-5.4-12.1-12.1-12.1c-6.7,0-12.1,5.4-12.1,12.1s5.4,12.1,12.1,12.1
			C357.6,198.6,363,193.1,363,186.5z"/>
		<circle class="st0" cx="391.3" cy="186.5" r="8.1"/>
		<path class="st0" d="M67.8,210.7c-8.9,0-16.2,7.3-16.2,16.2s7.3,16.2,16.2,16.2S84,235.8,84,226.9S76.7,210.7,67.8,210.7z"/>
		<path class="st0" d="M108.2,210.7c-8.9,0-16.2,7.3-16.2,16.2s7.3,16.2,16.2,16.2s16.2-7.3,16.2-16.2S117.2,210.7,108.2,210.7z"/>
		<path class="st0" d="M148.7,218.8c-4.5,0-8.1,3.6-8.1,8.1c0,4.5,3.6,8.1,8.1,8.1s8.1-3.6,8.1-8.1
			C156.8,222.4,153.1,218.8,148.7,218.8z"/>
		<path class="st0" d="M67.8,251.2c-8.9,0-16.2,7.3-16.2,16.2c0,8.9,7.3,16.2,16.2,16.2S84,276.3,84,267.3
			C84,258.4,76.7,251.2,67.8,251.2z"/>
		<path class="st0" d="M108.2,251.2c-8.9,0-16.2,7.3-16.2,16.2c0,8.9,7.3,16.2,16.2,16.2s16.2-7.3,16.2-16.2
			C124.4,258.4,117.2,251.2,108.2,251.2z"/>
		<path class="st0" d="M148.7,259.2c-4.5,0-8.1,3.6-8.1,8.1c0,4.5,3.6,8.1,8.1,8.1s8.1-3.6,8.1-8.1
			C156.8,262.9,153.1,259.2,148.7,259.2z"/>
		<path class="st0" d="M189.1,231.3c2.5,0,4.4-2,4.4-4.4c0-2.5-2-4.4-4.4-4.4s-4.4,2-4.4,4.4C184.7,229.3,186.7,231.3,189.1,231.3z"
			/>
		<path class="st0" d="M189.1,271.8c2.5,0,4.4-2,4.4-4.4c0-2.5-2-4.4-4.4-4.4s-4.4,2-4.4,4.4C184.7,269.8,186.7,271.8,189.1,271.8z"
			/>
		<path class="st0" d="M67.8,295.6c-6.7,0-12.1,5.4-12.1,12.1c0,6.7,5.4,12.1,12.1,12.1s12.1-5.4,12.1-12.1
			C79.9,301.1,74.5,295.6,67.8,295.6z"/>
		<path class="st0" d="M108.2,291.6c-8.9,0-16.2,7.3-16.2,16.2c0,8.9,7.3,16.2,16.2,16.2s16.2-7.3,16.2-16.2
			C124.4,298.9,117.2,291.6,108.2,291.6z"/>
		<path class="st0" d="M148.7,319.9c6.7,0,12.1-5.4,12.1-12.1c0-6.7-5.4-12.1-12.1-12.1s-12.1,5.4-12.1,12.1
			C136.5,314.5,142,319.9,148.7,319.9z"/>
		<path class="st0" d="M181,307.8c0,4.5,3.6,8.1,8.1,8.1s8.1-3.6,8.1-8.1c0-4.5-3.6-8.1-8.1-8.1S181,303.3,181,307.8z"/>
		<path class="st0" d="M221.5,307.8c0,4.5,3.6,8.1,8.1,8.1c4.5,0,8.1-3.6,8.1-8.1c0-4.5-3.6-8.1-8.1-8.1
			C225.1,299.7,221.5,303.3,221.5,307.8z"/>
		<path class="st0" d="M261.9,307.8c0,4.5,3.6,8.1,8.1,8.1s8.1-3.6,8.1-8.1c0-4.5-3.6-8.1-8.1-8.1S261.9,303.3,261.9,307.8z"/>
		<path class="st0" d="M302.4,307.8c0,4.5,3.6,8.1,8.1,8.1s8.1-3.6,8.1-8.1c0-4.5-3.6-8.1-8.1-8.1S302.4,303.3,302.4,307.8z"/>
		<path class="st0" d="M350.9,319.9c6.7,0,12.1-5.4,12.1-12.1c0-6.7-5.4-12.1-12.1-12.1c-6.7,0-12.1,5.4-12.1,12.1
			C338.8,314.5,344.2,319.9,350.9,319.9z"/>
		<path class="st0" d="M391.3,315.9c4.5,0,8.1-3.6,8.1-8.1c0-4.5-3.6-8.1-8.1-8.1s-8.1,3.6-8.1,8.1
			C383.3,312.2,386.9,315.9,391.3,315.9z"/>
		<path class="st0" d="M67.8,340.1c-4.5,0-8.1,3.6-8.1,8.1c0,4.5,3.6,8.1,8.1,8.1s8.1-3.6,8.1-8.1C75.9,343.8,72.3,340.1,67.8,340.1
			z"/>
		<path class="st0" d="M108.2,336.1c-6.7,0-12.1,5.4-12.1,12.1c0,6.7,5.4,12.1,12.1,12.1s12.1-5.4,12.1-12.1
			C120.4,341.5,114.9,336.1,108.2,336.1z"/>
		<path class="st0" d="M148.7,332c-8.9,0-16.2,7.3-16.2,16.2c0,8.9,7.3,16.2,16.2,16.2s16.2-7.3,16.2-16.2
			C164.9,339.3,157.6,332,148.7,332z"/>
		<path class="st0" d="M189.1,360.4c6.7,0,12.1-5.4,12.1-12.1c0-6.7-5.4-12.1-12.1-12.1s-12.1,5.4-12.1,12.1
			C177,354.9,182.4,360.4,189.1,360.4z"/>
		<path class="st0" d="M229.6,360.4c6.7,0,12.1-5.4,12.1-12.1c0-6.7-5.4-12.1-12.1-12.1s-12.1,5.4-12.1,12.1
			C217.4,354.9,222.9,360.4,229.6,360.4z"/>
		<path class="st0" d="M270,360.4c6.7,0,12.1-5.4,12.1-12.1c0-6.7-5.4-12.1-12.1-12.1c-6.7,0-12.1,5.4-12.1,12.1
			C257.9,354.9,263.3,360.4,270,360.4z"/>
		<path class="st0" d="M310.5,360.4c6.7,0,12.1-5.4,12.1-12.1c0-6.7-5.4-12.1-12.1-12.1c-6.7,0-12.1,5.4-12.1,12.1
			C298.3,354.9,303.8,360.4,310.5,360.4z"/>
		<path class="st0" d="M350.9,332c-8.9,0-16.2,7.3-16.2,16.2c0,8.9,7.3,16.2,16.2,16.2s16.2-7.3,16.2-16.2
			C367.1,339.3,359.8,332,350.9,332z"/>
		<path class="st0" d="M391.3,332c-8.9,0-16.2,7.3-16.2,16.2c0,8.9,7.3,16.2,16.2,16.2s16.2-7.3,16.2-16.2
			C407.5,339.3,400.3,332,391.3,332z"/>
		<circle class="st0" cx="67.8" cy="388.7" r="4.4"/>
		<circle class="st0" cx="108.2" cy="388.7" r="8.1"/>
		<path class="st0" d="M148.7,376.5c-6.7,0-12.1,5.4-12.1,12.1c0,6.7,5.4,12.1,12.1,12.1s12.1-5.4,12.1-12.1
			C160.8,382,155.4,376.5,148.7,376.5z"/>
		<path class="st0" d="M189.1,372.5c-8.9,0-16.2,7.3-16.2,16.2s7.3,16.2,16.2,16.2s16.2-7.3,16.2-16.2S198,372.5,189.1,372.5z"/>
		<path class="st0" d="M229.6,372.5c-8.9,0-16.2,7.3-16.2,16.2s7.3,16.2,16.2,16.2c8.9,0,16.2-7.3,16.2-16.2
			S238.5,372.5,229.6,372.5z"/>
		<path class="st0" d="M270,372.5c-8.9,0-16.2,7.3-16.2,16.2s7.3,16.2,16.2,16.2s16.2-7.3,16.2-16.2S278.9,372.5,270,372.5z"/>
		<path class="st0" d="M310.5,372.5c-8.9,0-16.2,7.3-16.2,16.2s7.3,16.2,16.2,16.2s16.2-7.3,16.2-16.2S319.4,372.5,310.5,372.5z"/>
		<path class="st0" d="M350.9,376.5c-6.7,0-12.1,5.4-12.1,12.1c0,6.7,5.4,12.1,12.1,12.1c6.7,0,12.1-5.4,12.1-12.1
			C363,382,357.6,376.5,350.9,376.5z"/>
		<circle class="st0" cx="391.3" cy="388.7" r="8.1"/>
		<circle class="st0" cx="67.8" cy="429.1" r="4.4"/>
		<circle class="st0" cx="108.2" cy="429.1" r="4.4"/>
		<circle class="st0" cx="148.7" cy="429.1" r="8.1"/>
		<path class="st0" d="M189.1,417c-6.7,0-12.1,5.4-12.1,12.1c0,6.7,5.4,12.1,12.1,12.1s12.1-5.4,12.1-12.1
			C201.3,422.4,195.8,417,189.1,417z"/>
		<path class="st0" d="M229.6,417c-6.7,0-12.1,5.4-12.1,12.1c0,6.7,5.4,12.1,12.1,12.1s12.1-5.4,12.1-12.1
			C241.7,422.4,236.3,417,229.6,417z"/>
		<path class="st0" d="M270,417c-6.7,0-12.1,5.4-12.1,12.1c0,6.7,5.4,12.1,12.1,12.1c6.7,0,12.1-5.4,12.1-12.1
			C282.1,422.4,276.7,417,270,417z"/>
		<circle class="st0" cx="310.5" cy="429.1" r="8.1"/>
		<circle class="st0" cx="350.9" cy="429.1" r="4.4"/>
		<circle class="st0" cx="391.3" cy="429.1" r="4.4"/>
		<circle class="st0" cx="431.8" cy="65.1" r="4.4"/>
		<circle class="st0" cx="431.8" cy="105.6" r="4.4"/>
		<circle class="st0" cx="431.8" cy="146" r="4.4"/>
		<circle class="st0" cx="431.8" cy="186.5" r="8.1"/>
		<path class="st0" d="M431.8,299.7c-4.5,0-8.1,3.6-8.1,8.1c0,4.5,3.6,8.1,8.1,8.1s8.1-3.6,8.1-8.1
			C439.9,303.3,436.2,299.7,431.8,299.7z"/>
		<path class="st0" d="M431.8,343.8c-2.5,0-4.4,2-4.4,4.4c0,2.5,2,4.4,4.4,4.4c2.5,0,4.4-2,4.4-4.4
			C436.2,345.8,434.2,343.8,431.8,343.8z"/>
		<circle class="st0" cx="431.8" cy="388.7" r="4.4"/>
		<circle class="st0" cx="431.8" cy="429.1" r="4.4"/>
	</g>
</g>
</svg>
